<svg xmlns="http://www.w3.org/2000/svg" width="205.664" height="22" viewBox="0 0 205.664 22">
    <defs>
        <style>
            .cls-1{fill:#040000}.cls-2{fill:#7fae4d}
        </style>
    </defs>
    <g id="lgoo" transform="translate(-43.413 -118.64)">
        <path id="패스_11234" data-name="패스 11234" class="cls-1" d="M606.884 133.8h-8.372a4.368 4.368 0 0 0-4.354 4.373v13.461h4.362v-6.558h8.356v6.558h4.362v-13.461a4.368 4.368 0 0 0-4.354-4.373zm-.008 4.373v2.541h-8.356l-.008-2.551z" transform="translate(-400.733 -11.031)"/>
        <path id="패스_11235" data-name="패스 11235" class="cls-1" d="M680.7 147.5q0 4.035-4.544 4.034H663.7V133.8h12.458q4.545 0 4.544 4.034zm-6.222-9.666h-6.014v2.749h6.008a1.317 1.317 0 0 0 1.463-1.373c0-1.033-.584-1.376-1.457-1.376zm-.006 6.518h-6.008v3.148l6.008-.023a1.4 1.4 0 0 0 1.463-1.574 1.379 1.379 0 0 0-1.463-1.551z" transform="translate(-451.331 -11.031)"/>
        <path id="패스_11236" data-name="패스 11236" class="cls-1" d="M746.06 133.8v.037l-4.473 9.286-4.487-9.311h-.132v-.012h-4.435v17.833h4.435v-.086h.005v-7l-.005-.086v-3.683l3.027 7.5h3.023L746.06 141v10.631h4.435V133.8z" transform="translate(-501.417 -11.031)"/>
        <path id="패스_11237" data-name="패스 11237" class="cls-2" d="m66.571 138.289-1.66-10.965-3.32 11.15c-.645 1.648-1.646 2.155-4.122 2.155h-1.747l-2.76-13.306-3.42 11.413c-.773 1.788-1.758 1.893-3.182 1.893h-2.947l8.042-21.99c3.61 0 5.21.93 5.589 3.453l2.048 9.711L63.4 118.64c3.839 0 5.289 1.547 5.584 3.422l2.828 18.568h-1.83c-1.199 0-2.918.301-3.411-2.341z"/>
        <path id="패스_11238" data-name="패스 11238" class="cls-1" d="M501.162 150.212a4.9 4.9 0 0 0 3.508 1.3h7.737c2.87 0 4.539-1.458 4.539-3.981v-.068H505.58c-.672 0-.855-.478-.855-.95v-2.173h9.329a2.854 2.854 0 0 0 2.946-2.896v-3.48c0-2.2-1.578-4.164-4.76-4.164h-7.57c-1.58 0-2.663.086-3.58.913a4.1 4.1 0 0 0-1.18 3.411v8.864a4.856 4.856 0 0 0 1.252 3.224zm11.024-10.938c0 .805-.465 1.3-1.461 1.3h-6v-1.593a1.038 1.038 0 0 1 1.185-1.13h4.815c.975 0 1.461.464 1.461 1.423z" transform="translate(-332.156 -11.031)"/>
        <path id="패스_11239" data-name="패스 11239" class="cls-1" d="M446.452 153.1h-4.6v-11.567a1.5 1.5 0 0 0-.535-1.329 2.6 2.6 0 0 0-1.476-.321h-5.2V153.1h-4.6v-17.111h11.809a4.824 4.824 0 0 1 3.337 1.091 4.214 4.214 0 0 1 1.262 3.273z" transform="translate(-281.319 -12.623)"/>
        <path id="패스_11240" data-name="패스 11240" class="cls-1" d="M375.939 148.74a4.215 4.215 0 0 1-1.262 3.273 4.825 4.825 0 0 1-3.337 1.091h-11.81v-17.115h4.6v13.221h5.2a2.6 2.6 0 0 0 1.476-.322 1.5 1.5 0 0 0 .535-1.329v-11.57h4.6z" transform="translate(-230.013 -12.623)"/>
        <path id="패스_11241" data-name="패스 11241" class="cls-1" d="M168.683 136.819a5.587 5.587 0 0 0-3.38-.83h-1.212c0 .036.005.071.005.108v3.656c0 .051 0 .1-.008.152h.016q1.2 0 1.2 1.262v6.546q0 1.627-1.3 1.626h-4.706q-1.3 0-1.305-1.626v-6.546q0-1.262 1.2-1.262h.017c0-.05-.008-.1-.008-.152V136.1c0-.036 0-.072.005-.108h-1.212a5.588 5.588 0 0 0-3.38.83 3.585 3.585 0 0 0-1.219 3.064v8.85a4.112 4.112 0 0 0 1.284 3.2 4.735 4.735 0 0 0 3.316 1.168h7.304a4.737 4.737 0 0 0 3.316-1.168 4.113 4.113 0 0 0 1.284-3.2v-8.85a3.585 3.585 0 0 0-1.217-3.067z" transform="translate(-80.019 -12.623)"/>
        <path id="패스_11242" data-name="패스 11242" class="cls-2" d="M181.261 133.465a1.05 1.05 0 0 0-1.042-.945h-.805a1.113 1.113 0 0 0-1.052 1.053v3.656a1.03 1.03 0 0 0 .016.152 1.051 1.051 0 0 0 1.037.9h.805a1.05 1.05 0 0 0 1.037-.9 1.032 1.032 0 0 0 .016-.152v-3.656a1.061 1.061 0 0 0-.012-.108z" transform="translate(-98.191 -10.099)"/>
        <path id="패스_11243" data-name="패스 11243" class="cls-1" d="M238.708 149.21q0 3.894-4.386 3.893H222.3v-17.114h12.023q4.386 0 4.386 3.894zm-6.005-9.328h-5.8v2.653h5.8a1.271 1.271 0 0 0 1.412-1.325c-.007-.997-.57-1.327-1.415-1.327zm-.006 6.29h-5.8v3.038l5.8-.022a1.354 1.354 0 0 0 1.412-1.519 1.33 1.33 0 0 0-1.409-1.497z" transform="translate(-130.161 -12.623)"/>
        <path id="패스_11244" data-name="패스 11244" class="cls-1" d="M289.425 135.989v3.911l5.9-.021V153.1h4.6v-13.211l5.9.015v-3.915z" transform="translate(-179.003 -12.623)"/>
    </g>
</svg>
