<svg xmlns="http://www.w3.org/2000/svg" width="400" height="42.788" viewBox="0 0 400 42.788">
    <defs>
        <style>
            .cls-1{fill:#fff}.cls-2{fill:#7fae4d}
        </style>
    </defs>
    <g id="login_logo" transform="translate(-43.413 -398.895)">
        <path id="패스_11223" data-name="패스 11223" class="cls-1" d="M618.908 414.055h-16.282a8.5 8.5 0 0 0-8.468 8.5v26.18h8.484v-12.751h16.25v12.755h8.484V422.56a8.5 8.5 0 0 0-8.468-8.505zm-.016 8.5v4.945H602.64l-.014-4.962z" transform="translate(-258.984 -7.129)"/>
        <path id="패스_11224" data-name="패스 11224" class="cls-1" d="M696.767 440.7q0 7.847-8.838 7.846H663.7v-34.491h24.231q8.838 0 8.838 7.847zm-12.1-18.8h-11.7v5.347h11.684a2.562 2.562 0 0 0 2.846-2.671c.003-2.008-1.135-2.676-2.832-2.676zm-.013 12.677h-11.686v6.123l11.684-.044a2.729 2.729 0 0 0 2.848-3.056 2.681 2.681 0 0 0-2.848-3.022z" transform="translate(-291.685 -7.129)"/>
        <path id="패스_11225" data-name="패스 11225" class="cls-1" d="M758.842 414.055v.072l-8.7 18.06-8.726-18.109h-.257v-.022h-8.625v34.684h8.625v-.168h.01v-13.617l-.01-.167v-7.162l5.888 14.592h5.879l5.916-14.154v20.676h8.625v-34.685z" transform="translate(-324.054 -7.129)"/>
        <path id="패스_11226" data-name="패스 11226" class="cls-2" d="m88.453 437.11-3.228-21.326-6.457 21.687c-1.254 3.2-3.2 4.192-8.016 4.192h-3.4l-5.367-25.879-6.651 22.2c-1.5 3.478-3.419 3.682-6.189 3.682h-5.732l15.641-42.768c7.021 0 10.134 1.808 10.87 6.715l3.983 18.887 8.387-25.6c7.467 0 10.286 3.008 10.861 6.655l5.5 36.113h-3.568c-2.332-.005-5.675.58-6.634-4.558z"/>
        <path id="패스_11227" data-name="패스 11227" class="cls-1" d="M502.345 445.975a9.534 9.534 0 0 0 6.823 2.526h15.049c5.582 0 8.827-2.836 8.827-7.743v-.132h-22.106c-1.307 0-1.663-.929-1.663-1.848v-4.227h18.145a5.551 5.551 0 0 0 5.731-5.63v-6.768c0-4.272-3.069-8.1-9.258-8.1h-14.725c-3.072 0-5.18.168-6.962 1.775-1.893 1.707-2.3 3.781-2.3 6.634V439.7a9.45 9.45 0 0 0 2.439 6.275zm21.441-21.275c0 1.566-.9 2.521-2.842 2.53h-11.669v-3.1a2.018 2.018 0 0 1 2.3-2.2h9.366c1.906.005 2.845.907 2.845 2.77z" transform="translate(-214.665 -7.129)"/>
        <path id="패스_11228" data-name="패스 11228" class="cls-1" d="M461.957 449.53h-8.945v-22.5a2.908 2.908 0 0 0-1.04-2.584 5.057 5.057 0 0 0-2.871-.626h-10.113v25.71h-8.945v-33.286h22.968a9.383 9.383 0 0 1 6.491 2.122 8.2 8.2 0 0 1 2.455 6.366z" transform="translate(-181.81 -8.158)"/>
        <path id="패스_11229" data-name="패스 11229" class="cls-1" d="M391.443 441.043a8.2 8.2 0 0 1-2.454 6.366 9.384 9.384 0 0 1-6.491 2.122H359.53v-33.287h8.945v25.714h10.111a5.059 5.059 0 0 0 2.871-.626 2.909 2.909 0 0 0 1.04-2.584v-22.5h8.945z" transform="translate(-148.652 -8.158)"/>
        <path id="패스_11230" data-name="패스 11230" class="cls-1" d="M183.137 417.858q-2.122-1.613-6.574-1.614H174.2c0 .069.011.139.011.209v7.11c0 .1-.007.2-.015.3h.032q2.33 0 2.33 2.455v12.732q0 3.164-2.538 3.163h-9.154q-2.538 0-2.538-3.163v-12.737q0-2.455 2.33-2.455h.032c-.007-.1-.015-.2-.015-.3v-7.11c0-.07.007-.14.011-.209h-2.358q-4.453 0-6.574 1.614-2.372 1.779-2.372 5.959v17.213a8 8 0 0 0 2.5 6.23 9.209 9.209 0 0 0 6.449 2.271h14.23a9.212 9.212 0 0 0 6.449-2.271 8 8 0 0 0 2.5-6.23v-17.209q-.001-4.179-2.373-5.958z" transform="translate(-51.715 -8.158)"/>
        <path id="패스_11231" data-name="패스 11231" class="cls-2" d="M184 414.613a2.042 2.042 0 0 0-2.026-1.838h-1.566a2.042 2.042 0 0 0-2.026 1.838c-.007.07-.021.138-.021.209v7.11a2.012 2.012 0 0 0 .03.3 2.043 2.043 0 0 0 2.017 1.752h1.566a2.043 2.043 0 0 0 2.017-1.752 2.012 2.012 0 0 0 .03-.3v-7.11a2.1 2.1 0 0 0-.021-.209z" transform="translate(-63.459 -6.527)"/>
        <path id="패스_11232" data-name="패스 11232" class="cls-1" d="M254.213 441.958q0 7.573-8.53 7.572H222.3v-33.286h23.384q8.53 0 8.53 7.572zm-11.68-18.142h-11.288v5.16h11.276a2.472 2.472 0 0 0 2.746-2.577c0-1.939-1.096-2.583-2.734-2.583zm-.012 12.234h-11.276v5.908l11.276-.042a2.633 2.633 0 0 0 2.746-2.954 2.588 2.588 0 0 0-2.746-2.912z" transform="translate(-84.12 -8.158)"/>
        <path id="패스_11233" data-name="패스 11233" class="cls-1" d="M289.425 416.244v7.614l11.484-.042v25.714h8.945v-25.7c.152.006 11.484.029 11.484.029v-7.614z" transform="translate(-115.685 -8.158)"/>
    </g>
</svg>
