<svg xmlns="http://www.w3.org/2000/svg" width="18" height="18" viewBox="0 0 18 18">
    <path d="M12.763 3.555 9.449.237A.812.812 0 0 0 8.873 0h-.206v4.333H13v-.206a.81.81 0 0 0-.237-.572zM7.583 4.6V0H.813A.811.811 0 0 0 0 .813v15.708a.811.811 0 0 0 .813.813h11.375a.811.811 0 0 0 .812-.813V5.417H8.4a.815.815 0 0 1-.817-.817zm-3.25 10.133a.466.466 0 0 1-.433.433H2.6a.466.466 0 0 1-.433-.433V12.35a.466.466 0 0 1 .433-.433h1.3a.466.466 0 0 1 .433.433zm3.25 0a.466.466 0 0 1-.433.433h-1.3a.466.466 0 0 1-.433-.433V8.017a.466.466 0 0 1 .433-.433h1.3a.466.466 0 0 1 .433.433v6.717zm1.083-4.55A.466.466 0 0 1 9.1 9.75h1.3a.466.466 0 0 1 .433.433v4.55a.466.466 0 0 1-.433.433H9.1a.466.466 0 0 1-.433-.433v-4.55z" transform="translate(2)" style="fill:#fff"/>
</svg>
