<svg xmlns="http://www.w3.org/2000/svg" width="18" height="18" viewBox="0 0 18 18">
    <path d="M10.5 8.75H7a.875.875 0 0 0-.875.875v3.5A.875.875 0 0 0 7 14h3.5a.875.875 0 0 0 .875-.875v-3.5a.875.875 0 0 0-.875-.875zM5.25.875A.875.875 0 0 0 4.375 0h-3.5A.875.875 0 0 0 0 .875v3.5a.875.875 0 0 0 .875.875h2.617l2 3.5A1.744 1.744 0 0 1 7 7.875h.008L5.25 4.8V3.5h6.125V1.75H5.25zM16.625 0h-3.5a.875.875 0 0 0-.875.875v3.5a.875.875 0 0 0 .875.875h3.5a.875.875 0 0 0 .875-.875v-3.5A.875.875 0 0 0 16.625 0z" transform="translate(0 2)" style="fill:#fff;opacity:.3"/>
</svg>
