<svg xmlns="http://www.w3.org/2000/svg" width="18" height="18" viewBox="0 0 18 18">
    <path d="M7.173 7.359a.45.45 0 0 0 .636 0l.318-.318a.45.45 0 0 0 0-.636l-1-1 1-1a.45.45 0 0 0 0-.636l-.318-.318a.45.45 0 0 0-.636 0L5.532 5.082a.45.45 0 0 0 0 .636zm2.7-.318.318.318a.45.45 0 0 0 .636 0l1.641-1.641a.45.45 0 0 0 0-.636l-1.64-1.641a.45.45 0 0 0-.636 0l-.318.318a.45.45 0 0 0 0 .636l1 1-1 1a.45.45 0 0 0 0 .636zM17.55 11.7h-6.819a.887.887 0 0 1-.921.9H8.1a.955.955 0 0 1-.922-.9H.45a.451.451 0 0 0-.45.45v.45a1.805 1.805 0 0 0 1.8 1.8h14.4a1.805 1.805 0 0 0 1.8-1.8v-.45a.451.451 0 0 0-.45-.45zM16.2 1.35A1.354 1.354 0 0 0 14.85 0H3.15A1.354 1.354 0 0 0 1.8 1.35v9.45h14.4zM14.4 9H3.6V1.8h10.8z" transform="translate(0 1.6)" style="fill:#fff"/>
</svg>
