<svg xmlns="http://www.w3.org/2000/svg" width="18" height="18" viewBox="0 0 18 18">
    <path data-name="패스 992" d="M55.377 118.965a2.84 2.84 0 0 1-2.56-4.432 8.929 8.929 0 0 0-3.584-2.076 2.841 2.841 0 0 1-5.124 0 8.942 8.942 0 0 0-3.584 2.076 2.84 2.84 0 0 1-2.56 4.432 8.7 8.7 0 0 0 0 4.142 2.841 2.841 0 0 1 2.56 4.434 8.938 8.938 0 0 0 3.584 2.075 2.841 2.841 0 0 1 5.124 0 8.925 8.925 0 0 0 3.584-2.075 2.841 2.841 0 0 1 2.56-4.434 8.7 8.7 0 0 0 0-4.142zm-8.706 4.93a2.859 2.859 0 1 1 2.859-2.859 2.859 2.859 0 0 1-2.859 2.864z" transform="translate(-37.715 -112.457)" style="fill:#fff;opacity:.3"/>
</svg>
