<svg xmlns="http://www.w3.org/2000/svg" width="18" height="18" viewBox="0 0 18 18">
    <path d="M15.735 2.854a1.477 1.477 0 1 0-.944-1.375 1.5 1.5 0 0 0 .022.218l-2.938 2.35a1.433 1.433 0 0 0-1.071 0L7.867 1.7a1.462 1.462 0 0 0 .022-.219 1.479 1.479 0 1 0-2.958 0 1.475 1.475 0 0 0 .055.378L1.858 4.985a1.475 1.475 0 0 0-.378-.055A1.5 1.5 0 1 0 2.9 6.031L6.031 2.9a1.39 1.39 0 0 0 .914-.049L9.883 5.2a1.462 1.462 0 0 0-.022.219 1.479 1.479 0 0 0 2.958 0 1.5 1.5 0 0 0-.022-.218l2.937-2.351zm-3.409 7.007h-1.972a.493.493 0 0 0-.493.493v4.931a.493.493 0 0 0 .493.493h1.972a.493.493 0 0 0 .493-.493v-4.931a.493.493 0 0 0-.493-.493zm4.931-3.944h-1.972a.493.493 0 0 0-.493.493v8.875a.493.493 0 0 0 .493.493h1.972a.493.493 0 0 0 .493-.493V6.41a.493.493 0 0 0-.493-.493zm-9.861 0H5.424a.493.493 0 0 0-.493.493v8.875a.493.493 0 0 0 .493.493H7.4a.493.493 0 0 0 .493-.493V6.41a.493.493 0 0 0-.493-.493zm-4.931 4.93H.493A.493.493 0 0 0 0 11.34v3.944a.493.493 0 0 0 .493.493h1.972a.493.493 0 0 0 .493-.493V11.34a.493.493 0 0 0-.493-.493z" transform="translate(0 1)" style="fill:#fff;opacity:.3"/>
</svg>
