<svg xmlns="http://www.w3.org/2000/svg" width="18" height="18" viewBox="0 0 18 18">
    <path d="M16.792 74.833H2.167V64.542A.542.542 0 0 0 1.625 64H.542a.542.542 0 0 0-.542.542v11.375A1.083 1.083 0 0 0 1.083 77h15.709a.542.542 0 0 0 .542-.542v-1.083a.542.542 0 0 0-.542-.542zm-1.083-9.75h-4a.812.812 0 0 0-.575 1.387l1.1 1.1-2.484 2.481-2.484-2.483a1.083 1.083 0 0 0-1.532 0l-2.325 2.325a.542.542 0 0 0 0 .766l.766.766a.542.542 0 0 0 .766 0l1.559-1.56 2.484 2.484a1.083 1.083 0 0 0 1.532 0l3.25-3.25 1.1 1.1a.812.812 0 0 0 1.387-.575v-4a.541.541 0 0 0-.545-.541z" transform="translate(0 -61)" style="fill:#fff"/>
</svg>
