<svg xmlns="http://www.w3.org/2000/svg" width="18" height="18" viewBox="0 0 18 18">
    <path d="M18 1.688v10.125a1.688 1.688 0 0 1-1.687 1.687h-1.688V6.188a2.816 2.816 0 0 0-2.812-2.812H4.5V1.688A1.688 1.688 0 0 1 6.188 0h10.125A1.688 1.688 0 0 1 18 1.688zm-4.5 4.5v10.125A1.688 1.688 0 0 1 11.813 18H1.688A1.688 1.688 0 0 1 0 16.313V6.188A1.688 1.688 0 0 1 1.688 4.5h10.125A1.688 1.688 0 0 1 13.5 6.188zm-2.391.984a.423.423 0 0 0-.422-.422H2.672a.423.423 0 0 0-.422.422V9h8.859z" style="fill:#fff"/>
</svg>
