<svg xmlns="http://www.w3.org/2000/svg" width="130" height="32.25" viewBox="0 0 130 32.25">
    <g data-name="그룹 3969">
        <path data-name="패스 11253" d="M55.694 72.23v-2.543h-9.053c-1.668 0-2.26-.54-2.26-1.67v-5.629h-2.437a.174.174 0 0 0-.176.171v5.9c0 1.817.954 3.773 4.708 3.773z" transform="translate(-41.768 -51.61)" style="fill:#1a1311"/>
        <path data-name="패스 11254" d="M66.32 67.407H63.1v-6.113h-.009l.01-.012h-2.433a.174.174 0 0 0-.176.171v12.119H49a2.36 2.36 0 0 0-2.384 2.32v4.643A2.36 2.36 0 0 0 49 82.854h11.721a2.36 2.36 0 0 0 2.384-2.32V69.81v1.472a1.5 1.5 0 0 1 1.513-1.472H66.5v-2.231a.174.174 0 0 0-.18-.172zm-5.828 12.266a.619.619 0 0 1-.625.608H49.8a.619.619 0 0 1-.625-.608v-2.94a.619.619 0 0 1 .625-.608h10.067a.619.619 0 0 1 .625.608v2.94z" transform="translate(-44.067 -51.071)" style="fill:#1a1311"/>
    </g>
    <path data-name="패스 11255" d="M94.927 60.446a5.826 5.826 0 1 0 6.172 5.816 6 6 0 0 0-6.172-5.816z" transform="translate(-64.043 -50.662)" style="fill:#dc000c"/>
    <path data-name="패스 11256" d="M117.783 63.231h-3.745v-1.937h-.01l.011-.012H111.6a.174.174 0 0 0-.176.171v10.515c0 .538-.226.591-.428.533-.1-.054-.194-.107-.294-.156l-.012-.009v.006a6.444 6.444 0 0 0-2.83-.651 5.825 5.825 0 1 0 6.172 5.815v-7.7 1.472a1.5 1.5 0 0 1 1.513-1.472h2.408v-2.227a.174.174 0 0 0-.176-.172h-3.745v-1.774V67.1a1.5 1.5 0 0 1 1.513-1.472h2.408V63.4a.174.174 0 0 0-.17-.169zm-9.916 17.8a3.535 3.535 0 1 1 3.745-3.528 3.641 3.641 0 0 1-3.745 3.531z" transform="translate(-70.177 -51.071)" style="fill:#1a1311"/>
    <g data-name="그룹 3970">
        <path data-name="패스 11257" d="M42.5 46v-4.53h3.384v.542h-2.76v1.372h2.582v.542h-2.579v1.534H46V46z" transform="translate(-42.116 -41.395)" style="fill:#1a1311"/>
        <path data-name="패스 11258" d="M50.639 47.112v-3.29h.51v.468a1.236 1.236 0 0 1 1.082-.54 1.524 1.524 0 0 1 .571.105.907.907 0 0 1 .384.279 1.052 1.052 0 0 1 .18.414 3.068 3.068 0 0 1 .031.54v2.022h-.6v-2a1.347 1.347 0 0 0-.069-.509.533.533 0 0 0-.234-.271.752.752 0 0 0-.395-.1.935.935 0 0 0-.628.224 1.1 1.1 0 0 0-.263.862v1.8z" transform="translate(-45.973 -42.509)" style="fill:#1a1311"/>
        <path data-name="패스 11259" d="M56.888 42.106v-.638h.573v.638zm-.731 5.163.109-.478a1.1 1.1 0 0 0 .27.042.317.317 0 0 0 .264-.11 1.119 1.119 0 0 0 .087-.564v-3.451h.573v3.466a1.558 1.558 0 0 1-.164.843.769.769 0 0 1-.688.312 1.756 1.756 0 0 1-.451-.06z" transform="translate(-48.589 -41.395)" style="fill:#1a1311"/>
        <path data-name="패스 11260" d="M60.8 44.519a.949.949 0 0 1 1.416 0 1.34 1.34 0 0 1 .285.925 1.422 1.422 0 0 1-.285.97.907.907 0 0 1-.707.32.9.9 0 0 1-.709-.32 1.717 1.717 0 0 1 0-1.9zm-.444 2.226a1.56 1.56 0 0 0 1.153.443 1.669 1.669 0 0 0 .818-.2 1.4 1.4 0 0 0 .574-.564 2.173 2.173 0 0 0 .2-1 1.645 1.645 0 0 0-.446-1.228 1.531 1.531 0 0 0-1.142-.444 1.629 1.629 0 0 0-1.069.364 1.671 1.671 0 0 0-.523 1.353 1.745 1.745 0 0 0 .434 1.276z" transform="translate(-50.371 -42.509)" style="fill:#1a1311"/>
        <path data-name="패스 11261" d="m66.185 48.441-.077-.521a1.375 1.375 0 0 0 .341.049.694.694 0 0 0 .313-.062.5.5 0 0 0 .2-.173 2.754 2.754 0 0 0 .179-.412c.012-.033.031-.077.053-.14l-1.3-3.29h.606l.718 1.9c.092.244.178.494.25.761.065-.247.144-.493.234-.735l.721-1.926H69l-1.27 3.354a6.568 6.568 0 0 1-.327.736 1.116 1.116 0 0 1-.358.4.87.87 0 0 1-.484.132 1.236 1.236 0 0 1-.376-.073z" transform="translate(-53.204 -42.578)" style="fill:#1a1311"/>
        <path data-name="패스 11262" d="m76.968 45.6.077.491a2.108 2.108 0 0 1-.438.054 1.048 1.048 0 0 1-.485-.1.544.544 0 0 1-.241-.255 1.961 1.961 0 0 1-.072-.661v-1.9h-.418V42.8h.418v-.813l.572-.335V42.8h.586v.429h-.586v1.921a.913.913 0 0 0 .033.307.224.224 0 0 0 .1.105.39.39 0 0 0 .2.041c.067-.003.148-.003.254-.003z" transform="translate(-57.708 -41.487)" style="fill:#1a1311"/>
        <path data-name="패스 11263" d="M79.64 46v-4.53h.57v1.618a1.315 1.315 0 0 1 1.018-.45 1.4 1.4 0 0 1 .654.142.866.866 0 0 1 .4.4 1.786 1.786 0 0 1 .12.737V46h-.574v-2.087a.844.844 0 0 0-.185-.609.72.72 0 0 0-.532-.189.951.951 0 0 0-.479.129.717.717 0 0 0-.321.346 1.527 1.527 0 0 0-.1.608V46z" transform="translate(-59.722 -41.395)" style="fill:#1a1311"/>
        <path data-name="패스 11264" d="M86.485 44.465a.933.933 0 0 1 .675-.262.91.91 0 0 1 .722.326 1.14 1.14 0 0 1 .22.631h-1.921a1.02 1.02 0 0 1 .304-.695zm1.254 2.106a.909.909 0 0 1-.542.164.949.949 0 0 1-.709-.292 1.2 1.2 0 0 1-.316-.827H88.7v-.15a1.758 1.758 0 0 0-.431-1.267 1.463 1.463 0 0 0-1.11-.45 1.517 1.517 0 0 0-1.146.456 1.787 1.787 0 0 0-.441 1.29 1.7 1.7 0 0 0 .439 1.249 1.579 1.579 0 0 0 1.179.443 1.612 1.612 0 0 0 .972-.277 1.417 1.417 0 0 0 .523-.778l-.587-.076a1.09 1.09 0 0 1-.359.516z" transform="translate(-62.533 -42.509)" style="fill:#1a1311"/>
        <path data-name="패스 11265" d="M97.264 45.109a1.936 1.936 0 0 1 .6.259 1.561 1.561 0 0 1-.611.12 1.476 1.476 0 0 1-1.132-.472 2.3 2.3 0 0 1 0-2.718 1.609 1.609 0 0 1 1.946-.232 1.445 1.445 0 0 1 .554.637 2.262 2.262 0 0 1 .188.957 1.845 1.845 0 0 1-.532 1.445 2.275 2.275 0 0 0-.871-.434zm2-.446a2.847 2.847 0 0 0 .168-1 2.622 2.622 0 0 0-.267-1.2 1.916 1.916 0 0 0-.775-.834 2.216 2.216 0 0 0-1.144-.3 2.272 2.272 0 0 0-1.134.287 1.9 1.9 0 0 0-.782.834 2.68 2.68 0 0 0-.275 1.221 2.644 2.644 0 0 0 .272 1.208 1.992 1.992 0 0 0 .78.831 2.193 2.193 0 0 0 1.129.3 2.3 2.3 0 0 0 1.127-.279 3.608 3.608 0 0 0 .98.553l.177-.418a3.81 3.81 0 0 1-.771-.42 2.157 2.157 0 0 0 .515-.784z" transform="translate(-67.029 -41.325)" style="fill:#1a1311"/>
        <path data-name="패스 11266" d="M106.518 47.181V46.7a1.256 1.256 0 0 1-1.078.556 1.439 1.439 0 0 1-.562-.112.934.934 0 0 1-.387-.281 1.026 1.026 0 0 1-.177-.415 2.557 2.557 0 0 1-.037-.52v-2.037h.575v1.828a3.217 3.217 0 0 0 .033.586.556.556 0 0 0 .233.345.712.712 0 0 0 .434.127.964.964 0 0 0 .486-.13.712.712 0 0 0 .319-.348 1.639 1.639 0 0 0 .1-.645v-1.763h.572v3.29z" transform="translate(-71.401 -42.578)" style="fill:#1a1311"/>
        <path data-name="패스 11267" d="M112.867 45.664a1.284 1.284 0 0 1-.095.564.876.876 0 0 1-.387.386 1.174 1.174 0 0 1-.593.144.776.776 0 0 1-.514-.149.5.5 0 0 1-.1-.644.538.538 0 0 1 .23-.186 2.464 2.464 0 0 1 .51-.112 4.368 4.368 0 0 0 .951-.211zm.154 1.448h.6a1.155 1.155 0 0 1-.141-.391 7.847 7.847 0 0 1-.036-.985v-.75a2.838 2.838 0 0 0-.029-.513.871.871 0 0 0-.178-.379.919.919 0 0 0-.4-.245 2.11 2.11 0 0 0-.708-.1 2.4 2.4 0 0 0-.773.115 1.088 1.088 0 0 0-.508.33 1.306 1.306 0 0 0-.253.562l.573.073a.839.839 0 0 1 .286-.488 1.036 1.036 0 0 1 .6-.138.975.975 0 0 1 .656.191.614.614 0 0 1 .167.485v.145a5.184 5.184 0 0 1-1.032.194 4.3 4.3 0 0 0-.518.082 1.548 1.548 0 0 0-.416.186.845.845 0 0 0-.3.317.868.868 0 0 0-.116.442.853.853 0 0 0 .3.677 1.267 1.267 0 0 0 .863.266 1.939 1.939 0 0 0 .641-.109 2.212 2.212 0 0 0 .611-.371 1.143 1.143 0 0 0 .111.404z" transform="translate(-74.346 -42.509)" style="fill:#1a1311"/>
        <path data-name="패스 11268" d="M117.564 46v-4.53h.574V46z" transform="translate(-77.7 -41.395)" style="fill:#1a1311"/>
        <path data-name="패스 11269" d="M120.382 42.106v-.638h.572v.638zm0 3.892v-3.29h.572V46z" transform="translate(-79.036 -41.395)" style="fill:#1a1311"/>
        <path data-name="패스 11270" d="m124.093 45.6.077.491a2.089 2.089 0 0 1-.435.054 1.025 1.025 0 0 1-.484-.1.552.552 0 0 1-.243-.255 1.944 1.944 0 0 1-.074-.661v-1.9h-.419V42.8h.419v-.813l.574-.335V42.8h.585v.429h-.585v1.921a.918.918 0 0 0 .033.307.231.231 0 0 0 .1.105.376.376 0 0 0 .2.041c.059-.003.147-.003.252-.003z" transform="translate(-80.047 -41.487)" style="fill:#1a1311"/>
        <path data-name="패스 11271" d="m126.271 48.441-.076-.521a1.375 1.375 0 0 0 .341.049.7.7 0 0 0 .314-.062.56.56 0 0 0 .2-.173 3.08 3.08 0 0 0 .178-.412c.013-.033.031-.077.054-.14l-1.3-3.29h.607l.715 1.9a7.421 7.421 0 0 1 .254.761 7.059 7.059 0 0 1 .235-.735l.721-1.926h.575l-1.27 3.354a6.257 6.257 0 0 1-.328.736 1.1 1.1 0 0 1-.358.4.857.857 0 0 1-.48.132 1.24 1.24 0 0 1-.382-.073z" transform="translate(-81.69 -42.578)" style="fill:#1a1311"/>
    </g>
    <g data-name="그룹 3971">
        <path data-name="패스 11272" d="M169.4 60.659h-10.752a5.535 5.535 0 0 0-5.591 5.464v16.818h5.6v-8.194h10.73v8.194h5.6V66.123a5.535 5.535 0 0 0-5.587-5.464zm-.01 5.464V69.3h-10.732l-.009-3.187z" transform="translate(-94.526 -50.766)" style="fill:#000002"/>
        <path data-name="패스 11273" d="M221.141 77.777q0 5.041-5.836 5.041h-16V60.659h16q5.836 0 5.836 5.041zM213.15 65.7h-7.723v3.435h7.715a1.672 1.672 0 0 0 1.879-1.716c0-1.291-.75-1.719-1.871-1.719zm-.008 8.144h-7.715v3.933l7.715-.028a1.775 1.775 0 0 0 1.879-1.967 1.745 1.745 0 0 0-1.879-1.938z" transform="translate(-116.451 -50.766)" style="fill:#000002"/>
        <path data-name="패스 11274" d="M262.458 60.659v.046l-5.745 11.6-5.761-11.634h-.17v-.014h-5.7v22.284h5.7v-.108h.006v-8.747l-.006-.108v-4.6l3.888 9.374h3.882l3.906-9.093v13.282h5.7V60.659z" transform="translate(-138.153 -50.766)" style="fill:#000002"/>
    </g>
</svg>
