<svg xmlns="http://www.w3.org/2000/svg" width="90.089" height="62.174" viewBox="0 0 90.089 62.174">
    <defs>
        <style>
            .cls-1{fill:#1a1311}
        </style>
    </defs>
    <g id="login_logo" transform="translate(-25.067 -28.552)">
        <g id="그룹_5" data-name="그룹 5" transform="translate(25.067 28.552)">
            <g id="그룹_1" data-name="그룹 1" transform="translate(0 19.679)">
                <path id="패스_1" data-name="패스 1" class="cls-1" d="M51.3 71.153H33.235a8.2 8.2 0 0 1-6.183-2.216 8.092 8.092 0 0 1-1.984-5.38V53.043c0-.744.808-.935.9-.957l4.005.01v10.467a4.112 4.112 0 0 0 .935 2.784 2.986 2.986 0 0 0 2.271.892H51.3z" transform="translate(-25.067 -50.997)"/>
                <path id="패스_2" data-name="패스 2" class="cls-1" d="M66.9 62.939h-5.4l.04-4.239v-7.848h-4.08a.891.891 0 0 0-.89.888l.005 22.5a.518.518 0 0 1-.527.522H34.495c-.157.006-3.934.212-3.934 3.881V88.1c0 .185.05 4.518 5.045 4.518h21.425a4.379 4.379 0 0 0 3.38-1.222 4.658 4.658 0 0 0 1.046-3.195V70.456c.343-2.365 2-2.711 3.619-2.711H67.8v-3.913a.894.894 0 0 0-.9-.893zM56.552 84.7c-.039.866-.617 3.035-2.5 3.035H37.294a1.815 1.815 0 0 1-1.463-.58 2.962 2.962 0 0 1-.355-1.813v-3.47a2 2 0 0 1 2.009-2.212h18.543a.525.525 0 0 1 .524.523z" transform="translate(-25.712 -50.852)"/>
            </g>
            <g id="그룹_2" data-name="그룹 2" transform="translate(46.697 19.06)">
                <path id="패스_3" data-name="패스 3" d="M89.575 50.151c-6.4 0-11.592 4.665-11.592 11.056 0 6.411 5.2 11.064 11.592 11.064s11.6-4.653 11.6-11.064c.001-6.391-5.2-11.056-11.6-11.056z" transform="translate(-77.983 -50.151)" style="fill:#dc000c"/>
                <path id="패스_4" data-name="패스 4" class="cls-1" d="M118.983 59.3h4.058v-3.907a.892.892 0 0 0-.89-.891h-6.742v-3.547h-3.926a.845.845 0 0 0-.843.849v.207a.443.443 0 0 1-.017.125v19.915a.511.511 0 0 1-.248.432.521.521 0 0 1-.248.064.509.509 0 0 1-.251-.064 12.876 12.876 0 0 0-6.046-1.408c-6.438 0-11.674 4.705-11.674 11.151s5.237 11.133 11.674 11.133 11.668-4.7 11.668-11.133c0-1.032-.022-1.514-.064-2.455l-.026-.645.037-6.529-.009-2.529c.474-1.991 2.023-2.3 3.546-2.3h4.058v-3.91a.9.9 0 0 0-.89-.893h-6.725l-.005-1.29c.451-2.059 2.019-2.375 3.563-2.375zm-15.152 29.338c-3.841 0-6.964-2.581-6.964-6.412s3.123-6.426 6.964-6.426 6.962 2.586 6.962 6.422-3.126 6.416-6.962 6.416z" transform="translate(-79.649 -50.245)"/>
            </g>
            <g id="그룹_4" data-name="그룹 4" transform="translate(.3)">
                <g id="그룹_3" data-name="그룹 3">
                    <path id="패스_5" data-name="패스 5" class="cls-1" d="M25.406 37.6v-8.882h6.4v1.063h-5.222v2.692h4.887v1.058h-4.887v3.011h5.442V37.6z" transform="translate(-25.406 -28.572)"/>
                    <path id="패스_6" data-name="패스 6" class="cls-1" d="M34.579 37.906v-6.45h.964v.917a2.308 2.308 0 0 1 2.052-1.061 2.691 2.691 0 0 1 1.071.207 1.674 1.674 0 0 1 .735.552 2.141 2.141 0 0 1 .342.807 6.522 6.522 0 0 1 .057 1.062v3.966h-1.129v-3.93a2.935 2.935 0 0 0-.13-1 1.04 1.04 0 0 0-.439-.531 1.426 1.426 0 0 0-.755-.194 1.753 1.753 0 0 0-1.19.441 2.23 2.23 0 0 0-.5 1.686v3.526z" transform="translate(-26.484 -28.876)"/>
                    <path id="패스_7" data-name="패스 7" class="cls-1" d="M42.182 29.97v-1.252h1.085v1.252zM40.8 40.087l.2-.933a2.208 2.208 0 0 0 .516.083.57.57 0 0 0 .5-.222 2.178 2.178 0 0 0 .163-1.1v-6.764h1.085v6.792a3.162 3.162 0 0 1-.304 1.657 1.446 1.446 0 0 1-1.308.607 3.257 3.257 0 0 1-.852-.12z" transform="translate(-27.216 -28.572)"/>
                    <path id="패스_8" data-name="패스 8" class="cls-1" d="M46.7 32.818a1.764 1.764 0 0 1 2.686 0 2.716 2.716 0 0 1 .538 1.821 2.844 2.844 0 0 1-.536 1.9 1.764 1.764 0 0 1-2.689 0 2.785 2.785 0 0 1-.533-1.861 2.782 2.782 0 0 1 .534-1.86zm-.834 4.365a2.88 2.88 0 0 0 2.184.869 3.155 3.155 0 0 0 1.55-.394 2.671 2.671 0 0 0 1.082-1.11 4.315 4.315 0 0 0 .369-1.956 3.327 3.327 0 0 0-.837-2.409 2.871 2.871 0 0 0-2.165-.871 2.965 2.965 0 0 0-2.021.716 3.33 3.33 0 0 0-.992 2.654 3.492 3.492 0 0 0 .835 2.501z" transform="translate(-27.714 -28.876)"/>
                    <path id="패스_9" data-name="패스 9" class="cls-1" d="m52.336 40.39-.144-1.02a2.456 2.456 0 0 0 .642.1 1.28 1.28 0 0 0 .595-.116.954.954 0 0 0 .364-.342 4.788 4.788 0 0 0 .344-.811c.017-.064.056-.146.1-.27l-2.458-6.45h1.155l1.36 3.719c.176.476.334.97.471 1.49.121-.48.274-.964.442-1.438l1.364-3.775h1.091l-2.4 6.573a12.568 12.568 0 0 1-.623 1.445 2.131 2.131 0 0 1-.676.782 1.613 1.613 0 0 1-.913.252 2.2 2.2 0 0 1-.714-.139z" transform="translate(-28.506 -28.896)"/>
                    <path id="패스_10" data-name="패스 10" class="cls-1" d="m65.477 36.667.144.964a3.849 3.849 0 0 1-.822.105 1.919 1.919 0 0 1-.922-.191 1.055 1.055 0 0 1-.457-.5 4.011 4.011 0 0 1-.132-1.294v-3.726h-.794v-.84h.794V29.59l1.083-.65v2.245h1.107v.84H64.37v3.758a1.957 1.957 0 0 0 .056.6.438.438 0 0 0 .191.21.753.753 0 0 0 .378.081c.122 0 .282-.001.482-.007z" transform="translate(-29.765 -28.598)"/>
                    <path id="패스_11" data-name="패스 11" class="cls-1" d="M67.284 37.6v-8.882h1.087v3.172a2.414 2.414 0 0 1 1.917-.882 2.568 2.568 0 0 1 1.241.282 1.629 1.629 0 0 1 .755.779 3.619 3.619 0 0 1 .226 1.447V37.6h-1.084v-4.088a1.7 1.7 0 0 0-.355-1.195 1.317 1.317 0 0 0-1-.371 1.732 1.732 0 0 0-.907.251 1.39 1.39 0 0 0-.609.682 3.094 3.094 0 0 0-.181 1.191v3.53z" transform="translate(-30.328 -28.572)"/>
                    <path id="패스_12" data-name="패스 12" class="cls-1" d="M75.7 32.712a1.756 1.756 0 0 1 1.28-.514 1.7 1.7 0 0 1 1.363.64 2.261 2.261 0 0 1 .417 1.243h-3.63a1.992 1.992 0 0 1 .57-1.369zm2.378 4.136a1.711 1.711 0 0 1-1.032.312 1.778 1.778 0 0 1-1.341-.565 2.477 2.477 0 0 1-.609-1.628h4.792c0-.126.005-.225.005-.289a3.532 3.532 0 0 0-.817-2.484 2.727 2.727 0 0 0-2.106-.882 2.8 2.8 0 0 0-2.167.9 3.573 3.573 0 0 0-.835 2.526 3.393 3.393 0 0 0 .829 2.441 2.916 2.916 0 0 0 2.233.875 2.979 2.979 0 0 0 1.841-.541 2.79 2.79 0 0 0 .986-1.534l-1.107-.142a2.193 2.193 0 0 1-.669 1.011z" transform="translate(-31.114 -28.876)"/>
                    <path id="패스_13" data-name="패스 13" class="cls-1" d="M88.844 35.971a3.631 3.631 0 0 1 1.136.513 2.915 2.915 0 0 1-1.161.231 2.76 2.76 0 0 1-2.142-.923 3.81 3.81 0 0 1-.84-2.649 3.773 3.773 0 0 1 .852-2.682 2.958 2.958 0 0 1 3.681-.451 2.771 2.771 0 0 1 1.048 1.248 4.553 4.553 0 0 1 .355 1.877 3.7 3.7 0 0 1-1.006 2.832 4.351 4.351 0 0 0-1.643-.848zm3.785-.868a5.694 5.694 0 0 0 .319-1.968 5.248 5.248 0 0 0-.5-2.362 3.772 3.772 0 0 0-1.468-1.637 4.112 4.112 0 0 0-2.159-.583 4.2 4.2 0 0 0-2.151.564 3.7 3.7 0 0 0-1.476 1.64 5.376 5.376 0 0 0-.525 2.389 5.3 5.3 0 0 0 .522 2.371 3.814 3.814 0 0 0 1.475 1.631 4.087 4.087 0 0 0 2.136.581 4.2 4.2 0 0 0 2.125-.548 6.832 6.832 0 0 0 1.855 1.086l.338-.819a6.949 6.949 0 0 1-1.466-.829 4.184 4.184 0 0 0 .975-1.519z" transform="translate(-32.371 -28.552)"/>
                    <path id="패스_14" data-name="패스 14" class="cls-1" d="M99.308 37.925v-.949a2.358 2.358 0 0 1-2.04 1.1 2.6 2.6 0 0 1-1.065-.218 1.742 1.742 0 0 1-.727-.549 2.069 2.069 0 0 1-.338-.812 5.187 5.187 0 0 1-.068-1.018v-4h1.088v3.577a6.3 6.3 0 0 0 .062 1.16 1.16 1.16 0 0 0 .437.675 1.362 1.362 0 0 0 .821.249 1.736 1.736 0 0 0 .919-.258 1.386 1.386 0 0 0 .612-.682 3.439 3.439 0 0 0 .177-1.264v-3.461h1.085v6.45z" transform="translate(-33.594 -28.896)"/>
                    <path id="패스_15" data-name="패스 15" class="cls-1" d="M106.569 35.066a2.687 2.687 0 0 1-.175 1.1 1.746 1.746 0 0 1-.727.762 2.251 2.251 0 0 1-1.13.28 1.389 1.389 0 0 1-.972-.3.976.976 0 0 1-.181-1.257.936.936 0 0 1 .434-.36 4 4 0 0 1 .958-.222 8.188 8.188 0 0 0 1.8-.414zm.294 2.84h1.132a2.5 2.5 0 0 1-.27-.767 17.14 17.14 0 0 1-.063-1.934V33.74a5.925 5.925 0 0 0-.056-1.013 1.8 1.8 0 0 0-.342-.739 1.819 1.819 0 0 0-.755-.484 3.86 3.86 0 0 0-1.344-.191 4.3 4.3 0 0 0-1.454.225 2.1 2.1 0 0 0-.964.646 2.667 2.667 0 0 0-.485 1.1l1.093.145a1.628 1.628 0 0 1 .538-.958 1.88 1.88 0 0 1 1.13-.274 1.8 1.8 0 0 1 1.246.381 1.21 1.21 0 0 1 .307.947c0 .043 0 .138-.009.287a10.02 10.02 0 0 1-1.953.377 6.866 6.866 0 0 0-.972.166 2.643 2.643 0 0 0-.784.357 1.76 1.76 0 0 0-.569.628 1.737 1.737 0 0 0-.22.868 1.7 1.7 0 0 0 .574 1.322 2.345 2.345 0 0 0 1.635.522 3.372 3.372 0 0 0 1.206-.214 4.057 4.057 0 0 0 1.164-.722 2.424 2.424 0 0 0 .215.79z" transform="translate(-34.417 -28.876)"/>
                    <path id="패스_16" data-name="패스 16" class="cls-1" d="M110.052 37.6v-8.882h1.083V37.6z" transform="translate(-35.355 -28.572)"/>
                    <path id="패스_17" data-name="패스 17" class="cls-1" d="M113.23 29.97v-1.252h1.082v1.252zm0 7.631v-6.45h1.082V37.6z" transform="translate(-35.729 -28.572)"/>
                    <path id="패스_18" data-name="패스 18" class="cls-1" d="m118.626 36.667.14.964a3.862 3.862 0 0 1-.822.105 1.892 1.892 0 0 1-.919-.191 1.1 1.1 0 0 1-.462-.5 4.036 4.036 0 0 1-.13-1.294v-3.726h-.8v-.84h.8V29.59l1.082-.65v2.245h1.111v.84h-1.111v3.758a1.9 1.9 0 0 0 .056.6.44.44 0 0 0 .192.21.749.749 0 0 0 .377.081c.122 0 .283-.001.486-.007z" transform="translate(-36.012 -28.598)"/>
                    <path id="패스_19" data-name="패스 19" class="cls-1" d="m120.093 40.39-.144-1.02a2.453 2.453 0 0 0 .64.1 1.261 1.261 0 0 0 .592-.116 1.011 1.011 0 0 0 .372-.342 5.971 5.971 0 0 0 .346-.811c.017-.064.049-.146.1-.27l-2.46-6.45h1.161l1.355 3.724c.175.476.33.97.47 1.49.124-.48.271-.964.443-1.438l1.361-3.775h1.091l-2.4 6.573a13.965 13.965 0 0 1-.617 1.445 2.18 2.18 0 0 1-.685.782 1.585 1.585 0 0 1-.905.252 2.164 2.164 0 0 1-.72-.144z" transform="translate(-36.47 -28.896)"/>
                </g>
            </g>
        </g>
    </g>
</svg>
