<svg xmlns="http://www.w3.org/2000/svg" width="20" height="20" viewBox="0 0 20 20">
    <g transform="translate(-673 -218)">
        <rect data-name="사각형 1640" width="20" height="20" rx="3" transform="translate(673 218)" style="fill:#dc000c"/>
        <path d="m39 80.051-7.483 7.479-2.748-2.748a.341.341 0 0 0-.483 0l-.8.8a.341.341 0 0 0 0 .483l3.793 3.793a.341.341 0 0 0 .483 0l8.524-8.524a.341.341 0 0 0 0-.483l-.8-.8a.341.341 0 0 0-.486 0z" transform="translate(649.409 142.713)" style="fill:#fff"/>
    </g>
</svg>
