<svg xmlns="http://www.w3.org/2000/svg" width="24.662" height="30" viewBox="0 0 24.662 30">
    <defs>
        <style>
            .cls-1{fill:#333}
        </style>
    </defs>
    <g id="그룹_3101" data-name="그룹 3101" transform="translate(0 .001)">
        <path id="패스_970" data-name="패스 970" class="cls-1" d="M643.4 372.333a1.655 1.655 0 0 0 1.636 1.673h1.54v4.177a1.822 1.822 0 0 0 1.8 1.842 1.822 1.822 0 0 0 1.8-1.842v-4.177h2.392v4.177a1.822 1.822 0 0 0 1.8 1.842 1.822 1.822 0 0 0 1.8-1.842v-4.177h1.54a1.655 1.655 0 0 0 1.636-1.673v-12.108H643.4z" transform="translate(-639.038 -350.026)"/>
        <path id="패스_971" data-name="패스 971" class="cls-1" d="M623.826 358.067a1.822 1.822 0 0 0-1.8 1.842v7.65a1.8 1.8 0 1 0 3.6 0v-7.65a1.822 1.822 0 0 0-1.8-1.842z" transform="translate(-622.025 -348.318)"/>
        <path id="패스_972" data-name="패스 972" class="cls-1" d="M727.107 358.067a1.822 1.822 0 0 0-1.8 1.842v7.65a1.8 1.8 0 1 0 3.6 0v-7.65a1.822 1.822 0 0 0-1.8-1.842z" transform="translate(-704.245 -348.318)"/>
        <path id="패스_973" data-name="패스 973" class="cls-1" d="m655.4 314.172 1.34-2.372a.317.317 0 0 0-.112-.427.3.3 0 0 0-.418.114l-1.359 2.406a8.344 8.344 0 0 0-3.48-.752 8.342 8.342 0 0 0-3.479.752l-1.359-2.406a.3.3 0 0 0-.418-.114.317.317 0 0 0-.112.427l1.34 2.372a7.443 7.443 0 0 0-3.945 6.486v.084h15.946v-.084a7.444 7.444 0 0 0-3.944-6.486zm-7.72 3.673a.7.7 0 1 1 .687-.7.7.7 0 0 1-.689.701zm7.382 0a.7.7 0 1 1 .687-.7.7.7 0 0 1-.689.701z" transform="translate(-639.038 -311.332)"/>
    </g>
</svg>
