<svg xmlns="http://www.w3.org/2000/svg" width="16" height="16" viewBox="0 0 16 16">
    <path d="M15.625 8h-.866a.382.382 0 0 0-.375.4l.073 3.18A7.682 7.682 0 0 0 8 8a7.823 7.823 0 0 0-7.616 6.51.383.383 0 0 0 .369.457h.893a.379.379 0 0 0 .367-.307A6.172 6.172 0 0 1 8 9.677a6.116 6.116 0 0 1 5.584 3.723l-3.95-.1a.381.381 0 0 0-.384.387v.894a.381.381 0 0 0 .375.387h6a.381.381 0 0 0 .375-.387V8.387A.381.381 0 0 0 15.625 8zm-.378 9.032h-.893a.379.379 0 0 0-.367.307A6.172 6.172 0 0 1 8 22.323 6.116 6.116 0 0 1 2.416 18.6l3.95.1a.381.381 0 0 0 .384-.387v-.894a.381.381 0 0 0-.375-.387h-6a.381.381 0 0 0-.375.387v6.194A.381.381 0 0 0 .375 24h.866a.382.382 0 0 0 .375-.4l-.073-3.18A7.682 7.682 0 0 0 8 24a7.823 7.823 0 0 0 7.616-6.51.383.383 0 0 0-.369-.458z" transform="translate(0 -8)" style="fill:#bbb"/>
</svg>
