<svg xmlns="http://www.w3.org/2000/svg" width="15" height="15.669" viewBox="0 0 15 15.669">
    <path d="m33.452 17.816-1.346-.777a6.085 6.085 0 0 0 0-2.218l1.346-.777a.382.382 0 0 0 .174-.442 7.868 7.868 0 0 0-1.726-2.988.38.38 0 0 0-.468-.073l-1.346.777a5.962 5.962 0 0 0-1.921-1.109V8.658a.378.378 0 0 0-.3-.37 7.942 7.942 0 0 0-3.45 0 .378.378 0 0 0-.3.37v1.554a6.15 6.15 0 0 0-1.915 1.109l-1.343-.777a.375.375 0 0 0-.468.073 7.821 7.821 0 0 0-1.728 2.988.378.378 0 0 0 .174.442l1.346.777a6.085 6.085 0 0 0 0 2.218l-1.346.777a.382.382 0 0 0-.174.442 7.868 7.868 0 0 0 1.728 2.988.38.38 0 0 0 .468.073l1.346-.777a5.962 5.962 0 0 0 1.921 1.109v1.554a.378.378 0 0 0 .3.37 7.942 7.942 0 0 0 3.45 0 .378.378 0 0 0 .3-.37v-1.553a6.15 6.15 0 0 0 1.921-1.109l1.346.777a.375.375 0 0 0 .468-.073 7.821 7.821 0 0 0 1.728-2.988.39.39 0 0 0-.185-.446zm-7.31.641a2.527 2.527 0 1 1 2.527-2.527 2.531 2.531 0 0 1-2.527 2.528z" transform="translate(-18.644 -8.099)" style="fill:#fff"/>
</svg>
