<svg xmlns="http://www.w3.org/2000/svg" width="22" height="21.057" viewBox="0 0 22 21.057">
    <path data-name="그룹 3523" d="m41.373 7.04-6.008-.876L32.68.72a1.317 1.317 0 0 0-2.36 0l-2.686 5.444-6.008.876a1.317 1.317 0 0 0-.726 2.245l4.347 4.236-1.03 5.979a1.315 1.315 0 0 0 1.908 1.386l5.375-2.821 5.375 2.825a1.316 1.316 0 0 0 1.907-1.39l-1.028-5.983L42.1 9.285a1.317 1.317 0 0 0-.728-2.245zm-5.736 5.79.975 5.691-5.112-2.685-5.111 2.685.975-5.691-4.138-4.03 5.716-.831L31.5 2.788l2.557 5.182 5.716.831-4.137 4.03z" transform="translate(-20.5 .013)" style="fill:#bbb"/>
</svg>
