<svg xmlns="http://www.w3.org/2000/svg" width="14" height="14.657" viewBox="0 0 14 14.657">
    <path d="M7 8a7.169 7.169 0 0 0-7 7.329 7.169 7.169 0 0 0 7 7.329 7.169 7.169 0 0 0 7-7.329A7.169 7.169 0 0 0 7 8zm5.061 4.728h-1.9a10.171 10.171 0 0 0-.881-2.8 5.784 5.784 0 0 1 2.777 2.8zM7 9.418c.525 0 1.372 1.218 1.784 3.31H5.216c.412-2.092 1.259-3.31 1.784-3.31zm-5.645 5.91a6.255 6.255 0 0 1 .113-1.182h2.193c-.028.387-.048.777-.048 1.182s.02.795.048 1.182H1.468a6.255 6.255 0 0 1-.113-1.181zm.584 2.6h1.9a10.171 10.171 0 0 0 .881 2.8 5.784 5.784 0 0 1-2.777-2.8zm1.9-5.2h-1.9a5.784 5.784 0 0 1 2.777-2.8 10.171 10.171 0 0 0-.88 2.8zM7 21.239c-.525 0-1.372-1.218-1.784-3.31h3.571c-.415 2.092-1.262 3.31-1.787 3.31zm1.979-4.728H5.021c-.031-.378-.054-.768-.054-1.182s.023-.8.054-1.182h3.96c.031.378.054.768.054 1.182s-.025.804-.056 1.182zm.3 4.217a10.268 10.268 0 0 0 .881-2.8h1.9a5.784 5.784 0 0 1-2.777 2.8zm1.056-4.217c.028-.387.048-.777.048-1.182s-.02-.795-.048-1.182h2.193a6.244 6.244 0 0 1 0 2.364z" transform="translate(0 -8)" style="fill:#aaa"/>
</svg>
