<svg xmlns="http://www.w3.org/2000/svg" width="22" height="22" viewBox="0 0 22 22">
    <path d="M19.643 32H2.357A2.358 2.358 0 0 0 0 34.357v17.286A2.358 2.358 0 0 0 2.357 54h17.286A2.358 2.358 0 0 0 22 51.643V34.357A2.358 2.358 0 0 0 19.643 32zM6.237 49.31a.981.981 0 1 1-1.7-.982l.7-1.213a1.685 1.685 0 0 1 1.945.56zm6.821-2.647H4.125a.982.982 0 1 1 0-1.964h2.5l3.216-5.559-1.007-1.74a.981.981 0 0 1 1.7-.982l.437.756.437-.756a.981.981 0 1 1 1.7.982l-4.215 7.3h3.05a1.347 1.347 0 0 1 1.115 1.963zm4.817 0h-1.424l.963 1.665a.981.981 0 1 1-1.7.982q-2.423-4.191-3.634-6.291a2.717 2.717 0 0 1 .349-3.329l2.892 5.009h2.554a.982.982 0 0 1 0 1.964z" transform="translate(0 -32)" style="fill:#999"/>
</svg>
