<svg xmlns="http://www.w3.org/2000/svg" width="24" height="22.288" viewBox="0 0 24 22.288">
    <g data-name="그룹 3523">
        <path d="M14.412 19.123a11.144 11.144 0 0 0 18.613 8.292.54.54 0 0 0 .02-.782l-.762-.762a.541.541 0 0 0-.744-.018 8.988 8.988 0 1 1 .394-13.043l-2.206 2.175a.539.539 0 0 0 .379.923h5.767a.539.539 0 0 0 .539-.539V9.683a.539.539 0 0 0-.918-.384l-2.026 2a11.143 11.143 0 0 0-19.056 7.826z" transform="translate(-14.412 -8)" style="fill:#b7713c"/>
        <text data-name="30" transform="translate(10 16)" style="font-family:S-CoreDream-9Black,'S-Core Dream \39 ';font-weight:800;font-size:10px;letter-spacing:-.05em;fill:#b7713c"><tspan x="-6.25" y="0">30</tspan></text>
        <text transform="translate(20 15)" style="font-size:8px;font-family:S-CoreDream-9Black,'S-Core Dream \39 ';font-weight:800;fill:#b7713c"><tspan x="-3.816" y="0">m</tspan></text>
    </g>
</svg>
