<svg xmlns="http://www.w3.org/2000/svg" width="31" height="31" viewBox="0 0 31 31">
    <path d="M15 8a15 15 0 1 0 15 15A15 15 0 0 0 15 8zm10.845 9.677H21.78a20.156 20.156 0 0 0-1.887-5.728 12.126 12.126 0 0 1 5.952 5.728zM15 10.9c1.125 0 2.94 2.492 3.823 6.774h-7.646C12.06 13.4 13.875 10.9 15 10.9zM2.9 23a12.247 12.247 0 0 1 .242-2.419h4.7c-.06.792-.1 1.591-.1 2.419s.042 1.627.1 2.419h-4.7A12.247 12.247 0 0 1 2.9 23zm1.252 5.323H8.22a20.156 20.156 0 0 0 1.887 5.728 12.126 12.126 0 0 1-5.952-5.728zM8.22 17.677H4.155a12.126 12.126 0 0 1 5.952-5.728 20.156 20.156 0 0 0-1.887 5.728zM15 35.1c-1.125 0-2.94-2.492-3.823-6.774h7.651C17.94 32.6 16.125 35.1 15 35.1zm4.24-9.677h-8.48c-.067-.774-.115-1.573-.115-2.419s.048-1.645.115-2.419h8.486c.067.774.115 1.573.115 2.419s-.055 1.641-.121 2.415zm.653 8.631a20.348 20.348 0 0 0 1.887-5.728h4.065a12.126 12.126 0 0 1-5.952 5.724zm2.262-8.631c.06-.792.1-1.591.1-2.419s-.042-1.627-.1-2.419h4.7a12.218 12.218 0 0 1 0 4.839z" transform="translate(.5 -7.5)" style="fill:#333;stroke:#fff"/>
</svg>
