<svg xmlns="http://www.w3.org/2000/svg" width="25.038" height="23.066" viewBox="0 0 25.038 23.066">
    <defs>
        <style>
            .cls-1{fill:#76b998}
        </style>
    </defs>
    <g id="그룹_3448" data-name="그룹 3448" transform="translate(-1417 -617.934)">
        <path id="clock-regular" class="cls-1" d="M19 8a11 11 0 1 0 11 11A11 11 0 0 0 19 8zm0 19.871A8.871 8.871 0 1 1 27.871 19 8.869 8.869 0 0 1 19 27.871z" transform="translate(1409 611)"/>
        <path id="사각형_2567" data-name="사각형 2567" class="cls-1" transform="translate(1427 619)" d="M0 0h2v5H0z"/>
        <path id="사각형_2568" data-name="사각형 2568" class="cls-1" transform="translate(1427 636)" d="M0 0h2v5H0z"/>
        <g id="check-regular" style="fill:#76b998">
            <path d="M33.126 94.858c-.394 0-.764-.153-1.042-.432l-5.27-5.27a1.476 1.476 0 0 1 0-2.084l1.117-1.117a1.464 1.464 0 0 1 1.043-.432c.393 0 .763.154 1.042.432l3.11 3.11 9.682-9.682a1.464 1.464 0 0 1 1.042-.431c.394 0 .764.153 1.043.431L46.01 80.5c.574.575.574 1.51 0 2.085L34.168 94.426a1.464 1.464 0 0 1-1.042.432z" style="stroke:none" transform="translate(1394.598 539.982)"/>
            <path d="M43.85 79.952a.472.472 0 0 0-.335.138L33.126 90.48l-3.817-3.818a.474.474 0 0 0-.67 0L27.52 87.78a.474.474 0 0 0 0 .67l5.27 5.27a.474.474 0 0 0 .67 0l11.842-11.841a.474.474 0 0 0 0-.67l-1.118-1.118a.472.472 0 0 0-.335-.138m0-2c.661 0 1.282.257 1.75.724l1.117 1.117a2.477 2.477 0 0 1 0 3.499L34.875 95.133a2.458 2.458 0 0 1-1.749.725c-.66 0-1.282-.257-1.75-.725l-5.269-5.27a2.477 2.477 0 0 1 0-3.498l1.117-1.117a2.458 2.458 0 0 1 1.75-.725c.66 0 1.282.258 1.749.725l2.403 2.403 8.975-8.975a2.458 2.458 0 0 1 1.75-.724z" style="fill:#fff;stroke:none" transform="translate(1394.598 539.982)"/>
        </g>
        <path id="사각형_2570" data-name="사각형 2570" class="cls-1" transform="rotate(90 396.5 1025.5)" d="M0 0h2v5H0z"/>
    </g>
</svg>
