<svg xmlns="http://www.w3.org/2000/svg" width="17.5" height="20" viewBox="0 0 17.5 20">
    <path d="M5.781 11.25H4.219a.47.47 0 0 1-.469-.469V9.219a.47.47 0 0 1 .469-.469h1.562a.47.47 0 0 1 .469.469v1.563a.47.47 0 0 1-.469.468zM10 10.781V9.219a.47.47 0 0 0-.469-.469H7.969a.47.47 0 0 0-.469.469v1.563a.47.47 0 0 0 .469.469h1.562a.47.47 0 0 0 .469-.47zm3.75 0V9.219a.47.47 0 0 0-.469-.469h-1.562a.47.47 0 0 0-.469.469v1.563a.47.47 0 0 0 .469.469h1.563a.47.47 0 0 0 .468-.47zM10 14.531v-1.562a.47.47 0 0 0-.469-.469H7.969a.47.47 0 0 0-.469.469v1.562a.47.47 0 0 0 .469.469h1.562a.47.47 0 0 0 .469-.469zm-3.75 0v-1.562a.47.47 0 0 0-.469-.469H4.219a.47.47 0 0 0-.469.469v1.562a.47.47 0 0 0 .469.469h1.562a.47.47 0 0 0 .469-.469zm7.5 0v-1.562a.47.47 0 0 0-.469-.469h-1.562a.47.47 0 0 0-.469.469v1.562a.47.47 0 0 0 .469.469h1.563a.47.47 0 0 0 .468-.469zM17.5 4.375v13.75A1.875 1.875 0 0 1 15.625 20H1.875A1.875 1.875 0 0 1 0 18.125V4.375A1.875 1.875 0 0 1 1.875 2.5H3.75V.469A.47.47 0 0 1 4.219 0h1.562a.47.47 0 0 1 .469.469V2.5h5V.469A.47.47 0 0 1 11.719 0h1.563a.47.47 0 0 1 .469.469V2.5h1.875A1.875 1.875 0 0 1 17.5 4.375zm-1.875 13.516V6.25H1.875v11.641a.235.235 0 0 0 .234.234h13.282a.235.235 0 0 0 .234-.234z" style="fill:#cc3c44"/>
</svg>
