<svg xmlns="http://www.w3.org/2000/svg" width="18" height="18.004" viewBox="0 0 18 18.004">
    <path d="M1331 459.988c.037-.259.068-.52.113-.778a7.421 7.421 0 0 1 5.6-6.044 7.305 7.305 0 0 1 8.742 5.881 7.572 7.572 0 0 1-.856 5.24c-.04.07-.079.139-.157.26a.9.9 0 0 1 .168.107c2.009 2.024 1.828 1.725 3.842 3.745a2.112 2.112 0 0 1 .55.913v.487c-.036.107-.069.216-.111.321a1.37 1.37 0 0 1-2.289.428c-2.029-2.044-1.868-1.762-3.9-3.808-.049-.05-.1-.1-.151-.145l-.148.1a6.983 6.983 0 0 1-5.733 1.12 7.412 7.412 0 0 1-5.558-6.017c-.041-.251-.075-.5-.114-.756zm7.3 5.943a5.433 5.433 0 1 0-5.281-5.432 5.357 5.357 0 0 0 5.281 5.431z" transform="translate(-1331 -452.987)" style="fill:#fff"/>
</svg>
