<svg xmlns="http://www.w3.org/2000/svg" width="12" height="14" viewBox="0 0 12 14">
    <path d="m10.891 38.253-4.625 4.638a.375.375 0 0 1-.531 0l-4.626-4.638a.375.375 0 0 1 0-.531l.612-.612a.371.371 0 0 1 .534.006l2.929 3.034v-7.775A.376.376 0 0 1 5.559 32h.875a.376.376 0 0 1 .375.375v7.775l2.928-3.034a.376.376 0 0 1 .534-.006l.613.612a.37.37 0 0 1 .007.531zm.734 6.122H.375A.376.376 0 0 0 0 44.75v.875A.376.376 0 0 0 .375 46h11.25a.376.376 0 0 0 .375-.375v-.875a.376.376 0 0 0-.375-.375z" transform="translate(0 -32)" style="fill:#555"/>
</svg>
