<svg xmlns="http://www.w3.org/2000/svg" width="9.375" height="15" viewBox="0 0 9.375 15">
    <path d="M7.969 0H1.406A1.407 1.407 0 0 0 0 1.406v12.188A1.407 1.407 0 0 0 1.406 15h6.563a1.407 1.407 0 0 0 1.406-1.406V1.406A1.407 1.407 0 0 0 7.969 0zM6.094 13.242a.353.353 0 0 1-.352.352H3.633a.353.353 0 0 1-.352-.352v-.234a.353.353 0 0 1 .352-.352h2.109a.353.353 0 0 1 .352.352zM7.969 10.9a.353.353 0 0 1-.352.352H1.758a.353.353 0 0 1-.352-.352V1.758a.353.353 0 0 1 .352-.352h5.859a.353.353 0 0 1 .352.352z" style="fill:#aaa"/>
</svg>
