<svg xmlns="http://www.w3.org/2000/svg" width="19.603" height="20.5" viewBox="0 0 19.603 20.5">
    <path d="M9.551 8A9.782 9.782 0 0 0 0 18a9.782 9.782 0 0 0 9.551 10A9.782 9.782 0 0 0 19.1 18 9.782 9.782 0 0 0 9.551 8zm6.906 6.452h-2.588a13.879 13.879 0 0 0-1.2-3.819 7.892 7.892 0 0 1 3.79 3.819zM9.551 9.935c.716 0 1.872 1.661 2.434 4.516H7.117C7.68 11.6 8.835 9.935 9.551 9.935zM1.849 18A8.535 8.535 0 0 1 2 16.387h3c-.039.528-.065 1.06-.065 1.613s.027 1.085.065 1.613H2A8.535 8.535 0 0 1 1.849 18zm.8 3.548h2.585a13.879 13.879 0 0 0 1.2 3.819 7.892 7.892 0 0 1-3.79-3.819zm2.588-7.1H2.646a7.892 7.892 0 0 1 3.79-3.819 13.879 13.879 0 0 0-1.202 3.823zm4.314 11.617c-.716 0-1.872-1.661-2.434-4.516h4.872c-.566 2.855-1.722 4.516-2.438 4.516zm2.7-6.452h-5.4c-.042-.513-.073-1.048-.073-1.613s.031-1.1.073-1.613h5.4c.042.516.073 1.048.073 1.613s-.03 1.1-.073 1.613zm.416 5.754a14.01 14.01 0 0 0 1.2-3.819h2.588a7.892 7.892 0 0 1-3.788 3.819zm1.44-5.754c.039-.528.065-1.06.065-1.613s-.027-1.085-.065-1.613H17.1a8.52 8.52 0 0 1 0 3.226z" transform="translate(.25 -7.75)" style="fill:#fff;stroke:#db000c;stroke-width:.5px"/>
</svg>
