<svg xmlns="http://www.w3.org/2000/svg" width="23.809" height="21.052" viewBox="0 0 23.809 21.052">
    <defs>
        <style>
            .cls-1{fill:#333;stroke:#333}
        </style>
    </defs>
    <g id="ic_pc_balck" transform="translate(.5 .5)">
        <g id="그룹_2880" data-name="그룹 2880">
            <g id="그룹_2876" data-name="그룹 2876" transform="translate(6.131 15.5)">
                <g id="그룹_2874" data-name="그룹 2874" transform="translate(4.76)">
                    <path id="패스_998" data-name="패스 998" class="cls-1" d="M1782.791 272.646a.513.513 0 0 1-.513-.513v-3.012a.513.513 0 0 1 1.027 0v3.012a.513.513 0 0 1-.514.513z" transform="translate(-1782.277 -268.608)"/>
                </g>
                <g id="그룹_2875" data-name="그룹 2875" transform="translate(0 3.525)">
                    <path id="패스_999" data-name="패스 999" class="cls-1" d="M1758.51 293.1h-12.642c-.376 0-.682-.23-.682-.513s.305-.513.682-.513h12.642c.376 0 .681.23.681.513s-.304.513-.681.513z" transform="translate(-1746.916 -292.073)"/>
                </g>
            </g>
            <g id="그룹_2879" data-name="그룹 2879">
                <g id="그룹_2877" data-name="그룹 2877">
                    <path id="패스_1001" data-name="패스 1001" class="cls-1" d="M1719.715 158.765h-21.782a.513.513 0 0 1-.513-.513v-12.8a1.615 1.615 0 0 1 1.613-1.613h19.582a1.615 1.615 0 0 1 1.613 1.614v12.8a.513.513 0 0 1-.513.512zm-21.269-1.027h20.754v-12.282a.588.588 0 0 0-.587-.587h-19.582a.587.587 0 0 0-.587.587z" transform="translate(-1697.42 -143.842)"/>
                </g>
                <g id="그룹_2878" data-name="그룹 2878" transform="translate(0 12.896)">
                    <path id="패스_1002" data-name="패스 1002" class="cls-1" d="M1701.42 248.323v1.943a1.1 1.1 0 0 0 1.1 1.1h19.58a1.1 1.1 0 0 0 1.1-1.1v-1.943z" transform="translate(-1700.906 -247.81)"/>
                    <path id="패스_1003" data-name="패스 1003" class="cls-1" d="M1718.615 248.393h-19.582a1.615 1.615 0 0 1-1.613-1.614v-.943a.513.513 0 0 1 .513-.513h21.782a.513.513 0 0 1 .514.513v.943a1.616 1.616 0 0 1-1.614 1.614zm-20.168-2.043v.429a.587.587 0 0 0 .587.587h19.582a.588.588 0 0 0 .587-.587v-.429z" transform="translate(-1697.42 -244.323)"/>
                </g>
            </g>
        </g>
    </g>
</svg>
