<svg xmlns="http://www.w3.org/2000/svg" width="24.429" height="30" viewBox="0 0 24.429 30">
    <defs>
        <style>
            .cls-1{fill:#333}
        </style>
    </defs>
    <g id="그룹_3102" data-name="그룹 3102" transform="translate(0 -.001)">
        <g id="그룹_2722" data-name="그룹 2722" transform="translate(0 .001)">
            <path id="패스_974" data-name="패스 974" class="cls-1" d="M343.961 259.86a6.775 6.775 0 0 1 3.238-5.7 7.022 7.022 0 0 0-5.481-2.981c-2.338-.236-4.564 1.378-5.745 1.378s-3.016-1.34-4.95-1.3a7.342 7.342 0 0 0-6.209 3.757c-2.645 4.591-.68 11.395 1.9 15.117 1.259 1.823 2.759 3.869 4.73 3.8 1.9-.073 2.622-1.228 4.919-1.228s2.942 1.228 4.954 1.2c2.043-.043 3.34-1.865 4.587-3.688a16.638 16.638 0 0 0 2.079-4.271 6.617 6.617 0 0 1-4.022-6.084z" transform="translate(-323.557 -243.924)"/>
            <path id="패스_975" data-name="패스 975" class="cls-1" d="M395.576 215.723a6.579 6.579 0 0 0 1.562-4.788 6.717 6.717 0 0 0-4.415 2.27 6.285 6.285 0 0 0-1.595 4.645 5.567 5.567 0 0 0 4.448-2.127z" transform="translate(-378.953 -210.935)"/>
        </g>
    </g>
</svg>
