<svg xmlns="http://www.w3.org/2000/svg" width="13" height="13.003" viewBox="0 0 13 13.003">
    <path d="M1331 458.043c.027-.187.049-.375.082-.562a5.359 5.359 0 0 1 4.043-4.365 5.276 5.276 0 0 1 6.314 4.247 5.466 5.466 0 0 1-.618 3.784c-.029.051-.057.1-.113.188a.66.66 0 0 1 .122.077c1.451 1.462 1.32 1.246 2.775 2.7a1.529 1.529 0 0 1 .4.659v.352c-.026.077-.05.156-.08.232a.99.99 0 0 1-1.653.309c-1.466-1.476-1.349-1.273-2.814-2.75a1.414 1.414 0 0 0-.109-.1l-.107.074a5.043 5.043 0 0 1-4.141.809 5.353 5.353 0 0 1-4.014-4.346c-.03-.182-.055-.364-.082-.546zm5.27 4.292a3.924 3.924 0 1 0-3.814-3.923 3.868 3.868 0 0 0 3.814 3.923z" transform="translate(-1331 -452.987)" style="fill:#333"/>
</svg>
