<svg xmlns="http://www.w3.org/2000/svg" width="16" height="16" viewBox="0 0 16 16">
    <path data-name="-e-icon_exel" d="m9.284 16-.03-.012-.035-.014-.019-.009-8.7-1.624a.526.526 0 0 1-.5-.584V2.225a.536.536 0 0 1 .482-.573l1.248-.234L9.207.023A1.165 1.165 0 0 1 9.427 0c.493 0 .494.459.494.61v1.258h5.122a.833.833 0 0 1 .956.94v10.368c0 .635-.317.943-.968.943h-5.11v1.25a.632.632 0 0 1-.308.607L9.579 16zM.982 2.532v10.924l7.961 1.488v-13.9zm8.95 10.618h5.074V2.836H9.933v1.233h1.256v.958H9.933v1.235h1.259v.956H9.93v1.24h1.263v.958H9.932v1.552h1.257v.959H9.932zm1.588-1.238v-.936h2.865v.936zm-9.673-.821L3.854 8 2.022 4.913h2.04l.928 1.952 1.022-1.947h1.911l-1.887 3.06 1.936 3.108h-2L4.922 9.1l-1.057 1.992zm9.673-1.683v-.944h2.873v.944zm0-2.208v-.928h2.873V7.2zm0-2.192v-.936h2.873v.936z" style="fill:#555"/>
</svg>
