<svg id="ic_and_on" xmlns="http://www.w3.org/2000/svg" width="16.819" height="20" viewBox="0 0 16.819 20">
    <defs>
        <style>
            .cls-1{fill:#fff}
        </style>
    </defs>
    <path id="패스_970" data-name="패스 970" class="cls-1" d="M643.4 368.3a1.116 1.116 0 0 0 1.116 1.116h1.05v2.784a1.228 1.228 0 0 0 1.228 1.228 1.228 1.228 0 0 0 1.228-1.228v-2.785h1.631v2.785a1.228 1.228 0 0 0 1.228 1.228 1.228 1.228 0 0 0 1.228-1.228v-2.785h1.05a1.116 1.116 0 0 0 1.116-1.116v-8.072H643.4z" transform="translate(-640.424 -353.425)"/>
    <path id="패스_971" data-name="패스 971" class="cls-1" d="M623.253 358.067a1.228 1.228 0 0 0-1.228 1.228v5.1a1.228 1.228 0 0 0 2.456 0v-5.1a1.228 1.228 0 0 0-1.228-1.228z" transform="translate(-622.025 -351.567)"/>
    <path id="패스_972" data-name="패스 972" class="cls-1" d="M726.534 358.067a1.228 1.228 0 0 0-1.228 1.228v5.1a1.228 1.228 0 0 0 2.456 0v-5.1a1.228 1.228 0 0 0-1.228-1.228z" transform="translate(-710.943 -351.567)"/>
    <path id="패스_973" data-name="패스 973" class="cls-1" d="m651.581 313.225.914-1.581a.209.209 0 0 0-.361-.209l-.927 1.6a5.8 5.8 0 0 0-2.373-.5 5.8 5.8 0 0 0-2.373.5l-.927-1.6a.209.209 0 0 0-.361.209l.914 1.581a4.949 4.949 0 0 0-2.69 4.324v.056h10.875v-.056a4.949 4.949 0 0 0-2.691-4.324zm-5.265 2.449a.469.469 0 1 1 .469-.469.469.469 0 0 1-.469.469zm5.034 0a.469.469 0 1 1 .469-.469.469.469 0 0 1-.468.469z" transform="translate(-640.424 -311.331)"/>
</svg>
