<svg id="ic_ios" xmlns="http://www.w3.org/2000/svg" width="16.286" height="20" viewBox="0 0 16.286 20">
    <defs>
        <style>
            .cls-1{fill:#db000c}
        </style>
    </defs>
    <g id="그룹_2722" data-name="그룹 2722">
        <path id="패스_974" data-name="패스 974" class="cls-1" d="M337.16 257.034a4.581 4.581 0 0 1 2.159-3.852 4.661 4.661 0 0 0-3.654-2.013c-1.559-.159-3.043.931-3.83.931s-2.01-.9-3.3-.879a4.886 4.886 0 0 0-4.139 2.538c-1.763 3.1-.453 7.7 1.269 10.211.839 1.231 1.839 2.613 3.153 2.564 1.269-.05 1.748-.829 3.279-.829s1.962.829 3.3.808c1.362-.029 2.227-1.26 3.058-2.491a11.307 11.307 0 0 0 1.386-2.885 4.461 4.461 0 0 1-2.681-4.103z" transform="translate(-323.557 -246.534)"/>
        <path id="패스_975" data-name="패스 975" class="cls-1" d="M393.956 213.994a4.2 4.2 0 0 0 1-3.059 4.292 4.292 0 0 0-2.821 1.451 4.016 4.016 0 0 0-1.019 2.968 3.557 3.557 0 0 0 2.84-1.36z" transform="translate(-382.887 -210.935)"/>
    </g>
</svg>
