<svg xmlns="http://www.w3.org/2000/svg" width="200" height="31" viewBox="0 0 200 31">
    <defs>
        <clipPath id="clip-path">
            <path id="사각형_692" fill="none" d="M0 0h200v31H0z"/>
        </clipPath>
        <style>
            .cls-3{fill:#7fae4d}.cls-4{fill:#1a1a1a}
        </style>
    </defs>
    <g id="logo_bk" clip-path="url(#clip-path)">
        <path id="패스_303" d="M32.824 27.686l-2.352-15.45-4.709 15.712c-.913 2.322-2.333 3.037-5.842 3.037h-2.475l-3.911-18.749-4.848 16.082c-1.1 2.519-2.492 2.667-4.511 2.667H0L11.4 0c5.117 0 7.385 1.31 7.922 4.865l2.9 13.684L28.336 0c5.442 0 7.495 2.179 7.914 4.821l4.009 26.164h-2.6c-1.7 0-4.135.424-4.834-3.3" class="cls-3"/>
        <path id="패스_304" d="M365.338 35.2a6.97 6.97 0 0 0 4.972 1.83h10.968c4.068 0 6.433-2.055 6.433-5.61v-.093H371.6c-.953 0-1.212-.673-1.212-1.338v-3.065h13.224a4.058 4.058 0 0 0 2.967-1.151 4.009 4.009 0 0 0 1.21-2.928v-4.9c0-3.1-2.237-5.867-6.745-5.867H370.31c-2.239 0-3.775.122-5.073 1.286-1.38 1.237-1.674 2.739-1.674 4.806v12.487a6.823 6.823 0 0 0 1.774 4.543m15.626-15.412c0 1.135-.656 1.826-2.071 1.833h-8.5v-2.246a1.457 1.457 0 0 1 .448-1.2 1.476 1.476 0 0 1 1.23-.389h6.826a1.806 1.806 0 0 1 1.544.484 1.782 1.782 0 0 1 .528 1.521" class="cls-4" transform="translate(-187.32 -6.255)"/>
        <path id="패스_305" d="M331.179 37.933h-6.52v-16.3a2.1 2.1 0 0 0-.759-1.872 3.7 3.7 0 0 0-2.092-.454h-7.368v18.622h-6.52V13.817h16.74a6.866 6.866 0 0 1 4.73 1.537 5.919 5.919 0 0 1 1.788 4.612z" class="cls-4" transform="translate(-158.65 -7.158)"/>
        <path id="패스_306" d="M275.021 31.783a5.92 5.92 0 0 1-1.788 4.612 6.866 6.866 0 0 1-4.731 1.538h-16.74V13.817h6.52v18.626h7.368a3.7 3.7 0 0 0 2.093-.453 2.1 2.1 0 0 0 .758-1.872v-16.3h6.52z" class="cls-4" transform="translate(-129.715 -7.158)"/>
        <path id="패스_307" d="M109.266 14.984a7.952 7.952 0 0 0-4.791-1.169h-1.718c0 .05.007.1.007.152v5.15c0 .073-.006.143-.01.214h.023q1.7 0 1.7 1.778v9.22q0 2.293-1.849 2.291h-6.674q-1.85 0-1.85-2.291v-9.22q0-1.778 1.7-1.778h.023c-.006-.071-.011-.142-.011-.214v-5.15c0-.051.006-.1.008-.152H94.1a7.952 7.952 0 0 0-4.791 1.169q-1.728 1.289-1.728 4.317v12.473a5.778 5.778 0 0 0 1.819 4.514 6.737 6.737 0 0 0 4.7 1.646h10.371a6.737 6.737 0 0 0 4.7-1.646 5.78 5.78 0 0 0 1.819-4.514V19.3q0-3.028-1.728-4.317" class="cls-4" transform="translate(-45.126 -7.156)"/>
        <path id="패스_308" d="M111.586 12.386a1.485 1.485 0 0 0-1.476-1.332h-1.142a1.485 1.485 0 0 0-1.476 1.332 1.309 1.309 0 0 0-.016.152v5.15a1.536 1.536 0 0 0 1.492 1.484h1.142a1.536 1.536 0 0 0 1.491-1.484v-5.15a1.425 1.425 0 0 0-.016-.152" class="cls-3" transform="translate(-55.375 -5.727)"/>
        <path id="패스_309" d="M165.732 32.447q0 5.486-6.216 5.486h-17.047V13.818h17.042q6.216 0 6.216 5.485zM157.216 19.3h-8.227v3.738h8.218a1.808 1.808 0 0 0 1.435-.474 1.786 1.786 0 0 0 .566-1.393c0-1.405-.8-1.871-1.992-1.871m-.009 8.863h-8.218v4.284l8.218-.031a1.925 1.925 0 0 0 1.5-.607 1.9 1.9 0 0 0 .5-1.535 1.868 1.868 0 0 0-.5-1.525 1.892 1.892 0 0 0-1.5-.584" class="cls-4" transform="translate(-73.405 -7.159)"/>
        <path id="패스_310" d="M195.929 13.817v5.516l8.37-.03V37.93h6.52V19.313l8.37.02v-5.516z" class="cls-4" transform="translate(-100.949 -7.158)"/>
    </g>
</svg>
