<svg xmlns="http://www.w3.org/2000/svg" width="400" height="62.647" viewBox="0 0 400 62.647">
    <defs>
        <clipPath id="clip-path">
            <path id="사각형_692" fill="none" d="M0 0h400v62.647H0z"/>
        </clipPath>
        <style>
            .cls-3{fill:#7fae4d}.cls-4{fill:#fff}
        </style>
    </defs>
    <g id="logo_wh2" clip-path="url(#clip-path)">
        <path id="패스_303" d="M65.649 55.951l-4.7-31.224-9.422 31.752c-1.827 4.692-4.665 6.137-11.684 6.137h-4.95l-7.823-37.89-9.694 32.5c-2.2 5.091-4.984 5.39-9.022 5.39H0L22.8 0c10.234 0 14.77 2.648 15.844 9.832l5.806 27.653L56.672 0C67.556 0 71.661 4.4 72.5 9.744l8.018 52.873h-5.2c-3.4 0-8.27.856-9.668-6.666" class="cls-3"/>
        <path id="패스_304" d="M367.114 58.808a13.856 13.856 0 0 0 9.944 3.7h21.935c8.136 0 12.867-4.152 12.867-11.338v-.19h-32.228c-1.905 0-2.424-1.361-2.424-2.7v-6.196h26.447a8.108 8.108 0 0 0 8.353-8.244v-9.909c0-6.256-4.474-11.857-13.491-11.857h-21.46c-4.478 0-7.549.247-10.146 2.6-2.76 2.5-3.348 5.535-3.348 9.712v25.241a13.869 13.869 0 0 0 3.549 9.181m31.251-31.147c0 2.294-1.312 3.691-4.143 3.7h-17v-4.533a2.948 2.948 0 0 1 3.356-3.218h13.652a3.605 3.605 0 0 1 4.143 4.052" class="cls-4" transform="translate(-11.076 -.315)"/>
        <path id="패스_305" d="M354.437 62.563H341.4v-32.95a4.265 4.265 0 0 0-1.518-3.783 7.331 7.331 0 0 0-4.184-.917H320.96v37.642h-13.039V13.828H341.4a13.638 13.638 0 0 1 9.46 3.105 12.029 12.029 0 0 1 3.577 9.32z" class="cls-4" transform="translate(-9.38 -.371)"/>
        <path id="패스_306" d="M298.28 50.124a12.031 12.031 0 0 1-3.577 9.32 13.638 13.638 0 0 1-9.462 3.107h-33.479V13.817H264.8v37.642h14.737a7.346 7.346 0 0 0 4.186-.915 4.269 4.269 0 0 0 1.516-3.783V13.817h13.039z" class="cls-4" transform="translate(-7.668 -.36)"/>
        <path id="패스_307" d="M130.955 16.2a15.775 15.775 0 0 0-9.582-2.362h-3.436c0 .1.015.2.015.307v10.408c0 .147-.011.29-.021.433h.047q3.4 0 3.4 3.593v18.633q0 4.634-3.7 4.63h-13.346q-3.7 0-3.7-4.63V28.579q0-3.593 3.4-3.593h.047c-.011-.143-.022-.286-.022-.433V14.145c0-.1.011-.205.017-.307h-3.438a15.775 15.775 0 0 0-9.587 2.362q-3.457 2.6-3.457 8.723v25.208a11.739 11.739 0 0 0 3.639 9.122 13.388 13.388 0 0 0 9.4 3.326h20.742a13.388 13.388 0 0 0 9.4-3.326 11.743 11.743 0 0 0 3.639-9.122v-25.2q0-6.119-3.457-8.723" class="cls-4" transform="translate(-2.675 -.382)"/>
        <path id="패스_308" d="M115.7 13.745a2.982 2.982 0 0 0-2.953-2.691h-2.287a2.982 2.982 0 0 0-2.953 2.691 2.672 2.672 0 0 0-.032.307V24.46a3.087 3.087 0 0 0 2.985 3h2.284a3.087 3.087 0 0 0 2.983-3V14.052a2.905 2.905 0 0 0-.032-.307" class="cls-3" transform="translate(-3.275 -.288)"/>
        <path id="패스_309" d="M188.995 51.465q0 11.087-12.432 11.087h-34.094V13.818h34.084q12.432 0 12.432 11.085zM171.963 24.9h-16.455v7.555h16.436a3.61 3.61 0 0 0 4-3.774c0-2.84-1.6-3.781-3.983-3.781m-.019 17.912h-16.434v8.658l16.436-.062a3.849 3.849 0 0 0 4-4.329 3.781 3.781 0 0 0-4-4.263" class="cls-4" transform="translate(-4.34 -.361)"/>
        <path id="패스_310" d="M195.929 13.817v11.148l16.74-.06v37.641h13.039V24.923l16.74.041V13.817z" class="cls-4" transform="translate(-5.968 -.36)"/>
    </g>
</svg>
