<svg xmlns="http://www.w3.org/2000/svg" width="130" height="130" viewBox="0 0 130 130">
    <defs>
        <linearGradient id="linear-gradient" x1=".557" x2=".469" y1=".999" y2=".23" gradientUnits="objectBoundingBox">
            <stop offset="0" stop-color="#99f0fd"/>
            <stop offset="1" stop-color="#24c9e1"/>
        </linearGradient>
        <style>
            .cls-5{fill:#333}.cls-6{fill:none}.cls-7{fill:#88bc35}.cls-9{fill:#a67c52}.cls-12{fill:#f0b185}.cls-14{fill:#b3b3b3}
        </style>
    </defs>
    <g id="img_4_1" transform="translate(-638 -2578)">
        <circle id="Ellipse_531" cx="65" cy="65" r="65" fill="#adf2fc" transform="translate(638 2578)"/>
        <g id="Group_1505" transform="translate(521.398 2443.697)">
            <g id="Group_1503" transform="translate(152.602 145.303)">
                <path id="Path_2107" fill="url(#linear-gradient)" d="M167.586 187.506v62.364l32.363-15.651a2.648 2.648 0 0 0 1.2-1.916v-62.364l-32.363 15.65a2.65 2.65 0 0 0-1.2 1.917z" transform="translate(-161.81 -160.443)"/>
                <path id="Path_2108" fill="#dff2f4" d="M155.658 243.8v-76.123a5.17 5.17 0 0 1 2.664-4.248l33.415-16.16a1.946 1.946 0 0 1 1.817-.074l-2.976-1.664a1.963 1.963 0 0 0-1.9.031l-33.415 16.159a5.169 5.169 0 0 0-2.664 4.248v75.915a1.893 1.893 0 0 0 .827 1.737l2.972 1.862a1.935 1.935 0 0 1-.74-1.683z" transform="translate(-152.602 -145.303)"/>
                <path id="Path_2109" fill="#fff" d="M198.425 149.908a1.946 1.946 0 0 0-1.817.074l-33.415 16.16a5.17 5.17 0 0 0-2.664 4.248v76.123a1.935 1.935 0 0 0 .744 1.683 1.89 1.89 0 0 0 1.92-.012l33.415-16.16a5.169 5.169 0 0 0 2.664-4.247v-76.123a1.881 1.881 0 0 0-.847-1.746zm-1.611 69.968a2.648 2.648 0 0 1-1.2 1.916l-32.363 15.651v-62.364a2.65 2.65 0 0 1 1.2-1.917l32.363-15.65zM175 164.5a.723.723 0 0 1 .378-.6l9.332-4.41a.244.244 0 0 1 .378.239v.012a.721.721 0 0 1-.378.6l-9.332 4.41a.245.245 0 0 1-.378-.24z" transform="translate(-157.473 -148.016)"/>
                <path id="Path_2110" d="M198.45 180.288l9.332-4.41a.721.721 0 0 0 .378-.6v-.012a.244.244 0 0 0-.378-.239l-9.332 4.41a.723.723 0 0 0-.378.6v.012a.245.245 0 0 0 .378.239z" class="cls-5" transform="translate(-180.545 -163.548)"/>
            </g>
            <g id="Group_1504" transform="translate(176.048 188.568)">
                <path id="Path_2111" d="M265.713 324.2l1.39 5.692a14.688 14.688 0 0 0 2.163.331c-.561-.861-.992-5.336-1.065-6.132a4.465 4.465 0 0 1-2.488.109z" class="cls-6" transform="translate(-245.56 -298.442)"/>
                <path id="Path_2112" d="M282.584 397.409c.254.039.605.124.925.185l-.022-.233a.756.756 0 0 1-.039-.124c-.126-.857-.835-7.018-.835-7.018l-.268-5.526h-.178c-.237 2.914-.515 6.106-.537 6.337-.031.313.138 4.6.211 6.421a1.888 1.888 0 0 1 .743-.042z" class="cls-6" transform="translate(-255.34 -335.684)"/>
                <path id="Path_2113" d="M285.7 338.643a3.011 3.011 0 0 1 .863-.144c-.3-.021-.709-.052-1.152-.091l.111.3c.069-.024.129-.046.178-.065z" class="cls-7" transform="translate(-257.667 -307.24)"/>
                <path id="Path_2114" d="M273.235 329.37c1.146.115 2.252.178 2.252.178l.093-.022.034-.087a.153.153 0 0 1 0-.031l-.224-.868a7.117 7.117 0 0 1-.85-.171l-1.385-5.668a3.644 3.644 0 0 1-.981.536c.068.798.499 5.272 1.061 6.133z" class="cls-7" transform="translate(-249.528 -297.588)"/>
                <path id="Path_2115" fill="#754c24" d="M281.322 328.538c0 .035 0 .209.069.158a.473.473 0 0 1 .039-.041v-.005a.26.26 0 0 1 .323-.044c.255.14-.049.606-.22.835a1.816 1.816 0 0 0 .343 1.02 1.594 1.594 0 0 0 .912.136h.018a3.37 3.37 0 0 0 1.106-.708 1.586 1.586 0 0 0 .122-2.31 2.422 2.422 0 0 0-.728-.607c-.248-.144-.885-.565-1.128-.714s-.634-.151-.705.382a2.141 2.141 0 0 0 .018.651 1.587 1.587 0 0 0 .119.393 2.773 2.773 0 0 0-.288.854z" transform="translate(-255.152 -299.717)"/>
                <path id="Path_2116" d="M275.937 420.58l-.011-.117a7.729 7.729 0 0 0-1.448-.156c-.633.173-.6.486-.215.868a4.186 4.186 0 0 0 1.7.6c.457.133 1.07.289 1.116-.252a2.731 2.731 0 0 0-.069-.814.862.862 0 0 1-.531.162.641.641 0 0 1-.542-.291z" class="cls-5" transform="translate(-250.643 -357.564)"/>
                <path id="Path_2117" d="M283.888 418.224l-.036-.386c-.32-.061-.671-.146-.925-.185a1.888 1.888 0 0 0-.742.044l.032.766a8.416 8.416 0 0 0 1.695.67c.453.158 1.085.325 1.1-.315a4.363 4.363 0 0 0-.022-.484.812.812 0 0 1-.558.185.643.643 0 0 1-.544-.295z" class="cls-5" transform="translate(-255.682 -355.928)"/>
                <path id="Path_2118" d="M286.454 417.558l.022.233.036.386a.643.643 0 0 0 .544.293.811.811 0 0 0 .558-.185h.006l-.022-.462c-.772.367-1.053-.043-1.144-.265z" class="cls-9" transform="translate(-258.306 -355.881)"/>
                <path id="Path_2119" d="M278.9 419.424l.047.5.011.117a.642.642 0 0 0 .544.293.862.862 0 0 0 .531-.162.382.382 0 0 0 .033-.027l-.022-.462c-.772.374-1.053-.037-1.144-.259z" class="cls-9" transform="translate(-253.664 -357.028)"/>
                <path id="Path_2120" fill="#394656" d="M281.138 374.557a1.839 1.839 0 0 1-.763.6 7.631 7.631 0 0 1-3.033.875 3.11 3.11 0 0 1-.995-.147 2.335 2.335 0 0 1-1.357-.868 2.936 2.936 0 0 0 0 .3 5.6 5.6 0 0 0 .261 1.62l.368 7.6s.708 6.161.835 7.018a.761.761 0 0 0 .039.123c.091.222.372.633 1.143.262.051-.024.1-.049.156-.08v-.044c0-.1-.015-.373-.032-.766-.073-1.821-.242-6.108-.211-6.421.022-.231.3-3.423.537-6.337h.178l.267 5.526s.708 6.162.835 7.018a.76.76 0 0 0 .039.124c.091.222.372.632 1.143.261.05-.024.1-.049.156-.081 0 0-.284-6.832-.244-7.23.027-.275.415-4.742.665-7.945a6.265 6.265 0 0 0 .222-1.689c-.077.116-.164.224-.209.281z" transform="translate(-251.259 -329.282)"/>
                <path id="Path_2121" fill="#8cc63f" d="M273.9 338.915l.568-7.516s.008-1.489-.562-1.827a2.15 2.15 0 0 0-1.08-.179 3.012 3.012 0 0 0-.863.144c-.052.02-.113.041-.178.063h-.012c.006.024.089.377-.551.52-.827.184-1.09.045-1.174-.066l-.069.016-.093.022s-1.106-.064-2.252-.178a14.683 14.683 0 0 1-2.163-.331l-1.39-5.692-.072-.3a1.8 1.8 0 0 0-.2 0 .97.97 0 0 0-.639.208.489.489 0 0 0-.077.527s.54 6.246 1.234 6.4a20.32 20.32 0 0 1 2.631 1.265 8.463 8.463 0 0 0 .054 2.463s.646 4.409.705 5.947a20.346 20.346 0 0 1-.2 3.27c.047.072.1.131.144.194a2.335 2.335 0 0 0 1.357.868 3.11 3.11 0 0 0 .994.147 7.631 7.631 0 0 0 3.033-.875 1.839 1.839 0 0 0 .763-.6c.044-.053.131-.165.21-.282a1.379 1.379 0 0 0 .135-.235z" transform="translate(-243.924 -298.135)"/>
                <path id="Path_2122" d="M279.671 333.327a.153.153 0 0 0 0 .031l-.034.087.069-.016c.084.111.347.251 1.174.066.64-.142.557-.5.551-.52h.012l-.111-.3-.107-.289a1.593 1.593 0 0 1-.912-.136 1.817 1.817 0 0 1-.343-1.02c.172-.229.476-.694.22-.835a.26.26 0 0 0-.323.044v.005a.468.468 0 0 0-.039.041c-.072.051-.07-.123-.069-.158a2.774 2.774 0 0 1 .293-.856 1.586 1.586 0 0 1-.119-.393 2.383 2.383 0 0 0-.5.557v.009c-.054.087-.164.259-.2.322a2.359 2.359 0 0 0-.387 1.855.621.621 0 0 0 .543.4l.062.242.224.868z" class="cls-12" transform="translate(-253.589 -301.506)"/>
                <path id="Path_2123" fill="#666" d="M213.577 259.751l1.838-.83.14.083v-1.456l-2.126 1.011v9.612l1.9-.9-1.748-1.031z" transform="translate(-213.429 -257.548)"/>
                <path id="Path_2124" d="M213.812 261.941l10.61 6.257a4.792 4.792 0 0 1 .834-1.412l-9.466-5.593-.14-.083z" class="cls-14" transform="translate(-213.664 -259.738)"/>
                <path id="Path_2125" d="M251.927 271.8c4.189 2.47 7.616 8.55 7.616 13.509a6.5 6.5 0 0 1-1.243 4.191c1.62-.7 2.65-2.539 2.65-5.257 0-4.959-3.428-11.038-7.617-13.509-2.659-1.568-5.01-1.318-6.374.341 1.341-.583 3.074-.39 4.968.725z" class="cls-14" transform="translate(-234.035 -265.004)"/>
                <path id="Path_2126" fill="#999" d="M232.2 285.492c-.121-.29-.143-.4-.1-.453.089-.038.136.1.226.346.047.078.129.189.152.183 0 0-.117-.249-.168-.362-.048-.16-.128-.379-.059-.416s.118-.014.206.275c0 0 .164.294.191.352.071-.02-.382-.826-.191-.887.13-.082.329.747.392.728.068-.05-.249-.674-.139-.73.183-.044.272.479.437.822.08.165.148.305.23-.093.021-.1.1-.326.215-.232.074.063-.021.417.009.569a1.264 1.264 0 0 1 .009.815l-.071.109a1.793 1.793 0 0 1 .2 0l.072.3a4.465 4.465 0 0 0 2.489-.109 3.643 3.643 0 0 0 .981-.536 3.892 3.892 0 0 0 .641-.622 6.5 6.5 0 0 0 1.243-4.185c0-4.959-3.427-11.039-7.616-13.509-1.894-1.117-3.63-1.31-4.967-.731a3.711 3.711 0 0 0-1.334.982 4.793 4.793 0 0 0-.834 1.412l-10.61-6.257v6.486l1.748 1.031 8.929 5.266c1.127 3.983 3.873 7.963 7.066 9.846a8.845 8.845 0 0 0 1.127.565 2.788 2.788 0 0 1-.274-.56 4.266 4.266 0 0 1-.2-.405zm3.15-6.562a.878.878 0 0 1 1.057.02 3.164 3.164 0 0 1 1.345 2.113 2.211 2.211 0 0 1 .026.319c0 .893-.617 1.259-1.371.814a3.126 3.126 0 0 1-1.371-2.431 1.06 1.06 0 0 1 .318-.835z" transform="translate(-213.664 -261.061)"/>
                <path id="Path_2127" d="M270.254 307.171c.754.445 1.371.078 1.371-.814a2.212 2.212 0 0 0-.026-.319.879.879 0 0 1-1.057-.02 3.164 3.164 0 0 1-1.342-2.118 1.06 1.06 0 0 0-.314.835 3.126 3.126 0 0 0 1.368 2.436z" class="cls-14" transform="translate(-247.508 -286.036)"/>
                <path id="Path_2128" d="M262.68 320.415l.071-.109a1.264 1.264 0 0 0-.009-.815c-.03-.152.065-.506-.009-.569-.111-.095-.193.13-.215.232-.082.4-.151.258-.23.093-.165-.343-.254-.865-.437-.822-.111.056.207.68.139.73-.063.02-.262-.809-.392-.728-.191.062.262.867.191.887-.027-.057-.191-.352-.191-.352-.088-.289-.14-.311-.206-.275s.011.256.059.416l.168.362c-.023.006-.1-.105-.152-.183-.09-.242-.137-.384-.226-.346-.046.048-.024.163.1.453a4.266 4.266 0 0 0 .205.407 2.788 2.788 0 0 0 .274.56 1.066 1.066 0 0 0 .214.261l.011.007a.97.97 0 0 1 .635-.209z" class="cls-12" transform="translate(-242.798 -294.957)"/>
            </g>
        </g>
    </g>
</svg>
