<svg xmlns="http://www.w3.org/2000/svg" width="65" height="65" viewBox="0 0 65 65">
    <defs>
        <style>
            .cls-5{fill:none}.cls-3{fill:#fff}.cls-4{stroke:none}
        </style>
    </defs>
    <g id="icon_06" transform="translate(-1382 -686)">
        <g id="ic_video" transform="translate(443 50)">
            <g id="Ellipse_24" fill="none" stroke="#fff" opacity="0.9" transform="translate(939 636)">
                <circle cx="32.5" cy="32.5" r="32.5" class="cls-4"/>
                <circle cx="32.5" cy="32.5" r="32" class="cls-5"/>
            </g>
        </g>
        <g id="img_picm" transform="translate(1395 699.961)">
            <g id="Rectangle_1236" fill="none" stroke="#fff" stroke-width="2px" transform="translate(4 5.039)">
                <rect width="31" height="28" class="cls-4" rx="5"/>
                <rect width="29" height="26" x="1" y="1" class="cls-5" rx="4"/>
            </g>
            <circle id="Ellipse_517" cx="2.225" cy="2.225" r="2.225" class="cls-3" transform="translate(10.674 11.22)"/>
            <path id="Union_6" d="M7.924 12.057H1.067a1 1 0 0 1-.877-1.48l3.429-6.261a1 1 0 0 1 1.754 0l1.911 3.49L11.649.573a1 1 0 0 1 1.712 0l6.015 9.967a1 1 0 0 1-.856 1.517z" class="cls-3" transform="translate(9.488 15.189)"/>
        </g>
    </g>
</svg>
