<svg xmlns="http://www.w3.org/2000/svg" width="130" height="130" viewBox="0 0 130 130">
    <defs>
        <linearGradient id="linear-gradient" x1="-36.376" x2="-36.339" y1="23.041" y2="23.041" gradientUnits="objectBoundingBox">
            <stop offset="0" stop-color="#d8e8ea"/>
            <stop offset="1" stop-color="#f0f2f7"/>
        </linearGradient>
        <style>
            .cls-2{fill:#73b0f7}.cls-3{fill:#b6cdce}.cls-4{fill:#fff}.cls-6{fill:none}.cls-8{fill:#333}.cls-9{fill:#a67c52}.cls-10{fill:#f0b185}.cls-14{fill:#e6e6e6}.cls-15{fill:#ccc}.cls-16{fill:#d8e8ea}
        </style>
    </defs>
    <g id="img_4_3" transform="translate(-1152 -2578)">
        <circle id="Ellipse_533" cx="65" cy="65" r="65" fill="#9fccff" transform="translate(1152 2578)"/>
        <g id="Group_1502" transform="translate(337.28 2464.186)">
            <g id="Group_1499" transform="translate(824.981 163.755)">
                <path id="Path_2077" d="M861.513 299.913l-30.481-17.863-4.843 2.125c-1.644.7-1.605 2.087.085 3.077l34.811 20.4a7.644 7.644 0 0 0 6.06.524l65.669-28.823c1.643-.7 1.605-2.087-.085-3.078l-4.33-2.538-60.826 26.7a7.642 7.642 0 0 1-6.06-.524z" class="cls-2" transform="translate(-824.981 -243.901)"/>
                <path id="Path_2078" d="M934.985 229.591l-.025.005a2.338 2.338 0 0 0-1.275-1.5l-34.811-20.4a7.645 7.645 0 0 0-6.061-.525L827.145 236c-.813.348-1.213.862-1.207 1.413h-.006v3.264h.006c-.017.577.413 1.2 1.292 1.712l4.33 2.538 30.481 17.862a7.642 7.642 0 0 0 6.061.525l60.826-26.7 4.843-2.125c.928-.4 1.319-1.01 1.181-1.647l.035.02zm-108.611 7.814c.008-.386.35-.743.96-1L893 207.578a5.88 5.88 0 0 1 2.536-.36 7.144 7.144 0 0 1 3.129.855l34.811 20.4c.673.395 1.069.878 1.06 1.293-.008.386-.349.743-.959 1l-65.669 28.823a5.869 5.869 0 0 1-2.536.36 7.139 7.139 0 0 1-3.129-.855l-34.811-20.4c-.67-.394-1.066-.873-1.058-1.289z" class="cls-3" transform="translate(-825.508 -206.769)"/>
                <path id="Path_2079" d="M1011.174 229.763l2.422 1.375-4.95-2.812z" class="cls-3" transform="translate(-926.816 -218.722)"/>
                <path id="Path_2080" d="M827.985 239.244l34.811 20.4a7.139 7.139 0 0 0 3.129.855 5.869 5.869 0 0 0 2.536-.36l65.669-28.823c.61-.261.951-.618.959-1 .009-.415-.387-.9-1.06-1.293l-34.811-20.4a7.144 7.144 0 0 0-3.13-.855 5.881 5.881 0 0 0-2.536.36l-65.669 28.824c-.61.261-.951.618-.96 1-.007.414.389.898 1.062 1.292zm79.709-22.96a1.6 1.6 0 0 1 1.231.176l4.938 2.817c.393.224.483.509.2.633a1.6 1.6 0 0 1-1.224-.179l-2.422-1.375-2.528-1.436c-.389-.22-.48-.51-.195-.636zm19.622 14.776l-56.268 24.74-33.983-20.043 56.142-24.687z" class="cls-4" transform="translate(-826.058 -207.314)"/>
                <path id="Path_2081" d="M849.686 239.886l33.983 20.043 56.267-24.74-34.108-19.989z" class="cls-2" transform="translate(-838.679 -211.443)"/>
                <path id="Path_2082" fill="#939598" d="M1008.2 227.461l4.95 2.812a1.605 1.605 0 0 0 1.224.179c.281-.124.191-.409-.2-.633L1009.23 227a1.6 1.6 0 0 0-1.231-.176c-.285.129-.199.415.201.637z" transform="translate(-926.364 -217.856)"/>
            </g>
            <g id="Group_1500" transform="translate(861.932 160.199)">
                <path id="Path_2083" d="M922.23 208.557l-.331 1.282a.162.162 0 0 1-.005.036l.04.1.108.025 1.483.4.026.009c.553.12 1.412.616 1.668.6l-2.29-3.481a1.674 1.674 0 0 1-.07.575.72.72 0 0 1-.629.454z" class="cls-6" transform="translate(-915.666 -203.631)"/>
                <path id="Path_2084" d="M921.707 201.794c-.052-.052-.313-.342-.313-.342-.057-.041-.1-.074-.136-.106 0 .033-.009.064-.014.1.218.173.437.385.463.348z" class="cls-6" transform="translate(-915.306 -200.206)"/>
                <path id="Path_2085" d="M917.559 272.01a2.178 2.178 0 0 1 .857.05c.085-2.1.28-7.06.244-7.422-.025-.267-.347-3.956-.62-7.325H917.835l-.31 6.388s-.819 7.122-.964 8.112a.871.871 0 0 1-.045.143l-.025.27c.369-.072.775-.171 1.068-.216z" class="cls-6" transform="translate(-912.669 -231.236)"/>
                <path id="Path_2086" fill="#754c24" d="M916.482 203.749a2.092 2.092 0 0 0 .4-1.178c-.2-.264-.549-.8-.254-.965a.3.3 0 0 1 .373.051l.007.008a.555.555 0 0 1 .043.045c.084.061.082-.142.081-.181a.793.793 0 0 0-.014-.087c-.189-.057-.466-.092-.5-.176-.062-.157.215-.164.335-.149.033 0 .056.005.082.007-.05-.138-.119-.3-.2-.485-.265-.209-.516-.4-.433-.527.059-.057.271.11.456.252l.025-.083c-.214-.174-.466-.381-.385-.446.064-.087.251.038.439.19 0-.032.01-.063.014-.1-.146-.124-.141-.176-.09-.224.021-.02.061-.011.106.008a2.33 2.33 0 0 0-.017-.382c-.082-.616-.523-.621-.815-.442s-1.017.659-1.3.825a2.807 2.807 0 0 0-.841.7 1.833 1.833 0 0 0 .141 2.67 3.9 3.9 0 0 0 1.278.818h.021a1.841 1.841 0 0 0 1.048-.149z" transform="translate(-910.996 -198.786)"/>
                <path id="Path_2087" d="M921.666 293.582a1 1 0 0 1-.614-.187 3.171 3.171 0 0 0-.08.941c.054.625.762.445 1.291.29a4.832 4.832 0 0 0 1.968-.7c.45-.441.482-.8-.249-1a8.978 8.978 0 0 0-1.674.18l-.012.135a.742.742 0 0 1-.63.341z" class="cls-8" transform="translate(-915.151 -250.977)"/>
                <path id="Path_2088" d="M915.89 290.275c-.294.045-.7.143-1.07.214l-.041.446a.743.743 0 0 1-.628.339.941.941 0 0 1-.645-.213 5.042 5.042 0 0 0-.026.559c.017.741.749.547 1.272.364a9.718 9.718 0 0 0 1.959-.774c0-.113.018-.431.036-.885a2.178 2.178 0 0 0-.857-.05z" class="cls-8" transform="translate(-911 -249.501)"/>
                <path id="Path_2089" d="M914.8 290.893l.041-.446.025-.27c-.105.257-.431.73-1.321.3l-.026.535.007.005a.941.941 0 0 0 .645.213.743.743 0 0 0 .629-.337z" class="cls-9" transform="translate(-911.025 -249.458)"/>
                <path id="Path_2090" d="M910.967 247.579a.737.737 0 0 1-.453-.169 3.226 3.226 0 0 0 .134.843 5.027 5.027 0 0 0 .088.519c.087.352.144.474.221.487.109-.026.055-.19-.027-.477-.009-.1-.009-.263.016-.274l.091.452c.056.159.121.376.2.42l-.02-.249a7.043 7.043 0 0 1-.25-1.552z" class="cls-10" transform="translate(-909.357 -225.746)"/>
                <path id="Path_2091" fill="#88bc35" d="M909.517 229.795a1.6 1.6 0 0 1-.156-.272l.289-4.6-.656-8.688v-.184c-.276 1.787-1.083 7.091-1.083 7.836 0 .9 1.035 6.008 1.035 6.008a.647.647 0 0 0 .122.127.737.737 0 0 0 .453.169c-.001-.151-.004-.291-.004-.396z" transform="translate(-907.916 -208.36)"/>
                <path id="Path_2092" d="M921.1 292.347l-.026.534a.463.463 0 0 0 .037.032 1 1 0 0 0 .614.187.742.742 0 0 0 .628-.339l.012-.135.054-.58c-.101.254-.427.73-1.319.301z" class="cls-9" transform="translate(-915.213 -250.495)"/>
                <path id="Path_2093" fill="#394656" d="M917.29 248.752a3.609 3.609 0 0 1-1.15.17 8.821 8.821 0 0 1-3.506-1.012 2.123 2.123 0 0 1-.882-.689c-.052-.061-.151-.19-.243-.325 0 .11 0 .245.009.4a7.036 7.036 0 0 0 .246 1.553l.02.249c.289 3.681.719 8.624.749 8.935.046.46-.282 8.358-.282 8.358.063.036.122.065.18.093.89.429 1.216-.044 1.321-.3a.871.871 0 0 0 .045-.143c.146-.99.964-8.112.964-8.112l.31-6.388H915.276c.273 3.369.594 7.058.62 7.325.036.362-.159 5.318-.244 7.422l-.036.885v.051c.064.036.123.065.181.093.89.429 1.216-.044 1.321-.3a.876.876 0 0 0 .045-.143c.146-.99.965-8.112.965-8.112l.425-8.788a6.486 6.486 0 0 0 .3-1.872 3.278 3.278 0 0 0 0-.349 2.7 2.7 0 0 1-1.563.999z" transform="translate(-909.909 -225.461)"/>
                <path id="Path_2094" d="M917.948 206.233c.957.213 1.26.052 1.357-.077l.08.019-.04-.1a.162.162 0 0 0 .005-.036l.331-1.282a.72.72 0 0 0 .629-.458 1.679 1.679 0 0 0 .07-.575l-.412-.626a.826.826 0 0 1 .881-.946 2.7 2.7 0 0 0-.71-.823 5.183 5.183 0 0 0-.369-.378c-.274-.24-.391-.307-.462-.273-.074.082.064.187.3.376.067.081.158.212.144.234l-.334-.319a2.171 2.171 0 0 0-.328-.213c-.045-.019-.085-.029-.106-.008-.052.048-.057.1.089.224.036.031.079.065.136.106 0 0 .261.29.313.342-.026.037-.245-.175-.463-.351-.188-.151-.375-.277-.439-.19-.081.065.172.272.385.446-.008.029-.016.057-.025.083-.185-.142-.4-.31-.456-.252-.083.131.168.319.433.527.08.185.149.347.2.485-.027 0-.05 0-.083-.007-.12-.015-.4-.008-.335.149.034.083.311.119.5.176a.793.793 0 0 1 .014.087c0 .04 0 .242-.081.181a.582.582 0 0 0-.043-.045l-.007-.008a.3.3 0 0 0-.373-.051c-.295.162.056.7.254.965a2.091 2.091 0 0 1-.4 1.178 1.839 1.839 0 0 1-1.054.157l-.251.678h.014c-.012.031-.103.44.636.605z" class="cls-10" transform="translate(-913.118 -199.83)"/>
                <path id="Path_2095" fill="#8cc63f" d="M917.177 204a1.223 1.223 0 0 0-.188-.007.826.826 0 0 0-.881.946l.412.626 2.29 3.481c-.256.02-1.114-.476-1.668-.6l-.026-.009-1.483-.4-.108-.025-.08-.019c-.1.129-.4.29-1.357.077-.74-.164-.644-.573-.636-.6h-.014c-.075-.025-.145-.049-.206-.073a3.366 3.366 0 0 0-2.246.04c-.527.312-.626 1.475-.645 1.928v.184l.656 8.688-.289 4.6a1.6 1.6 0 0 0 .156.272c.091.135.191.263.243.325a2.123 2.123 0 0 0 .882.689 8.821 8.821 0 0 0 3.506 1.012 3.61 3.61 0 0 0 1.15-.17 2.7 2.7 0 0 0 1.569-1c.056-.072.112-.14.167-.224a23.511 23.511 0 0 1-.236-3.78c.069-1.777.815-6.873.815-6.873.052-.443.091-.838.115-1.2a7.323 7.323 0 0 0 1.477-.826c.979-.7 1.016-1.007 1.118-1.415.197-.816-4.493-5.647-4.493-5.647z" transform="translate(-909.258 -201.674)"/>
            </g>
            <g id="Group_1501" transform="translate(873.85 129.191)">
                <path id="Path_2096" d="M967.946 256.832c-4.31 0-7.955-1.5-9.16-3.572a2.937 2.937 0 0 0-.425 1.493c0 2.8 4.291 5.067 9.585 5.067s9.585-2.268 9.585-5.067a2.947 2.947 0 0 0-.425-1.493c-1.206 2.069-4.85 3.572-9.16 3.572z" class="cls-14" transform="translate(-947.803 -197.982)"/>
                <path id="Path_2097" d="M968.474 255.805c-4.089 0-7.57-1.356-8.947-3.261-.076.1-.15.211-.213.319 1.205 2.069 4.85 3.572 9.16 3.572s7.955-1.5 9.161-3.572c-.063-.108-.137-.214-.213-.319-1.377 1.906-4.859 3.261-8.948 3.261z" class="cls-15" transform="translate(-948.331 -197.585)"/>
                <path id="Path_2098" d="M967.946 248.712c-4.31 0-7.955-1.5-9.16-3.572a2.937 2.937 0 0 0-.425 1.493 3.074 3.074 0 0 0 .638 1.805c1.377 1.906 4.858 3.261 8.947 3.261s7.571-1.356 8.948-3.261a3.074 3.074 0 0 0 .638-1.805 2.947 2.947 0 0 0-.425-1.493c-1.207 2.069-4.851 3.572-9.161 3.572z" class="cls-14" transform="translate(-947.803 -193.48)"/>
                <path id="Path_2099" d="M968.474 247.706c-4.094 0-7.577-1.359-8.951-3.268-.074.1-.147.206-.208.313 1.205 2.069 4.85 3.572 9.16 3.572s7.955-1.5 9.161-3.572c-.062-.106-.134-.21-.209-.313-1.375 1.909-4.86 3.268-8.953 3.268z" class="cls-15" transform="translate(-948.331 -193.09)"/>
                <path id="Path_2100" d="M976.254 235.135l-.025.123-.085.092c-.071.076-.153.147-.232.219-.046.043-.09.088-.138.13l-.018.017a2.031 2.031 0 0 1-.249.436l-.048.066a2.553 2.553 0 0 1-.169.2c-.041.045-.082.089-.127.133s-.072.064-.108.1c-1.289 1.145-4.025 1.938-7.2 1.938-4.414 0-7.992-1.526-7.993-3.407l-.063-.238-.089-.326a3.508 3.508 0 0 0-1.346 2.579 3.07 3.07 0 0 0 .633 1.8c1.374 1.909 4.858 3.268 8.951 3.268s7.578-1.359 8.952-3.268a3.07 3.07 0 0 0 .633-1.8 3.413 3.413 0 0 0-1.193-2.446c-.027.121-.049.221-.062.286z" class="cls-14" transform="translate(-947.803 -187.642)"/>
                <path id="Path_2101" d="M974.981 150.349a19.158 19.158 0 0 0-38.317 0 19.743 19.743 0 0 0 5.621 13.557 20.628 20.628 0 0 1 3.311 5.135l.031-.014 8.61-3.779a7.645 7.645 0 0 1 6.061.525l5.76 3.375a18.128 18.128 0 0 1 3.652-5.6 18.145 18.145 0 0 0 5.271-13.199zm-14.072-14.231a1.293 1.293 0 0 1 1.827-.715c1.983.608 4.688 3.312 4.688 3.312 5 4.924 5.556 12.332 5.556 12.332a55.242 55.242 0 0 0-5.48-8.577c-3.177-3.97-7.227-5.001-6.591-6.351z" class="cls-16" transform="translate(-935.773 -130.3)"/>
                <path id="Path_2102" d="M974.763 149.241a20.049 20.049 0 1 0-40.1 0 20.637 20.637 0 0 0 5.864 14.168c1.935 2.047 3.518 5.432 4.587 8.292.537 1.431.949 2.731 1.227 3.672.09.3.164.566.226.787l.089.326.063.238c0 1.881 3.58 3.407 7.994 3.407 3.177 0 5.913-.793 7.2-1.938.036-.032.074-.063.108-.1s.086-.088.127-.133a2.553 2.553 0 0 0 .169-.2l.048-.066a2.032 2.032 0 0 0 .249-.436l.018-.017c.049-.042.092-.087.138-.13.079-.072.161-.143.232-.219l.085-.092.025-.123.022-.105.062-.286.008-.038c.109-.48.314-1.338.618-2.4.257-.9.582-1.943.982-3.042.227-.628.48-1.272.757-1.914l.173-.4-.016-.009a17.438 17.438 0 0 1 3.495-5.408 19.03 19.03 0 0 0 5.55-13.834zm-9.8 18.807c-.059.131-.117.263-.173.4l-5.808-3.4a7.136 7.136 0 0 0-3.129-.855 5.877 5.877 0 0 0-2.536.359l-8.61 3.78c-.063-.135-.125-.27-.19-.4l-.031.014a20.626 20.626 0 0 0-3.311-5.135 19.743 19.743 0 0 1-5.621-13.557 19.158 19.158 0 0 1 38.317 0 18.146 18.146 0 0 1-5.272 13.2 18.128 18.128 0 0 0-3.652 5.6zm-1.931 5.339c-.285.98-.492 1.807-.622 2.36-.97-1.416-4.034-2.453-7.669-2.453-3.365 0-6.239.888-7.418 2.143-.279-.97-.732-2.434-1.346-4.07-.085-.225-.173-.454-.264-.684l7.258-3.192z" class="cls-4" transform="translate(-934.664 -129.191)"/>
                <path id="Path_2103" d="M997.512 143.773s-2.7-2.7-4.688-3.312a1.294 1.294 0 0 0-1.827.715c-.635 1.35 3.415 2.382 6.591 6.353a55.242 55.242 0 0 1 5.48 8.577s-.553-7.406-5.556-12.333z" class="cls-16" transform="translate(-965.862 -135.357)"/>
                <path id="Path_2104" fill="url(#linear-gradient)" d="M997.512 143.773s-2.7-2.7-4.688-3.312a1.294 1.294 0 0 0-1.827.715c-.635 1.35 3.415 2.382 6.591 6.353a55.242 55.242 0 0 1 5.48 8.577s-.553-7.406-5.556-12.333z" transform="translate(-965.862 -135.357)"/>
                <path id="Path_2105" fill="#e4f7f9" d="M965.391 207.127l-8.61 3.779c.065.135.127.27.19.4l8.61-3.78a5.876 5.876 0 0 1 2.536-.359 7.136 7.136 0 0 1 3.129.855l5.808 3.4q.085-.2.173-.4l-.015-.009-5.76-3.375a7.645 7.645 0 0 0-6.061-.511z" transform="translate(-946.927 -172.179)"/>
                <path id="Path_2106" fill="#d0e7f7" d="M959.465 218.345c.09.23.179.459.264.684.614 1.636 1.067 3.1 1.346 4.07 1.179-1.255 4.054-2.143 7.418-2.143 3.635 0 6.7 1.036 7.669 2.453.13-.553.337-1.38.622-2.36l-10.06-5.9z" transform="translate(-948.415 -176.853)"/>
            </g>
        </g>
    </g>
</svg>
