<svg xmlns="http://www.w3.org/2000/svg" xmlns:xlink="http://www.w3.org/1999/xlink" width="218.314" height="226.344" viewBox="0 0 218.314 226.344">
    <defs>
        <radialGradient id="radial-gradient" cx="1.338" cy="-.003" r=".351" gradientTransform="matrix(-6.678 0 0 1 7.085 0)" gradientUnits="objectBoundingBox">
            <stop offset=".402" stop-color="#ff8d62"/>
            <stop offset="1" stop-color="#ffb894"/>
        </radialGradient>
        <radialGradient id="radial-gradient-2" cx="1.644" cy="-.075" r=".594" gradientTransform="matrix(-5.447 0 0 1 19.318 0)" xlink:href="#radial-gradient"/>
        <radialGradient id="radial-gradient-3" cx="1.029" cy=".287" r=".198" gradientTransform="matrix(5.412 .086 -.466 .996 -21.089 -.416)" xlink:href="#radial-gradient"/>
        <radialGradient id="radial-gradient-4" cx="1.922" cy=".266" r=".394" gradientTransform="matrix(7.04 0 0 1 -26.164 0)" xlink:href="#radial-gradient"/>
        <radialGradient id="radial-gradient-5" cx=".753" cy=".136" r=".177" gradientTransform="matrix(-6.29 0 0 1 54.217 0)" xlink:href="#radial-gradient"/>
        <radialGradient id="radial-gradient-6" cx="1.596" cy=".092" r=".189" gradientTransform="matrix(-6.063 0 0 1 28.283 0)" xlink:href="#radial-gradient"/>
        <linearGradient id="linear-gradient" x1=".352" x2=".542" y1=".772" y2=".422" gradientUnits="objectBoundingBox">
            <stop offset="0" stop-color="#f4eee1"/>
            <stop offset="1" stop-color="#8bdb9f"/>
        </linearGradient>
        <linearGradient id="linear-gradient-2" x1=".325" x2=".523" y1=".719" y2=".472" gradientUnits="objectBoundingBox">
            <stop offset="0" stop-color="#f4eee1"/>
            <stop offset="1" stop-color="#9ff"/>
        </linearGradient>
        <style>
            .cls-2{opacity:.8}.cls-2,.cls-4,.cls-47,.cls-49{fill:#fff}.cls-5{fill:#ffe780}.cls-6{fill:#00eae4}.cls-7{fill:#999}.cls-13{fill:#f66524}.cls-19{fill:#0c0c0c;opacity:.2}.cls-20{fill:#3d0f0f}.cls-22{fill:#ffb894}.cls-23{fill:#583d23}.cls-24,.cls-25,.cls-27,.cls-39,.cls-40,.cls-59,.cls-60{fill:none}.cls-24{stroke:#583d23}.cls-24,.cls-27,.cls-40,.cls-59,.cls-60{stroke-width:.25px}.cls-25{stroke:#b7663d}.cls-25,.cls-39,.cls-47,.cls-49{stroke-width:.15px}.cls-26{fill:#ff9566}.cls-27{stroke:#493223;stroke-linecap:round}.cls-29{opacity:.1}.cls-30{fill:#444}.cls-32{fill:#8d5623}.cls-33{fill:#f66}.cls-34{fill:#de6666}.cls-38{fill:#fac09d}.cls-39,.cls-47{stroke:#d41e30}.cls-40{stroke:#8d5623}.cls-41{fill:#101114;opacity:.15}.cls-44{fill:#814c23}.cls-45{fill:#ccaecc}.cls-49{stroke:#d45130}.cls-50{fill:#0e0f0f}.cls-52{fill:#728b53}.cls-53{fill:#f69292}.cls-56{fill:#623f23}.cls-59{stroke:#623f23}.cls-60{stroke:#fff}.cls-62{fill:#c06230}.cls-63{fill:#815d23}.cls-65{fill:#8bc0a9}.cls-68{fill:#7299ae}.cls-69{fill:#584c49}
        </style>
    </defs>
    <g id="img_2" transform="translate(-346 -1621)">
        <g id="Group_1548" transform="translate(18.637 1434.533)">
            <g id="Group_1538">
                <path id="Path_2289" fill="url(#linear-gradient)" d="M526.69 235.516v71.354l-67.559-38.787v-71.354z" opacity="0.8"/>
                <path id="Path_2290" d="M459.346 197.116l67.344 38.4v71.354l1.926-.725-.12-71.487-67.012-38.61z" class="cls-2"/>
            </g>
            <g id="Group_1547">
                <g id="Group_1539">
                    <path id="Path_2291" fill="url(#linear-gradient-2)" d="M506.967 261.6v135.826l-128.6-73.833v-135.83z" opacity="0.5"/>
                    <path id="Path_2292" d="M378.773 188.5l128.193 73.1v135.826l3.666-1.38-.232-136.082-127.562-73.5z" class="cls-2"/>
                </g>
                <path id="Path_2293" d="M395.324 219.71l56.529 32.39-.209 6.926-56.57-32.511z" class="cls-4"/>
                <path id="Path_2294" d="M394.638 241.522l14.022 8.051-.088 2.925-14.039-8.1z" class="cls-4"/>
                <path id="Path_2295" d="M412.237 251.646l14.021 8.049-.089 2.927-14.038-8.1z" class="cls-4"/>
                <path id="Path_2296" d="M429.836 261.77l9.833 5.578-.089 2.926-9.85-5.631z" class="cls-4"/>
                <path id="Path_2297" d="M457.071 255.037l17.809 10.233-.209 6.928-17.85-10.353z" class="cls-4"/>
                <path id="Path_2298" d="M457.357 273.242l31.743 17.914.075 38.788-31.787-18.034z" class="cls-5"/>
                <path id="Path_2299" d="M476.556 262.409c.576 1.155 1.662 1.782 2.42 1.4s.911-1.624.333-2.778-1.661-1.784-2.421-1.4-.908 1.622-.332 2.778z" class="cls-6"/>
                <path id="Path_2300" d="M390.276 213.857c.578 1.155 1.662 1.783 2.422 1.4s.91-1.624.332-2.778-1.659-1.783-2.42-1.4-.91 1.621-.334 2.778z" class="cls-6"/>
                <g id="Group_1540">
                    <path id="Path_2301" d="M429.708 275.752c.223.387.608.585.865.438s.282-.579.063-.968-.613-.585-.868-.439-.286.579-.06.969z" class="cls-7"/>
                    <path id="Path_2302" d="M425.587 273.534c.223.389.609.587.867.44s.282-.58.062-.97-.609-.585-.868-.438-.282.58-.061.968z" class="cls-7"/>
                    <path id="Path_2303" d="M421.469 271.317c.221.39.609.586.866.44s.284-.579.061-.969-.61-.585-.864-.439-.286.582-.063.968z" class="cls-7"/>
                    <path id="Path_2304" d="M417.35 269.1c.222.388.609.586.865.44s.284-.581.063-.968-.61-.588-.867-.442-.283.583-.061.97z" class="cls-7"/>
                    <path id="Path_2305" d="M413.229 266.885c.225.388.61.585.868.438s.282-.579.06-.967-.609-.587-.866-.441-.281.58-.062.97z" class="cls-7"/>
                    <path id="Path_2306" d="M409.111 264.667c.224.389.611.586.866.439s.284-.581.062-.968-.609-.585-.866-.441-.283.581-.062.97z" class="cls-7"/>
                    <path id="Path_2307" d="M404.992 262.449c.224.388.61.587.866.441s.284-.58.061-.969-.609-.587-.864-.441-.285.582-.063.969z" class="cls-7"/>
                </g>
                <g id="Group_1541">
                    <path id="Path_2308" d="M429.8 281.409c.22.389.609.584.864.439s.284-.581.062-.969-.609-.586-.866-.441-.284.582-.06.971z" class="cls-7"/>
                    <path id="Path_2309" d="M425.678 279.191c.221.388.61.586.867.439s.283-.58.061-.968-.607-.586-.866-.441-.282.579-.062.97z" class="cls-7"/>
                    <path id="Path_2310" d="M421.56 276.975c.223.388.609.585.865.437s.284-.579.061-.968-.609-.584-.866-.439-.283.58-.06.97z" class="cls-7"/>
                    <path id="Path_2311" d="M417.442 274.756c.222.391.609.587.863.44s.286-.58.064-.969-.61-.586-.868-.437-.28.578-.059.966z" class="cls-7"/>
                    <path id="Path_2312" d="M413.322 272.54c.222.389.609.586.864.44s.285-.582.063-.969-.609-.586-.864-.44-.285.58-.063.969z" class="cls-7"/>
                    <path id="Path_2313" d="M409.2 270.322c.224.389.61.587.867.44s.282-.579.062-.968-.612-.585-.865-.439-.283.58-.064.967z" class="cls-7"/>
                    <path id="Path_2314" d="M405.083 268.107c.223.39.61.584.867.438s.283-.581.06-.969-.609-.585-.865-.438-.284.58-.062.969z" class="cls-7"/>
                    <path id="Path_2315" d="M400.965 265.891c.222.387.609.584.865.438s.284-.582.062-.969-.609-.585-.866-.439-.283.579-.061.97z" class="cls-7"/>
                    <path id="Path_2316" d="M396.847 263.672c.223.389.607.586.866.439s.283-.581.061-.968-.61-.584-.866-.441-.284.583-.061.97z" class="cls-7"/>
                </g>
                <g id="Group_1542">
                    <path id="Path_2317" d="M429.89 287.064c.22.39.608.585.865.44s.282-.582.061-.969-.609-.587-.866-.439-.284.58-.06.968z" class="cls-7"/>
                    <path id="Path_2318" d="M425.77 284.847c.222.387.61.586.866.44s.284-.582.063-.969-.609-.587-.868-.441-.282.582-.061.97z" class="cls-7"/>
                    <path id="Path_2319" d="M421.65 282.629c.222.389.612.587.865.44s.287-.58.064-.968-.611-.586-.867-.44-.282.581-.062.968z" class="cls-7"/>
                    <path id="Path_2320" d="M417.532 280.414c.223.388.61.585.865.438s.283-.58.064-.968-.612-.585-.867-.44-.284.58-.062.97z" class="cls-7"/>
                    <path id="Path_2321" d="M413.412 278.2c.225.389.61.585.868.439s.282-.581.06-.969-.609-.586-.865-.44-.285.577-.063.97z" class="cls-7"/>
                    <path id="Path_2322" d="M409.294 275.98c.222.388.609.585.865.439s.284-.58.062-.969-.609-.585-.866-.441-.283.583-.061.971z" class="cls-7"/>
                </g>
                <g id="Group_1543">
                    <path id="Path_2323" d="M429.98 292.72c.221.387.611.586.867.44s.282-.581.059-.97-.607-.584-.867-.441-.281.581-.059.971z" class="cls-7"/>
                    <path id="Path_2324" d="M425.861 290.5c.224.391.61.586.865.44s.286-.58.062-.969-.608-.586-.864-.441-.285.583-.063.97z" class="cls-7"/>
                    <path id="Path_2325" d="M421.744 288.285c.22.39.608.586.864.44s.285-.579.063-.969-.612-.586-.867-.441-.285.585-.06.97z" class="cls-7"/>
                    <path id="Path_2326" d="M417.624 286.07c.22.388.608.585.862.438s.284-.58.065-.968-.61-.586-.866-.441-.285.581-.061.971z" class="cls-7"/>
                    <path id="Path_2327" d="M413.5 283.852c.223.389.609.586.866.439s.283-.58.062-.967-.61-.588-.866-.44-.279.579-.062.968z" class="cls-7"/>
                    <path id="Path_2328" d="M409.384 281.634c.222.39.61.587.868.44s.282-.581.06-.967-.609-.587-.866-.44-.283.58-.062.967z" class="cls-7"/>
                    <path id="Path_2329" d="M405.266 279.418c.224.388.611.586.865.439s.285-.581.06-.969-.608-.585-.863-.44-.284.582-.062.97z" class="cls-7"/>
                    <path id="Path_2330" d="M401.148 277.2c.221.388.61.587.865.44s.285-.58.062-.969-.61-.586-.867-.44-.281.581-.06.969z" class="cls-7"/>
                </g>
                <g id="Group_1545">
                    <g id="Group_1544">
                        <path id="Path_2331" fill="#efbb48" d="M493.664 357.478v3.836l-3.48-2.252v-3.834z"/>
                        <path id="Path_2332" fill="#fcf" d="M487.682 354.127v3.834l-3.481-2.249v-3.836z"/>
                        <path id="Path_2333" d="M481.517 350.417v3.835L478.038 352v-3.836z" class="cls-7"/>
                        <path id="Path_2334" fill="#a4a9d4" d="M493.664 350.134v3.834l-3.48-2.253v-3.833z"/>
                        <path id="Path_2335" fill="#ff7c9f" d="M487.862 346.6v3.833l-3.48-2.251v-3.833z"/>
                        <path id="Path_2336" fill="#817447" d="M481.878 342.709v3.836l-3.478-2.252v-3.833z"/>
                        <path id="Path_2337" d="M493.664 365.245v3.833l-3.48-2.252v-3.834z" class="cls-13"/>
                        <path id="Path_2338" fill="#66a7de" d="M488.044 362.075v3.836l-3.483-2.252v-3.836z"/>
                    </g>
                    <path id="Path_2339" fill="#44c09f" d="M481.532 358.006v3.906l-3.308-2.294v-3.9z"/>
                </g>
                <g id="Group_1546">
                    <path id="Exclusion_2" fill="#6fcded" d="M476.9 315c-4.1 0-8.7-3.442-11.454-8.564a17.857 17.857 0 0 1-2.269-9.822c.276-3.1 1.6-5.434 3.732-6.58a6.333 6.333 0 0 1 3.035-.741c4.1 0 8.7 3.442 11.452 8.564a17.843 17.843 0 0 1 2.271 9.821c-.276 3.1-1.6 5.434-3.731 6.58a6.33 6.33 0 0 1-3.036.742zm-6.6-19.489a2.373 2.373 0 0 0-1.137.275c-1.966 1.057-1.972 4.882-.013 8.525 1.572 2.923 4.032 4.964 5.982 4.964a2.372 2.372 0 0 0 1.138-.275c.953-.512 1.479-1.68 1.482-3.29a11.387 11.387 0 0 0-1.468-5.234c-1.573-2.922-4.033-4.964-5.983-4.964z"/>
                    <path id="Path_2342" d="M474.962 290.835a15.1 15.1 0 0 1 4.362 3.91l-4.362 3.738a10.456 10.456 0 0 0-2.266-2.152z" class="cls-13"/>
                    <path id="Path_2343" fill="#70db9f" d="M479.324 294.745l-4.362 3.738s4.482 5.849 2.006 9.955l5.8 2.7s3.714-6.871-3.444-16.393z"/>
                    <path id="Path_2344" d="M474.962 290.835l-2.266 5.5s-.876-.5-1.007-.536l1.336-5.9a7.772 7.772 0 0 1 1.937.936z" class="cls-4"/>
                </g>
                <path id="Path_2345" d="M478.165 307.577L496.63 318l.044 22.561-18.489-10.489z" class="cls-4"/>
            </g>
        </g>
        <g id="Group_1550" transform="translate(34.929 1452.698)">
            <g id="Group_1531">
                <path id="Path_2239" fill="#f4f4f4" d="M439.743 332.895s2.874 1.735 3.532 3.352c0 0 2.1 8.681.419 15.386z"/>
                <path id="Path_2240" d="M449.961 377.827c0 1.953-5.389 3.539-12.036 3.539s-12.037-1.586-12.037-3.539 5.389-3.54 12.037-3.54 12.036 1.585 12.036 3.54z" class="cls-19"/>
                <path id="Path_2241" d="M440.236 376.472s-.138 1.166.109 1.269c6.411 2.684 7.031.368 2.014-1.387z" class="cls-20"/>
                <path id="Path_2242" d="M429.852 373.769s-.685.952-.519 1.164c4.314 5.447 5.977 3.718 2.435-.243z" class="cls-20"/>
                <path id="Path_2243" fill="#ff9766" d="M443.155 350.316s-5.867 1.078-9.219-.12l.12 14.248-4.43 8.98s1.556 2.036 3.232 1.677c0 0 4.79-9.459 5.029-10.057l.839-10.3s.837-.838.837.12l1.318 9.937-.958 11.615s2.514 1.2 3.593.479c0 0 1.436-11.734 1.436-12.094s-1.003-11.937-1.797-14.485z"/>
                <g id="Group_1529">
                    <g id="Group_1528">
                        <g id="Group_1527">
                            <path id="Path_2244" d="M438.951 331l.476 2.136-2.3.511-.359-2.163z" class="cls-22"/>
                            <path id="Path_2245" d="M439.469 327.1c.56.064.717 2.118.422 2.765-.329.717-.609 1.523-1.35 1.827a2.176 2.176 0 0 1-2.489-.625 4.443 4.443 0 0 1-1.155-2.4 2.665 2.665 0 0 1 .378-1.534 2.209 2.209 0 0 1 1.8-1.063 2.752 2.752 0 0 1 1.969.616 2.31 2.31 0 0 1 .492.514c.093.16.087.353.181.5" class="cls-22"/>
                            <path id="Path_2246" d="M439.2 332.44l-2.454.019s-2.645.975-3.489 5.2l.564 15.136a22.436 22.436 0 0 0 10.038-.281l-1.565-14.738s.3-2.234-3.094-5.336z" class="cls-4"/>
                        </g>
                    </g>
                </g>
                <path id="Path_2247" d="M434.347 328.743a1.32 1.32 0 0 0 1.941-.525c.257-.488.137-1.262.67-1.622s.915.143 1.406.394c.792.4 1.128.584 1.8.015.364-.306.812-1.571.355-1.79-.518-.249-.616.254-1.093-.006a2.6 2.6 0 0 1-.634-.475 1.7 1.7 0 0 0-1.1-.337 4.119 4.119 0 0 0-2.634.915c-.9.607-1.921 2.5-.772 3.341" class="cls-23"/>
                <path id="Path_2248" d="M435.29 328.914a1.35 1.35 0 0 1-1.392-.109 1.728 1.728 0 0 1-.225-2.041 4.236 4.236 0 0 1 1.868-1.623" class="cls-24"/>
                <path id="Path_2249" d="M435.491 325.106c1.012-.748 2.078-1.42 3.4-.808.62.288.884.99 1.636.455" class="cls-24"/>
                <path id="Path_2250" d="M438.014 328.508c.327.005.3.529.013.579" class="cls-25"/>
                <path id="Path_2251" d="M436.508 329.712a.432.432 0 1 1 .593.152.434.434 0 0 1-.593-.152z" class="cls-26"/>
                <path id="Path_2252" d="M439.137 329.276a.432.432 0 1 1 .592.15.431.431 0 0 1-.592-.15z" class="cls-26"/>
                <path id="Path_2253" d="M435.561 329.922c-1.687.4-1.037-2.475-.057-.793" class="cls-22"/>
                <path id="Path_2254" d="M436.758 328.67s.3-.406.576-.1" class="cls-27"/>
                <path id="Path_2255" d="M438.824 328.294s.258-.355.5-.086" class="cls-27"/>
                <path id="Path_2256" d="M436.741 332.459l2.273 9.992.388-9.874z" class="cls-4"/>
                <path id="Path_2257" fill="none" stroke="#a95b30" stroke-width="0.15px" d="M437.317 329.615a1.2 1.2 0 0 0 1.683-.148"/>
                <path id="Path_2258" d="M436.29 332.835s-3.671 1.756-5.108 4.391a20.639 20.639 0 0 0 0 8.779s-.181 2.118 3.44.826c0 0 8.352-4.942 9.258-6.5l-1.623-2.377-7.815 4.469-.175-4.083s2.808-4.723 2.023-5.505z" class="cls-4"/>
                <path id="Path_2259" d="M442.238 341.919s-6.977 4.892-8.509 5.3l.245 1.248s7.883-5.708 8.264-6.548z" class="cls-29"/>
                <path id="Path_2260" d="M441.223 338.72l-7.038 3.354-.4-3.692 1.2 2.655s6.156-2.625 6.238-2.317z" class="cls-29"/>
                <g id="Group_1530">
                    <path id="Path_2261" d="M445.512 338.178a.68.68 0 0 1-.385.877.679.679 0 0 1-.878-.386l-2.136-5.484a.677.677 0 0 1 .384-.877.677.677 0 0 1 .877.384z" class="cls-30"/>
                    <path id="Exclusion_1" d="M441.4 332.859a4.023 4.023 0 1 1 3.614-4 3.827 3.827 0 0 1-3.614 4zm.205-7.357a3.452 3.452 0 1 0 2.944 3.414 3.209 3.209 0 0 0-2.949-3.416z" class="cls-30"/>
                    <path id="Path_2264" fill="#fff" d="M444.549 328.915a2.976 2.976 0 1 1-2.944-3.414 3.206 3.206 0 0 1 2.944 3.414z" opacity="0.43"/>
                </g>
                <path id="Path_2265" d="M442.5 338.342c-.108-1.107.932-1.921 1.946-2.155.271-.063 1.038-.163.9.39-.063.245-.906.388-1.113.448.261 0 1.063-.118 1.142.121.128.375-.534.48-.769.508.263 0 1.077-.148 1.129.209.043.3-.664.42-.892.45.272 0 .936-.134.892.3-.029.278-.642.3-.868.428a4.459 4.459 0 0 0-1.227 1.16" class="cls-22"/>
            </g>
            <g id="Group_1536">
                <path id="Path_2266" d="M466.255 390.664c0 2.2-4.505 3.982-10.062 3.982s-10.061-1.785-10.061-3.982 4.505-3.982 10.061-3.982 10.062 1.783 10.062 3.982z" class="cls-19"/>
                <g id="Group_1535">
                    <path id="Path_2267" d="M459.622 338.335c1.562 2.825.352 5.448.779 7.813.226 1.248.556 2.3-1.187 1.368a4.534 4.534 0 0 1-1.942-4.913 9.5 9.5 0 0 1 1.268-2.463" class="cls-32"/>
                    <path id="Path_2268" d="M460.352 347.562s2.134.992.744 13.742l-.3 1.732-.991-.587" class="cls-33"/>
                    <g id="Group_1534">
                        <g id="Group_1533">
                            <g id="Group_1532">
                                <path id="Path_2269" d="M457.267 387.507c-.548.491-.541 2.653.037 3.021a9.067 9.067 0 0 0 2.339.618 3.663 3.663 0 0 0 2.226.144c1.316-.449.4-1.911-.513-2.211a6.9 6.9 0 0 1-2.5-1.423" class="cls-34"/>
                                <path id="Path_2270" fill="url(#radial-gradient)" d="M457.363 369.31l-.083 18.755s1.8 1.895 2.107.43a2.254 2.254 0 0 0-.391-.9l1.326-18.864z"/>
                                <path id="Path_2271" d="M451.779 388.336c-.551.5-.545 2.684.042 3.056a9.225 9.225 0 0 0 2.364.622 3.686 3.686 0 0 0 2.247.148c1.335-.453.411-1.932-.515-2.237a6.983 6.983 0 0 1-2.528-1.435" class="cls-34"/>
                                <path id="Path_2272" fill="url(#radial-gradient-2)" d="M452.37 368.948l-.57 19.952s1.824 1.915 2.129.434a2.271 2.271 0 0 0-.4-.9l2.112-18.875z"/>
                                <path id="Path_2273" fill="#f99" d="M460.538 357.95l1.005 12.152a10.456 10.456 0 0 1-11.7-.812l2.854-11.14z"/>
                                <path id="Path_2274" d="M457.465 344.2l-1.651-.079s-3.184 2.1-3.294 3.944l.182 7.341-.132 3.2s5.287 2.137 7.968-.417l.162-9.951s-.412-1.63-3.235-4.038z" class="cls-33"/>
                                <path id="Path_2275" d="M459.94 339.111c0 1.439-.005 4.66-2.009 4.64 0 .416.03.843.018 1.269a2.26 2.26 0 0 1-1.714-.711c-.492-.468-.466-.67-.466-1.354 0-.644-.242-.68-.589-1.145s-.814-1.414-.561-1.988c.325-.754 1.608-1.217 2.305-1.513a3.17 3.17 0 0 1 2.769.14" class="cls-38"/>
                            </g>
                            <path id="Path_2276" d="M458.495 340.971c.311.066.19.562-.1.558" class="cls-25"/>
                            <path id="Path_2277" d="M456.938 341.545a.422.422 0 0 1 .256-.537.421.421 0 1 1 .283.792.423.423 0 0 1-.539-.255z" class="cls-26"/>
                            <path id="Path_2278" d="M458.946 341.654a.42.42 0 1 1 .539.256.422.422 0 0 1-.539-.256z" class="cls-26"/>
                            <path id="Path_2279" d="M457.511 341.957a1.1 1.1 0 0 0 1.633.045" class="cls-39"/>
                            <path id="Path_2280" d="M457.2 340.7s.33-.308.524.012" class="cls-27"/>
                            <path id="Path_2281" d="M459.214 340.723a.234.234 0 0 1 .415.053" class="cls-27"/>
                            <path id="Path_2282" d="M456.586 363.632a5.231 5.231 0 0 1 1.379 1.559c-.274.384-.643.07-.853-.241.332.592.857 1.147.718 1.85a.21.21 0 0 1-.075.032 2.321 2.321 0 0 1-.768-.957 1.425 1.425 0 0 1 .24 1.318c-.433-.217-.606-.829-.892-1.176a3.152 3.152 0 0 1 .124 1.515 1.492 1.492 0 0 1-.747-1.24c.154.347.288.775-.033.981a4.936 4.936 0 0 1-.9-2.714" class="cls-22"/>
                            <path id="Path_2283" d="M456.647 348.071s-2.918 5.044.137 15.244a2.355 2.355 0 0 1-2.1 1.31 27.9 27.9 0 0 1-2-17.255" class="cls-33"/>
                        </g>
                        <path id="Path_2284" d="M455.653 348.681a67.642 67.642 0 0 0 .155 10.7l.423.038s-.615-10.508-.578-10.738z" class="cls-29"/>
                        <path id="Path_2285" d="M461.122 352.759l-.77-5.2.692.693z" class="cls-29"/>
                    </g>
                    <path id="Path_2286" d="M459.11 338.456c-2.771 0-3.183 3.311-3.394 5.4a4.91 4.91 0 0 1-1.826 3.644c-.423.318-1.165.986-1.721.993-.722.009-1.178-.354-1.021-.9.311-1.084 1.328-2.641 1.555-3.757.239-1.174.232-2.419.585-3.569a4.069 4.069 0 0 1 4.05-3.132c1.9-.091 2.688 1.128 2.639 2.88-.438-.16-.524-1.118-.836-1.5" class="cls-32"/>
                    <path id="Path_2287" d="M456.077 340.919c0 2.724-.029 6.029-2.7 7.514" class="cls-40"/>
                    <path id="Path_2288" d="M453.433 340.2a14.251 14.251 0 0 1-1.5 4.386c-.422.99-.776 2.6-1.8 3.125" class="cls-40"/>
                </g>
            </g>
        </g>
        <g id="Group_1565" transform="translate(207.495 1344.006)">
            <path id="Path_2346" d="M181.732 453.888c0 2.429-4.562 4.4-10.188 4.4s-10.189-1.968-10.189-4.4 4.559-4.4 10.189-4.4 10.188 1.973 10.188 4.4z" class="cls-41"/>
            <path id="Path_2347" d="M158.884 448.109c0 2.43-4.563 4.4-10.188 4.4s-10.191-1.968-10.191-4.4 4.561-4.4 10.191-4.4 10.188 1.974 10.188 4.4z" class="cls-41"/>
            <g id="Group_1556">
                <g id="Group_1555">
                    <g id="Group_1554">
                        <g id="Group_1553">
                            <g id="Group_1552">
                                <g id="Group_1551">
                                    <path id="Path_2348" d="M172.251 402.043l-.251 1.694 2.684.585.212-2.146z" class="cls-22"/>
                                    <path id="Path_2349" d="M173.729 396.981a1.515 1.515 0 0 1 1.2.392 4.389 4.389 0 0 1 .458.467 4.463 4.463 0 0 0 .415.522c.144.119.361.131.5.23.188.136-.026.249-.076.4a1.109 1.109 0 0 0 .083.543 1.576 1.576 0 0 1-.112.773 3.805 3.805 0 0 1-.355 1.014 2.9 2.9 0 0 1-.5.605l-1.7 1.787-1.961-3.589.829-2.418z" class="cls-22"/>
                                    <path id="Path_2350" fill="url(#radial-gradient-3)" d="M169.41 434.4l-1.935 19.72-1.789.01.883-20.229z"/>
                                    <path id="Path_2351" fill="url(#radial-gradient-4)" d="M175.045 435.137l-.32 19.817-1.779.16-.774-20.233z"/>
                                    <path id="Path_2352" d="M172.937 454.646l.47.328 1.365-.564-.047-.609s3.236-1.7 2 .883a1.476 1.476 0 0 1-.644.589s-3.11 1.876-3.472.688c0 0-.228-.943.328-1.315z" class="cls-44"/>
                                    <path id="Path_2353" d="M165.754 453.359l.469.328 1.365-.563-.048-.609s3.237-1.7 2 .883a1.457 1.457 0 0 1-.642.588s-3.11 1.876-3.474.689c0 0-.224-.944.33-1.316z" class="cls-44"/>
                                    <path id="Path_2354" d="M175.933 421.952s-.34 9.909-.622 13.3c0 0-7.809.716-9.127-1.13 0 0-.562-12.2.873-12.644z" class="cls-4"/>
                                    <path id="Path_2355" d="M174.467 404.141l-2.619-.648s-3.63 2.542-4.045 3.84l-1.134 14.724s5.112 1.6 9.264 1.006l1.036-14.368s-.138-1.7-2.502-4.554z" class="cls-45"/>
                                </g>
                            </g>
                            <path id="Path_2356" fill="#493223" d="M174.047 396.871c-1.684 2.032-.17 5.665-.221 5.968a1.148 1.148 0 0 1-.862.7c-3.394.326-3.854-2.149-3.889-2.233-.123-.281-.3-.2-.582-.234a2.489 2.489 0 0 1-1.925-1.288 1.887 1.887 0 0 1 .382-1.464 2.433 2.433 0 0 1 1.25-.919 1.553 1.553 0 0 1 1.1 0 2.49 2.49 0 0 0 .6.177c.177-.009.268-.141.4-.261a3.416 3.416 0 0 1 .7-.571 4.04 4.04 0 0 1 1.26-.339 2.013 2.013 0 0 1 1.8.487"/>
                        </g>
                        <path id="Path_2357" d="M176.84 408.215l1.8 9.749 2.545 6.048-2.117 1.59-2.76-5.839s-.268.494-2.29-7.9z" class="cls-45"/>
                        <path id="Path_2358" d="M181.01 424.071a2.452 2.452 0 0 1 1.657 1.656c-.463-.014-.488.219-.972-.078a5.084 5.084 0 0 1 .937 1.813.949.949 0 0 1-1.105-.526c1.161 1.127-.19 1.859-.6.379a3.1 3.1 0 0 1 .513 1.066c-.5.034-.664-.085-.85-.641.093.22.128.463.211.683-.948.52-1.806-2.507-1.413-3.292" class="cls-22"/>
                        <path id="Path_2359" d="M169.039 405.826l-6.01 7.884-5 4.244 1.171 2.376 5.1-3.961s.016.559 5.613-6.018z" class="cls-45"/>
                        <path id="Path_2360" d="M158.157 418.088a2.453 2.453 0 0 0-2.226.728c.419.2.336.416.9.371a5.127 5.127 0 0 0-1.656 1.193.947.947 0 0 0 1.225.029c-1.545.48-.671 1.745.361.61a3.038 3.038 0 0 0-.94.719c.428.252.632.224 1.049-.187-.183.152-.324.353-.5.512.61.894 2.743-1.42 2.748-2.3" class="cls-22"/>
                    </g>
                    <path id="Path_2361" d="M175.581 398.768a.4.4 0 1 0-.235.509.4.4 0 0 0 .235-.509z" class="cls-26"/>
                    <path id="Path_2362" d="M175.106 398.073a.3.3 0 0 0-.432.317" class="cls-27"/>
                    <path id="Path_2363" d="M176.31 399.3s-.272.345-1.145.3c0 0 .71.71 1.182.724" class="cls-47"/>
                    <path id="Path_2364" d="M173.6 399.9c-1.193.5-1.282-1.822-.2-.615" class="cls-22"/>
                </g>
                <path id="Path_2365" d="M167.853 407.591v14.874l.494 12.714s-1.795-.394-2.163-1.061c0 0-.676-8.259.374-12.209z" class="cls-29"/>
                <path id="Path_2366" d="M176.309 419.626l-2.592-8.578-.124 12.22 2.34-.205z" class="cls-29"/>
            </g>
            <g id="Group_1564">
                <g id="Group_1557">
                    <path id="Path_2367" d="M146.421 395.205l-.137 1.729 2.823.224.051-2.12z" class="cls-22"/>
                    <path id="Path_2368" d="M150.808 390.636a1.563 1.563 0 0 1 .767 1.065 4.844 4.844 0 0 1 .1.677 4.53 4.53 0 0 0 .025.69c.046.191.217.34.276.506.075.229-.181.191-.307.285-.16.116-.2.34-.271.505a2.863 2.863 0 0 1-1.5 1.246c-.263.053-.514.128-.78.17l-1.734-.245-.232-3.535 2.189-1.514z" class="cls-22"/>
                    <path id="Path_2369" fill="#9a650c" d="M147.271 388.532a1.644 1.644 0 0 1 .718-.164 4.062 4.062 0 0 1 1.339.2 3.466 3.466 0 0 1 .989.318 2.3 2.3 0 0 1 .491.407c.162.16.324.318.48.482a1.461 1.461 0 0 1 .367.463 2.726 2.726 0 0 1 .067.606.945.945 0 0 1-.022.47c-.13.322-.457.286-.731.239a1.332 1.332 0 0 0-1 .3 1.036 1.036 0 0 0-.5.824 3.578 3.578 0 0 1-.136.966c-.119.048-.239-.227-.3-.31-.089-.116-.154-.373-.275-.45a.26.26 0 0 0-.371.129 1.148 1.148 0 0 0 0 .579 1.2 1.2 0 0 0 .28.469 1.191 1.191 0 0 1-.754 1.145 3.508 3.508 0 0 1-1.677.143c-.173-.6-.492-1.439-.73-2.023a6.311 6.311 0 0 1-.427-1.755 2.262 2.262 0 0 1 .5-1.565c.163-.217.312-.449.494-.648.136-.156.316-.268.459-.426a1.119 1.119 0 0 1 .742-.455 1 1 0 0 0 .36-.071"/>
                    <path id="Path_2370" d="M148.705 393.973c-1.388-.471.358-2.365.343-.586" class="cls-22"/>
                    <path id="Path_2371" d="M151.518 392.577s-.194-.253-.47.023" class="cls-27"/>
                    <path id="Path_2372" d="M151.194 393.394a.437.437 0 1 0-.436.438.436.436 0 0 0 .436-.438z" class="cls-26"/>
                    <path id="Path_2373" d="M151.478 394.322l-.818-.341s-.1 1.022.164 1.2" class="cls-49"/>
                </g>
                <g id="Group_1563">
                    <g id="Group_1562">
                        <g id="Group_1561">
                            <g id="Group_1560">
                                <path id="Path_2374" d="M142.517 448.125a1.276 1.276 0 0 0 1.39 1.8l.654-.081s1.063.164.492-1.961z" class="cls-50"/>
                                <path id="Path_2375" fill="#3f4735" d="M142.6 420.154l-.166 28.215s2.125.656 2.617 0l.818-24.86s.82-1.389 1.88 0l3.11 25.188s2.21.326 2.533-.736l-1.961-27.968z"/>
                                <path id="Path_2376" d="M151.107 448.533c-.091 2.714 2.859 1.555 4.278 1.163.324-.09.953-.19 1.019-.669.081-.571-.623-.607-1.019-.662a10.831 10.831 0 0 1-2.434-.321" class="cls-50"/>
                                <g id="Group_1559">
                                    <g id="Group_1558">
                                        <path id="Path_2377" d="M149.137 397.2l-2.737-.417s-4.085 1.983-3.9 4.6l-.462 20.519a49.065 49.065 0 0 0 9.922-.64l.514-18.363s-.232-2.156-3.337-5.699z" class="cls-52"/>
                                    </g>
                                </g>
                            </g>
                        </g>
                    </g>
                    <path id="Path_2378" d="M152.134 401.944l1.913 10.35 2.251 4.841-2.251 1.685-2.475-4.613s-.287.523-2.433-8.392z" class="cls-52"/>
                    <path id="Path_2379" d="M156.109 417.2a2.6 2.6 0 0 1 1.759 1.757c-.492-.014-.518.234-1.032-.081a5.4 5.4 0 0 1 1 1.925 1.008 1.008 0 0 1-1.174-.562c1.233 1.2-.2 1.976-.634.408a3.249 3.249 0 0 1 .546 1.128c-.528.037-.706-.089-.906-.681.1.231.138.492.227.725-1.009.555-1.918-2.662-1.5-3.494" class="cls-38"/>
                </g>
                <path id="Path_2380" d="M144.245 404.4a.429.429 0 1 1 .428.428.427.427 0 0 1-.428-.428z" class="cls-4"/>
                <path id="Path_2381" d="M147.192 409.755a.429.429 0 1 1 .43.429.429.429 0 0 1-.43-.429z" class="cls-4"/>
                <path id="Path_2382" d="M145.05 413.561a.428.428 0 1 1 .427.428.427.427 0 0 1-.427-.428z" class="cls-4"/>
                <path id="Path_2383" d="M143.227 418.544a.428.428 0 1 1 .428.428.428.428 0 0 1-.428-.428z" class="cls-4"/>
                <path id="Path_2384" d="M147.086 416.454a.428.428 0 1 1 .429.428.427.427 0 0 1-.429-.428z" class="cls-4"/>
                <path id="Path_2385" d="M150.141 415.168a.428.428 0 1 1 .428.428.427.427 0 0 1-.428-.428z" class="cls-4"/>
                <path id="Path_2386" d="M153.571 415.972a.428.428 0 1 1 .427.428.427.427 0 0 1-.427-.428z" class="cls-4"/>
                <path id="Path_2387" d="M150.623 420.207a.428.428 0 1 1 .429.428.428.428 0 0 1-.429-.428z" class="cls-4"/>
                <path id="Path_2388" d="M145.906 420.849a.429.429 0 1 1 .429.428.429.429 0 0 1-.429-.428z" class="cls-4"/>
                <path id="Path_2389" d="M143.119 409.649a.429.429 0 1 1 .429.429.429.429 0 0 1-.429-.429z" class="cls-4"/>
                <path id="Path_2390" d="M146.282 401.289a.429.429 0 1 1 .428.428.428.428 0 0 1-.428-.428z" class="cls-4"/>
                <path id="Path_2391" d="M149.765 400.216a.429.429 0 1 1 .428.428.428.428 0 0 1-.428-.428z" class="cls-4"/>
                <path id="Path_2392" d="M149.819 405.414a.428.428 0 1 1 .429.428.427.427 0 0 1-.429-.428z" class="cls-4"/>
                <path id="Path_2393" d="M152.124 409.97a.428.428 0 1 1 .428.428.427.427 0 0 1-.428-.428z" class="cls-4"/>
                <path id="Path_2394" d="M146.174 398.339a.429.429 0 1 1 .429.429.429.429 0 0 1-.429-.429z" class="cls-4"/>
                <path id="Path_2395" d="M142.8 400.752a.429.429 0 1 1 .428.429.428.428 0 0 1-.428-.429z" class="cls-4"/>
                <path id="Path_2396" d="M152.118 415.426l-5.111-11.1L148.614 422l3.349-.736z" class="cls-29"/>
            </g>
        </g>
        <g id="Group_1566" transform="translate(99.197 1301.417)">
            <g id="Group_1516">
                <g id="Group_1515">
                    <path id="Path_2168" d="M317.467 498.757c.756-.613 1.7-1.984 2.733-2.328.455.2-.961 1.6-1.372 1.977 1.264-.381 1.281 1.9-.4 1.921" class="cls-22"/>
                    <path id="Path_2169" d="M318.23 541.325c0 2.542-4.775 4.6-10.663 4.6s-10.663-2.06-10.663-4.6 4.774-4.6 10.663-4.6 10.663 2.062 10.663 4.6z" class="cls-19"/>
                    <g id="Group_1514">
                        <g id="Group_1513">
                            <g id="Group_1512">
                                <path id="Path_2170" d="M305.213 490.855l-2.481.106s-3.952 3.446-4.069 4.934l2.172 8.545-.066 7.48s3.973-1.716 8.412-3.367l-.46-4.257.69-6.214s-.846-4.757-4.198-7.227z" class="cls-53"/>
                                <path id="Path_2171" d="M302.485 489.956l.063 1.525 3.117-.145-.233-2.324z" class="cls-22"/>
                                <path id="Path_2172" d="M306.633 483.98a1.7 1.7 0 0 1 .985 1.058 4.33 4.33 0 0 1 .194.727 5.618 5.618 0 0 0 .13.753c.076.2.285.335.368.508.112.242-.169.236-.3.355a1.273 1.273 0 0 0-.223.591c-.088.291-.642.734-.855.949a1.445 1.445 0 0 1-.556.432 8.3 8.3 0 0 1-1.359.494l-1.458-.047-.736-3.824 2.186-1.956z" class="cls-22"/>
                            </g>
                        </g>
                    </g>
                    <path id="Path_2173" d="M305.668 492.949a6.969 6.969 0 0 0 .916 6l4.594 5.532s2.31.274 7.672-4.187l-1.391-1.7-5.038 2.494-3.065-4.025s-1.862-3.244-3.688-4.114z" class="cls-53"/>
                    <path id="Path_2174" d="M305.969 491.424l-.338-.908-3.624-.063-.3 1.423z" class="cls-4"/>
                    <path id="Path_2175" fill="#e27676" d="M302.009 537.9a4.356 4.356 0 0 0 .385 2.342c.552.659 2.067.521 2.811.542.762.02 2.008.114 2.635-.451.659-.6.023-.975-.521-1.19-.456-.181-.951-.2-1.41-.359a4.809 4.809 0 0 1-1.96-1.058"/>
                    <path id="Path_2176" fill="url(#radial-gradient-5)" d="M301.074 518.356L302 538s2.177 2.144 2.544.488a2.906 2.906 0 0 0-.473-.591l.264-20.6z"/>
                    <path id="Path_2177" d="M307.346 484.619c-1.478-.331-2.307 2.6-2.4 3.513-.317 3.02.459 6.065.518 9.109a3.991 3.991 0 0 1-3.321 4.323 2.343 2.343 0 0 1-2.495-.772c-1.369-1.333-1.224-2.907-1.028-4.67.138-1.228.3-2.437.481-3.66.154-1.038.351-2.049.587-3.073.287-1.265.605-2.557.942-3.8.251-.92.975-2.531 1.983-2.922a5.536 5.536 0 0 1 3.362.277c.652.247 1.519.909 1.448 1.672" class="cls-56"/>
                    <path id="Path_2178" d="M306.245 539.693a5.33 5.33 0 0 0 .513 2.591c.552.657 2.065.521 2.81.54.763.021 2 .117 2.635-.452.66-.6.024-.97-.52-1.187-.459-.182-.954-.2-1.414-.36a4.766 4.766 0 0 1-1.957-1.06" class="cls-53"/>
                    <path id="Path_2179" fill="url(#radial-gradient-6)" d="M305.2 519.924l1.053 19.8s2.18 2.146 2.545.489a5.44 5.44 0 0 1-.473-.434l.264-20.753z"/>
                    <path id="Path_2180" fill="#916b41" d="M309.1 508.323s1.124 8.673.547 12.126c0 0-6.529 2.486-9.752-.735l.575-8.283s-.459-3.224.231-4.373c-.001 0 2.421 1.265 8.399 1.265z"/>
                </g>
                <path id="Path_2181" d="M307.411 487.15a.415.415 0 1 0-.542.229.414.414 0 0 0 .542-.229z" class="cls-26"/>
                <path id="Path_2182" d="M307.567 486.257a.312.312 0 0 0-.558.052" class="cls-27"/>
                <path id="Path_2183" d="M309.012 501.943l-2.634-3.333 1.029 7.365.411 2.386 1.362.191-.46-4.257z" class="cls-29"/>
                <path id="Path_2184" d="M300.7 507.058l1.846.686s-2.09 9.527 7.1 12.7c0 0-6.353 2.43-9.752-.735l.6-8.39a9.063 9.063 0 0 1 .206-4.261z" class="cls-29"/>
                <path id="Path_2185" d="M306.42 483.221s-1.564 1.194-1.358 4.239a6.779 6.779 0 0 1-.206-4.813s1.358.123 1.564.574z" class="cls-4"/>
                <path id="Path_2186" d="M305.385 487.8c-1.444-.505.327-2.609.312-.7" class="cls-22"/>
                <path id="Path_2187" d="M307.741 488.106s-.453.078-1.094-.576a2.781 2.781 0 0 0 .408 1.392" class="cls-47"/>
                <path id="Path_2188" d="M304.773 487.624a13.489 13.489 0 0 0 .081 3.005c.248.969.588 1.929.875 2.892.516 1.739 1.058 3.631.238 5.377" class="cls-59"/>
                <path id="Path_2189" d="M302.432 482.926c-1.514.522-2.679 4.662-2.944 6.106-.339 1.852-.684 3.721-.953 5.576a13.262 13.262 0 0 1-1.225 4.11" class="cls-59"/>
                <path id="Path_2190" d="M304.32 491.327a3.965 3.965 0 0 0 .372 1.561 24.5 24.5 0 0 1 .4 3.04 9.808 9.808 0 0 1-.154 3.622 4 4 0 0 1-1.482 2.433" class="cls-59"/>
                <path id="Path_2191" d="M312.421 501.085l-.738 1.907-.471-3.5 1.358 1.673z" class="cls-29"/>
                <path id="Line_33" d="M0 0L0.802 12.323" class="cls-60" transform="translate(307.818 508.361)"/>
                <path id="Line_34" d="M0 0L0.494 12.837" class="cls-60" transform="translate(305.411 508.279)"/>
                <path id="Line_35" d="M0 0L0.185 13.207" class="cls-60" transform="translate(303.005 507.971)"/>
                <path id="Path_2192" d="M301.4 507.6s-.431 10.06-.493 12.467" class="cls-60"/>
                <path id="Path_2193" d="M309.422 511.118s-7.4-.741-9.133-1.173" class="cls-60"/>
                <path id="Path_2194" d="M309.607 513.833s-8.084 0-9.318-.679" class="cls-60"/>
                <path id="Path_2195" d="M309.607 517.6s-8.208.617-9.442-.433" class="cls-60"/>
            </g>
            <g id="Group_1523">
                <path id="Path_2196" d="M297.536 533.412c0 2.418-4.865 4.382-10.867 4.382s-10.869-1.964-10.869-4.382 4.866-4.381 10.866-4.381 10.87 1.958 10.87 4.381z" class="cls-19"/>
                <g id="Group_1522">
                    <g id="Group_1521">
                        <path id="Path_2197" d="M289.132 486.213l5.886-4.728 4.568-5.021 1.691 1.107-4.3 6.123-6.327 5.119z" class="cls-4"/>
                        <g id="Group_1520">
                            <g id="Group_1519">
                                <g id="Group_1518">
                                    <g id="Group_1517">
                                        <path id="Path_2198" d="M288.949 483.817l-.251 2.1 2.278.575.272-2.748z" class="cls-22"/>
                                        <path id="Path_2199" d="M291.15 479.181a1.38 1.38 0 0 1 .92.712 4.288 4.288 0 0 1 .252.546 3.5 3.5 0 0 0 .2.58c.083.146.268.225.359.354.121.18-.1.209-.187.32a.97.97 0 0 0-.1.495 1.753 1.753 0 0 1-.287.722 3.474 3.474 0 0 1-.673.682 2.62 2.62 0 0 1-.617.366l-1.528.232-1.08-2.928 1.474-1.834z" class="cls-22"/>
                                        <path id="Path_2200" d="M285.844 515.692l-5.555 17.263-1.589-.355 4.719-17.925z" class="cls-38"/>
                                        <path id="Path_2201" d="M289.981 515.286l2.382 18-1.58.4-3.429-18.221z" class="cls-38"/>
                                        <path id="Path_2202" d="M290.83 532.762l.279.443.368-.032 1.16-.718s2.517-.189 1.718 1.747c0 0-3.738.8-3.994-.374 0 0-.135-.943.469-1.066z" class="cls-50"/>
                                        <path id="Path_2203" d="M278.8 532.382l.279.439.367-.03 1.159-.718s2.517-.189 1.719 1.745c0 0-3.738.8-3.995-.372.004 0-.129-.946.471-1.064z" class="cls-50"/>
                                        <path id="Path_2204" fill="#6d5147" d="M291.919 502.626s-.659 10.995-1.016 14.073c0 0-7.146.433-8.3-1.292 0 0-.1-13.111 1.227-13.471z"/>
                                        <path id="Path_2205" d="M291.1 486.328l-2.371-.665a16.436 16.436 0 0 0-3.729 6.293l-1.539 10.5a22.966 22.966 0 0 0 8.424 1.189l1.364-13.081s-.076-1.564-2.149-4.236z" class="cls-4"/>
                                    </g>
                                </g>
                            </g>
                            <path id="Path_2206" d="M294.147 496.306c-3.159.075-7.308-1.073-10.338-2.047-1.682 5.105.418 9.024 5.919 8.895 4.4-.106 4.539-2.925 4.656-6.6" class="cls-62"/>
                            <path id="Path_2207" d="M289.846 488.851c-.764 1.821-7.291 12.654-.945 9.51 2.139-1.062 3.79-3.1 5.36-4.8 1.527-1.661 1.462-1.653.8-3.674-1.229 1.2-4.2 4.49-5.672 5.574.264-.934 2.783-5.248 2.287-6.307-.4-.866-1.464-1.169-1.842.066" class="cls-4"/>
                            <path id="Path_2208" d="M291.7 486.527a5.592 5.592 0 0 1 3.36 2 4.506 4.506 0 0 1 .564 3.645l-.319 1.539a21.058 21.058 0 0 0-.908 3.385l-.945-.031a21 21 0 0 1 .933-3.58l.311-1.492a3.422 3.422 0 0 0-.375-2.849 4.687 4.687 0 0 0-2.723-1.639c-1.3-.149-2.079.783-2.98 1.861l-.364.434-.467.536-1.99 2.443-.237.321a5.757 5.757 0 0 0-1 1.75l-.68-.528a3.992 3.992 0 0 1 .936-1.836l.22-.3 2.05-2.518.463-.532.357-.421c.935-1.115 2-2.393 3.794-2.188z" class="cls-62"/>
                            <path id="Path_2209" d="M294.787 490.274c-.021-.4.018-.808.479-.9.5-.093.64.372.167.551.233-.163.746-.285.751.145 0 .246-.411.378-.616.47.446.055.934.9.286.959.531.081.283.884-.2.968-.052-.015.133.01.166.01 0 .015-.013.187-.009.191a3.836 3.836 0 0 1-1.214.083 11.6 11.6 0 0 1 .108-2.4" class="cls-22"/>
                            <path id="Path_2210" d="M291.609 479.339c-.369.26-1.094.279-1.312.663a6.558 6.558 0 0 0-.6.939 3.228 3.228 0 0 0-.2 2.255 3.727 3.727 0 0 0 1.689 2.054 4 4 0 0 0 1.034.4c.027.006.671.06.671.056-.331.152-.6.413-.908.594a3.282 3.282 0 0 1-1.244.381c.091.344.567.259.661.6a4.89 4.89 0 0 1-2.864.623 2.75 2.75 0 0 1-1.554-.4 2.994 2.994 0 0 1-.7-1.268 6.851 6.851 0 0 1-.54-2.958 7.772 7.772 0 0 1 .563-2.918 4.286 4.286 0 0 1 3.03-1.958 3.275 3.275 0 0 1 2.283.964" class="cls-63"/>
                        </g>
                        <path id="Path_2211" d="M299.693 476.577c.123-.887 1.259-3.131 1.686-2.988.267.318-.6 1.539-.7 1.954.447-.552 1.321-.575.935.025.368-.218.768.226.4.482.957.025-.652 1.507-.866 1.717" class="cls-22"/>
                    </g>
                    <path id="Path_2212" fill="none" stroke="#815d23" stroke-width="0.25px" d="M287.236 479.6c-1.005.4-1.6 3.014-1.674 3.944a7.055 7.055 0 0 0 .88 3.923"/>
                    <path id="Path_2213" d="M290.068 482.135c-1.364.755-1.759-2.015-.32-.707" class="cls-22"/>
                    <path id="Path_2214" d="M292.149 481.2a.343.343 0 1 0-.328.357.343.343 0 0 0 .328-.357z" class="cls-26"/>
                    <path id="Path_2215" d="M291.963 480.481a.257.257 0 0 0-.4.227" class="cls-27"/>
                    <path id="Path_2216" d="M292.542 482.354a1.17 1.17 0 0 1-1.194-.437" class="cls-39"/>
                    <path id="Path_2217" d="M293.005 491.758l-4.012 3.579s1.173.247 4.012-3.579z" class="cls-29"/>
                    <path id="Path_2218" d="M283.5 502.62l1.235.309s-.864 11.418 6.168 13.77c0 0-7.154.384-8.3-1.292.004 0 .033-12.231.897-12.787z" class="cls-29"/>
                </g>
            </g>
            <g id="Group_1525">
                <path id="Path_2219" d="M346.83 541.748c0 2.2-4.91 3.99-10.971 3.99s-10.966-1.788-10.966-3.99 4.91-3.989 10.966-3.989 10.971 1.786 10.971 3.989z" class="cls-19"/>
                <g id="Group_1524">
                    <path id="Path_2220" d="M340.94 538.267s.32 1.97.071 2.071c-6.456 2.576-7.037.251-1.992-1.422z" class="cls-4"/>
                    <path id="Path_2221" d="M333.873 512.026s6.1-.415 7.251.078a13.392 13.392 0 0 1-.016 5.263l-.481 7.969.433 13.619s-1.724 1.041-2.8.438l-1.465-13.812s-.26-8.724.336-9.976l-.9.04" class="cls-65"/>
                    <path id="Path_2222" d="M340.935 517.411l-1.84 8.629 1.658 13.235.307-.32-.529-13.463z" class="cls-29"/>
                    <path id="Path_2223" d="M334.74 540.364s.213 1.986-.04 2.073c-6.584 2.229-7.04-.124-1.913-1.527z" class="cls-4"/>
                    <path id="Path_2224" d="M336.318 512.275a13.39 13.39 0 0 1-.3 5.252l-1.14 7.836-.058 15.7s-1.777.949-2.82.288l-.728-15.843s.457-9.634 1-11.729" class="cls-65"/>
                    <path id="Path_2225" d="M335.847 517.565l-2.3 8.518.951 15.278.324-.3-.045-15.545z" class="cls-29"/>
                    <path id="Path_2226" d="M337.814 492.031l.135 1.707-2.787.22-.051-2.091z" class="cls-22"/>
                    <path id="Path_2227" d="M335.136 493.147l2.818-.255s4.026 3.125 4.338 4.64l-.437 16.774s-5.961 1.21-10.585.05l.508-16.356s.356-1.906 3.358-4.853z" class="cls-5"/>
                    <path id="Path_2228" d="M335.584 486.7a1.538 1.538 0 0 0-1.123.651 4.64 4.64 0 0 0-.361.567 4.511 4.511 0 0 1-.3.611c-.118.155-.334.218-.452.345-.162.176.085.243.159.382a1.075 1.075 0 0 1 .04.563 2.836 2.836 0 0 0 .844 1.73c.216.153.412.322.634.467l1.661.484 1.639-3.086-1.357-2.251z" class="cls-22"/>
                    <path id="Path_2229" fill="#3d3a23" d="M339.621 486.235a1.575 1.575 0 0 0-.581-.435 3.923 3.923 0 0 0-1.285-.362 3.453 3.453 0 0 0-1.021-.115 2.277 2.277 0 0 0-.607.168c-.211.079-.42.155-.628.24a1.413 1.413 0 0 0-.518.267 2.764 2.764 0 0 0-.3.518.946.946 0 0 0-.173.433c-.014.342.3.442.562.511a1.308 1.308 0 0 1 .782.672 1.023 1.023 0 0 1 .118.944 3.548 3.548 0 0 0-.269.928c.086.091.307-.109.393-.159.128-.067.29-.273.429-.3a.258.258 0 0 1 .282.27 1.1 1.1 0 0 1-.239.519 1.187 1.187 0 0 1-.44.307 1.178 1.178 0 0 0 .213 1.338 3.481 3.481 0 0 0 1.454.808c.4-.467 1.025-1.095 1.477-1.527a6.166 6.166 0 0 0 1.094-1.407 2.242 2.242 0 0 0 .184-1.612 7.717 7.717 0 0 0-.184-.781c-.058-.2-.175-.372-.24-.57a1.1 1.1 0 0 0-.483-.712 1.006 1.006 0 0 1-.295-.208"/>
                    <path id="Path_2230" d="M336.125 490.552c1.441.141.637-2.274-.07-.665" class="cls-22"/>
                    <path id="Path_2231" d="M334.159 488.156s.276-.15.412.213" class="cls-27"/>
                    <path id="Path_2232" d="M334.118 489.023a.432.432 0 1 1 .216.571.431.431 0 0 1-.216-.571z" class="cls-26"/>
                    <path id="Path_2233" d="M333.486 489.742l.876.026s-.329.96-.635 1.015" class="cls-49"/>
                    <path id="Path_2234" d="M331.668 502.529l-.4 11.827 1.416.325 2.215-16.044z" class="cls-29"/>
                    <path id="Path_2235" d="M338.729 493.563l-.769-1.153-3.148.54-1.075 1.379z" class="cls-4"/>
                    <path id="Path_2236" d="M324.866 497.779a5.178 5.178 0 0 0-.253-2.058c-.468-.048-.475.434-.383.795-.222-.635-.292-1.395-.907-1.755a.185.185 0 0 0-.074.034 2.35 2.35 0 0 0 .207 1.206c-.146-.442-.379-.943-.824-1.05-.123.467.218 1 .289 1.442-.3-.382-.6-.912-1.05-1.09a1.483 1.483 0 0 0 .434 1.373c-.158-.344-.39-.726-.754-.619.137.943 1.44 2.383 2.055 3.026" class="cls-22"/>
                    <path id="Path_2237" d="M334.048 494.274s-2.679 2.208-6.45 8.016l-2.57-4.5a8.522 8.522 0 0 0-1.478 1.284s2.852 7.395 3.329 8.064c0 0 1.556.239 5.3-5.589z" class="cls-5"/>
                    <path id="Path_2238" d="M327.6 502.29l-.021 2.772 1.277-4.627z" class="cls-29"/>
                </g>
            </g>
        </g>
        <g id="Group_1580" transform="translate(120.322 1344.404)">
            <g id="Group_1572">
                <path id="Path_2397" d="M425.579 492.826c0 2.022-5.575 3.662-12.451 3.662s-12.45-1.64-12.45-3.662 5.575-3.659 12.45-3.659 12.451 1.633 12.451 3.659z" class="cls-19"/>
                <g id="Group_1571">
                    <g id="Group_1569">
                        <g id="Group_1568">
                            <g id="Group_1567">
                                <path id="Path_2398" d="M417.3 490.433a8.663 8.663 0 0 1 2.56 1.988c1.073 1.2-.48 1.358-1.437.971a12.961 12.961 0 0 1-2.649-1.422c-.382-.269-1.381-1.873-.688-2.158" class="cls-63"/>
                                <path id="Path_2399" d="M409.192 490.51a8.743 8.743 0 0 0-2.77 1.683c-1.2 1.073.322 1.4 1.315 1.128a12.9 12.9 0 0 0 2.794-1.1c.41-.224 1.588-1.707.931-2.073" class="cls-63"/>
                                <path id="Path_2400" fill="#4e86b6" d="M418.3 463.176l.756 12.189-1.456 15.326a2.1 2.1 0 0 1-2.792-.535l.2-14.929-1.408-11.035-1-.085-.969 26.326s-2.189.85-2.729.089l-.767-27.093-.31-2.968 9.012.084z"/>
                                <path id="Path_2401" d="M413.143 438.4l-2.989-.125s-5.149 3.888-5.466 5.73l1.255 15.812s7.253 1.2 12.786-.394l-1.317-15.306s-.512-2.288-4.269-5.717z" class="cls-4"/>
                                <path id="Path_2402" d="M412.959 438.254l1.31 25.271s4.775-.256 5.775-1.19l-2-21.792s-4.315-2.289-5.085-2.289z" class="cls-7"/>
                                <path id="Path_2403" d="M410.212 438.151l.393 25.3s-4.781.137-5.842-.712l.534-21.9s4.145-2.626 4.915-2.688z" class="cls-7"/>
                            </g>
                            <path id="Path_2404" d="M418.043 440.543s8.624 14.251.319 18.86z" class="cls-7"/>
                            <path id="Path_2405" d="M405.378 440.826s-7.539 14.856 1.083 18.836z" class="cls-7"/>
                        </g>
                    </g>
                    <g id="Group_1570">
                        <path id="Path_2406" d="M410.426 438.884l.014-2.27 2.309-.108.105 2.261" class="cls-22"/>
                        <path id="Path_2407" d="M413.965 432.62c.557.161.358 2.283-.06 2.891-.461.671-.886 1.444-1.7 1.624a2.25 2.25 0 0 1-2.426-1.076 4.606 4.606 0 0 1-.753-2.649 2.746 2.746 0 0 1 .656-1.5 2.282 2.282 0 0 1 2.018-.766 2.829 2.829 0 0 1 1.9.974 2.41 2.41 0 0 1 .411.611c.066.178.027.374.1.546" class="cls-22"/>
                        <path id="Path_2408" d="M412.231 433.8c.332.063.216.593-.088.6" class="cls-25"/>
                        <path id="Path_2409" d="M410.485 434.763a.446.446 0 1 1 .576.258.445.445 0 0 1-.576-.258z" class="cls-26"/>
                        <path id="Path_2410" d="M413.241 434.782a.446.446 0 1 1 .577.258.444.444 0 0 1-.577-.258z" class="cls-26"/>
                        <path id="Path_2411" d="M409.482 434.811c-1.791.114-.62-2.705.082-.818" class="cls-22"/>
                        <path id="Path_2412" d="M410.924 433.746s.37-.362.6 0" class="cls-27"/>
                        <path id="Path_2413" d="M413.1 433.727s.324-.317.528 0" class="cls-27"/>
                        <path id="Path_2414" d="M413.072 434.88l-1.71-.107s.707 1.994 1.71.107z" class="cls-49"/>
                    </g>
                    <path id="Path_2415" d="M414.224 432.965c0-1.219.028-2.372-.89-3.31a1.516 1.516 0 0 0-.638-.449c-.286-.069-.384.147-.556.119-.339-.053-.445-.671-.807-.724-.421-.064-.926.493-1.168.8a7.085 7.085 0 0 0-1.257 1.725 5.947 5.947 0 0 0 .066 2.941c.426-.266.527-.9.831-1.3a4.187 4.187 0 0 1 1.554-1.141c1.212-.362 2 0 2.755 1.3.018.028.057.042.082.061" class="cls-23"/>
                    <path id="Path_2416" d="M409.025 433.715c-.635-1.1-1.014-2-.2-3.078a12.36 12.36 0 0 1 1.7-1.87" class="cls-24"/>
                    <path id="Path_2417" d="M414.279 432.938c.3-1.508-.123-4.062-2.14-3.67" class="cls-24"/>
                    <path id="Path_2418" d="M406.422 455.855l-.14-11.092s-1.465 8.231.14 11.092z" class="cls-29"/>
                    <path id="Path_2419" d="M418.142 455.087l-.838-11.231s-.698 7.603.838 11.231z" class="cls-29"/>
                </g>
            </g>
            <path id="Path_2420" d="M443.992 493.214c0 2.021-3.872 3.662-8.65 3.662s-8.649-1.641-8.649-3.662 3.872-3.661 8.649-3.661 8.65 1.639 8.65 3.661z" class="cls-19"/>
            <g id="Group_1579">
                <g id="Group_1578">
                    <g id="Group_1577">
                        <g id="Group_1576">
                            <path id="Path_2421" d="M435.184 492.562c0 .509.108 1.374-.263 1.768-.485.516-1.817.407-2.473.421a3.955 3.955 0 0 1-2.317-.352c-.581-.463-.02-.755.458-.923.4-.141.836-.157 1.242-.278.46-.138.489-.33.706-.661"/>
                            <path id="Path_2422" d="M439.614 490.225c0 .506.111 1.373-.261 1.766-.483.515-1.816.4-2.472.422a3.968 3.968 0 0 1-2.317-.352c-.582-.461-.022-.754.456-.924.4-.141.838-.156 1.244-.279.46-.138.488-.331.7-.663"/>
                            <path id="Path_2423" d="M437.819 467.865s-1.683 10.972-2.481 14.665l.121 10.223-3.445-.063-.373-11.326V468.98z" class="cls-68"/>
                            <path id="Path_2424" d="M439.438 467.865l-.531 12.821.923 9.727h-3.2l-1.291-10.22.183-11.766z" class="cls-68"/>
                            <g id="Group_1575">
                                <g id="Group_1574">
                                    <g id="Group_1573">
                                        <path id="Path_2425" d="M433.5 450.9l2.136-.232s3.822 2.44 4.115 3.7l-.757 7.585.631 6.448a15.155 15.155 0 0 1-8.117.974l-.834-14.322s.273-1.606 2.826-4.153z" class="cls-69"/>
                                        <path id="Path_2426" d="M435.714 449.781l.141 1.313-2.686.279.361-2z" class="cls-22"/>
                                        <path id="Path_2427" d="M432.336 445.178a1.476 1.476 0 0 0-.706 1.033 3.794 3.794 0 0 0-.073.645 5.029 5.029 0 0 1-.013.661c-.038.181-.2.322-.249.482-.065.222.176.18.3.269.15.1.2.316.267.472a1.772 1.772 0 0 0 .5.65 3.861 3.861 0 0 0 .954.472 2.977 2.977 0 0 0 .758.172l1.642-.274.136-3.367-2.125-1.393z" class="cls-22"/>
                                        <path id="Path_2428" d="M435.652 443.089a1.551 1.551 0 0 0-.69-.139 3.824 3.824 0 0 0-1.267.222 3.517 3.517 0 0 0-.933.326 2.215 2.215 0 0 0-.459.4c-.152.161-.3.311-.445.471a1.393 1.393 0 0 0-.339.453 2.414 2.414 0 0 0-.049.577.891.891 0 0 0 .032.448c.135.3.441.259.7.21a1.226 1.226 0 0 1 .956.257.992.992 0 0 1 .5.775 2.4 2.4 0 0 0 .042.8c.115.044.321-.178.378-.255.082-.114.145-.295.259-.368a.244.244 0 0 1 .355.113c.061.141-.011.4.013.55.088.627 1.033 1.169 1.141 1.132a2.849 2.849 0 0 0 1.591-1.453 3.334 3.334 0 0 0 .368-1.683 2.17 2.17 0 0 0-.515-1.478c-.158-.2-.309-.418-.485-.607-.135-.141-.31-.245-.448-.394a1.062 1.062 0 0 0-.721-.416.9.9 0 0 1-.339-.058" class="cls-56"/>
                                    </g>
                                </g>
                            </g>
                            <path id="Path_2429" d="M423.532 460.665a12 12 0 0 0-2.094-1.226c-.331-.1-.485.024-.351.3a2.2 2.2 0 0 0 .559.564c-.494-.151-1.2-.576-1.713-.471-.6.115.177.457.438.592-.129-.079-.846-.253-.839-.006 0 .166.775.478.929.506-.133-.067-.9-.282-.856 0 .025.163.708.354.813.386-.179-.093-.608-.225-.713-.051a6.038 6.038 0 0 0 1.774.831 6.352 6.352 0 0 0 1.839.241" class="cls-22"/>
                            <path id="Path_2430" d="M432.623 452.149s1 1.978.052 5.452l-1.848 6.488s-2.014.883-8.085-1.669l.82-1.749 5.206.692.093-2.951s1.873-4.781 3.762-6.263z" class="cls-69"/>
                            <path id="Path_2431" d="M432.924 451.486l.17-.821 3.091-.523.443 1.181z" class="cls-4"/>
                        </g>
                    </g>
                </g>
                <path id="Path_2432" d="M434.342 448.268c1.307-.4-.27-2.219-.3-.558" class="cls-22"/>
                <path id="Path_2433" d="M431.7 446.8s.187-.232.436.034" class="cls-27"/>
                <path id="Path_2434" d="M431.974 447.573a.408.408 0 1 1 .395.422.408.408 0 0 1-.395-.422z" class="cls-26"/>
                <path id="Path_2435" fill="none" stroke="#d47230" stroke-width="0.15px" d="M431.894 448.751a1.012 1.012 0 0 0 .925-.609"/>
                <path id="Path_2436" d="M435.556 481.863l1.949-12.8-1.384.229s-1.132 11.439-.565 12.571z" class="cls-29"/>
                <path id="Path_2437" d="M438.84 480.166l-1.811 2.943 2.037-.906z" class="cls-29"/>
                <path id="Path_2438" d="M431.392 462.75l2.176-7.605.26 14.193-2.323.039z" opacity="0.2"/>
            </g>
        </g>
    </g>
</svg>
