<svg xmlns="http://www.w3.org/2000/svg" width="65" height="65" viewBox="0 0 65 65">
    <defs>
        <style>
            .cls-3{fill:#fff}
        </style>
    </defs>
    <g id="icon_05" transform="translate(-1167 -686)">
        <g id="ic_video" transform="translate(228 50)">
            <g id="Ellipse_24" fill="none" stroke="#fff" opacity="0.9" transform="translate(939 636)">
                <circle cx="32.5" cy="32.5" r="32.5" stroke="none"/>
                <circle cx="32.5" cy="32.5" r="32"/>
            </g>
        </g>
        <g id="Group_1109" transform="translate(660.82 922.33)">
            <g id="Group_1103" transform="translate(523.132 -217.191)">
                <path id="Path_1428" fill="none" stroke="#fff" stroke-miterlimit="10" stroke-width="2px" d="M547.533-211.073l1.863-2.942h.067a1.464 1.464 0 0 0 1.448-1.479 1.464 1.464 0 0 0-1.448-1.479 1.464 1.464 0 0 0-1.448 1.479 1.493 1.493 0 0 0 .162.677l-1.867 2.947a14.085 14.085 0 0 0-7.154-1.975 14.082 14.082 0 0 0-7.13 1.96l-1.977-3.1a1.5 1.5 0 0 0 .119-.588 1.464 1.464 0 0 0-1.448-1.479 1.464 1.464 0 0 0-1.448 1.479 1.464 1.464 0 0 0 1.448 1.479 1.508 1.508 0 0 0 .162-.01l1.919 3c-4.6 3.3-7.669 9.237-7.669 16.016v2.856c0 2.925 3.353 4.838 6.278 4.838h19.49c2.926 0 6.279-1.912 6.279-4.838v-2.856c.001-6.754-3.059-12.683-7.646-15.985zm-18.726 22.853v-13.329a4.719 4.719 0 0 1 4.705-4.7H544.8a4.719 4.719 0 0 1 4.7 4.7v13.329" transform="translate(-523.132 217.042)"/>
            </g>
            <g id="Group_1104" transform="translate(532.966 -201.313)">
                <path id="Path_1429" d="M577.678-172.3a1.454 1.454 0 0 0-1.452 1.452v2.584a1.454 1.454 0 0 0 1.452 1.452 1.454 1.454 0 0 0 1.453-1.452v-2.584a1.454 1.454 0 0 0-1.453-1.452z" class="cls-3" transform="translate(-566.752 172.304)"/>
                <path id="Path_1430" d="M552.947-172.3a1.454 1.454 0 0 0-1.452 1.452v2.584a1.454 1.454 0 0 0 1.452 1.452 1.454 1.454 0 0 0 1.452-1.452v-2.584a1.454 1.454 0 0 0-1.452-1.452z" class="cls-3" transform="translate(-551.495 172.304)"/>
            </g>
            <ellipse id="Ellipse_315" cx="1.498" cy="1.42" class="cls-3" rx="1.498" ry="1.42" transform="translate(527.73 -217.284)"/>
            <ellipse id="Ellipse_316" cx="1.498" cy="1.42" class="cls-3" rx="1.498" ry="1.42" transform="translate(547.503 -217.284)"/>
        </g>
    </g>
</svg>
