<svg xmlns="http://www.w3.org/2000/svg" width="65" height="65" viewBox="0 0 65 65">
    <g>
        <g>
            <g fill="none" stroke="#fff" opacity="0.9" transform="translate(-310 -686) translate(-629 50) translate(939 636)">
                <circle cx="32.5" cy="32.5" r="32.5" stroke="none"/>
                <circle cx="32.5" cy="32.5" r="32"/>
            </g>
        </g>
        <path fill="#fff" stroke="#fff" stroke-width="0.6px" d="M0 70.138l4.793 4.8L14 65.746l-1.321-1.3-7.886 7.87-3.493-3.49z" transform="translate(-310 -686) translate(336 640.15)"/>
        <path fill="#fff" d="M31.582 46.453a2.89 2.89 0 0 0-1.991-.8 3.024 3.024 0 0 0-1.957.73l-3.485 2.949a.583.583 0 0 1-.379.138h-2.353a3.5 3.5 0 0 0 .272-1.932 3.314 3.314 0 0 0-3.27-2.854h-8.163A5.22 5.22 0 0 0 7 45.831l-2.175 1.723H.453a.467.467 0 0 0-.453.479v.957a.467.467 0 0 0 .453.479h4.978l2.653-2.106a3.5 3.5 0 0 1 2.172-.766h8.3a1.438 1.438 0 0 1 0 2.872h-4.98a.959.959 0 0 0 0 1.914H23.77a2.356 2.356 0 0 0 1.51-.556l3.485-2.943a1.285 1.285 0 0 1 .826-.311 1.123 1.123 0 0 1 .781.311 1.319 1.319 0 0 1-.051 1.95l-5.7 4.828a2.324 2.324 0 0 1-1.51.556H.453A.467.467 0 0 0 0 55.7v.957a.467.467 0 0 0 .453.479h22.655a4.066 4.066 0 0 0 2.636-.981l5.708-4.828a3.268 3.268 0 0 0 1.131-2.393 3.3 3.3 0 0 0-1.001-2.481z" transform="translate(-310 -686) translate(326 675.137)"/>
    </g>
</svg>
