<svg xmlns="http://www.w3.org/2000/svg" width="130" height="130" viewBox="0 0 130 130">
    <defs>
        <style>
            .cls-3{fill:#b6cdce}.cls-4{fill:#fff}.cls-5{fill:#f2f2f2}.cls-8{fill:#939598}.cls-11{fill:none}.cls-12{fill:#b3b3b3}.cls-15{fill:#efceb9}
        </style>
    </defs>
    <g id="img_4_2" transform="translate(-895 -2578)">
        <circle id="Ellipse_532" cx="65" cy="65" r="65" fill="#badfff" transform="translate(895 2578)"/>
        <g id="Group_1509" transform="translate(69.928 2021.979)">
            <g id="Group_1506" transform="translate(833.194 608.181)">
                <path id="Path_2129" fill="#92bfe5" d="M871.154 755.892l-31.672-18.561-5.032 2.208c-1.708.73-1.668 2.169.088 3.2l36.172 21.2a7.942 7.942 0 0 0 6.3.545l68.236-29.95c1.707-.73 1.668-2.169-.088-3.2l-4.5-2.637-63.2 27.742a7.943 7.943 0 0 1-6.304-.547z" transform="translate(-833.194 -697.69)"/>
                <path id="Path_2130" d="M947.461 685.44l-.026.006a2.43 2.43 0 0 0-1.325-1.557l-36.172-21.2a7.943 7.943 0 0 0-6.3-.545L835.4 692.1c-.845.361-1.261.9-1.254 1.469h-.007v3.392h.007c-.018.6.43 1.245 1.342 1.779l4.5 2.637 31.672 18.561a7.943 7.943 0 0 0 6.3.545l63.2-27.742 5.032-2.208c.964-.412 1.371-1.05 1.227-1.711l.036.021zM834.6 693.559c.009-.4.363-.772 1-1.043l68.236-29.951a6.112 6.112 0 0 1 2.635-.374 7.42 7.42 0 0 1 3.251.889l16.381 9.6 19.791 11.6c.7.41 1.112.913 1.1 1.344-.008.4-.362.772-1 1.044l-68.236 29.95a6.1 6.1 0 0 1-2.635.374 7.419 7.419 0 0 1-3.252-.889l-33.2-19.458-2.969-1.74c-.695-.411-1.102-.913-1.102-1.346z" class="cls-3" transform="translate(-833.704 -661.725)"/>
                <path id="Path_2131" d="M1020.414 685.3l-3.556-2.02 2.627 1.492.929.528 1.588.9z" class="cls-3" transform="translate(-931.827 -673.302)"/>
                <path id="Path_2132" d="M930.2 686.864c.408.233.5.529.21.658a1.668 1.668 0 0 1-1.272-.186l-1.588-.9-3.4.933 20.033 11.741-58.473 25.705-31.155-18.375-10.623 2.912 33.2 19.458a7.419 7.419 0 0 0 3.252.889 6.106 6.106 0 0 0 2.635-.374l68.236-29.95c.634-.271.988-.642 1-1.044.009-.431-.4-.934-1.1-1.344l-19.791-11.6-2.533.694z" class="cls-4" transform="translate(-838.961 -674.433)"/>
                <path id="Path_2133" d="M836.239 695.431l2.969 1.74 10.623-2.912-4.157-2.452 58.337-25.652 15.409 9.031 3.4-.933-.929-.527-2.627-1.493c-.407-.232-.5-.529-.2-.66a1.667 1.667 0 0 1 1.279.183l3.757 2.144 2.533-.694-16.381-9.6a7.419 7.419 0 0 0-3.251-.889 6.112 6.112 0 0 0-2.635.374l-68.236 29.951c-.634.271-.988.642-1 1.043-.001.434.41.937 1.109 1.346z" class="cls-5" transform="translate(-834.237 -662.253)"/>
                <path id="Path_2134" fill="#2b78ba" d="M898.032 727.11L956.5 701.4l-20.033-11.741-69.589 19.073z" transform="translate(-851.283 -676.728)"/>
                <path id="Path_2135" fill="#2373af" d="M931.644 679.292l-15.409-9.137-58.269 25.565 4.171 2.593z" transform="translate(-846.461 -666.252)"/>
                <path id="Path_2136" d="M1024.539 687.239l1.587.9a1.668 1.668 0 0 0 1.272.186c.292-.129.2-.425-.21-.658l-1.369-.781z" class="cls-8" transform="translate(-935.953 -675.238)"/>
                <path id="Path_2137" fill="#757677" d="M1021.257 684.114l-1.122-.64-2.639-1.506a1.667 1.667 0 0 0-1.279-.183c-.3.132-.2.429.2.66l3.556 2.02z" transform="translate(-931.39 -672.464)"/>
                <path id="Path_2138" d="M1022.941 684.4l-3.762-2.146 2.639 1.506z" class="cls-8" transform="translate(-933.075 -672.749)"/>
                <path id="Line_31" fill="none" stroke="#939598" stroke-linecap="round" stroke-linejoin="round" stroke-width="0" d="M0 0L1.369 0.781" transform="translate(89.867 11.649)"/>
            </g>
            <g id="Group_1507" transform="translate(881.267 562.021)">
                <path id="Path_2139" d="M1008.221 726.225v.691c0-.042.006-.085.006-.127z" class="cls-11" transform="translate(-975.259 -650.203)"/>
                <path id="Path_2140" d="M977.351 650.971v-.281l.033-4.989-.033-.086v-52.008c0-1-.5-1.581-1.383-1.581a2.826 2.826 0 0 0-1.153.279 5.511 5.511 0 0 0-3.076 4.429v1.587l-.656.278v-1.864a6.126 6.126 0 0 1 3.463-5.026 3.672 3.672 0 0 1 1.151-.32 3.559 3.559 0 0 0-1.232.319 6.124 6.124 0 0 0-3.465 5.025v1.867l-15.514-9.575-3.522-2.174-1.226-.756v49.016c0 .042-.005.084-.007.126l26.613 16.425v-.691zm-4.466-19.532v.744l-17.71-10.856v-.743zm-17.71-3.268l17.71 10.856v.743l-17.71-10.855zm0-4.786v-.744l17.71 10.855v.744zm0-32.2l17.71 10.855v.743l-17.71-10.855zm0 2.057l17.71 10.855v.744l-17.71-10.856zm0 2.057l17.71 10.856v.743l-17.71-10.855zm0 2.058l17.71 10.855v.743l-17.71-10.855zm0 5.53l17.71 10.855v.744l-17.71-10.856zm0 2.057l17.71 10.856v.743l-17.71-10.855zm0 11.521l17.71 10.855v.743l-17.71-10.855zm0 2.057l17.71 10.856v.743l-17.71-10.855zm0 12.446v-.743l17.71 10.855v.744z" class="cls-5" transform="translate(-944.389 -574.948)"/>
                <path id="Path_2141" d="M969.218 578.529c-.045-.012-.089-.025-.136-.034l-25.754-15.939a2 2 0 0 0-1.473-.527 3.508 3.508 0 0 0-1.361.331 6.126 6.126 0 0 0-3.464 5.026v1.864l6.269 3.869.081.051 1.226.756 3.522 2.174 15.514 9.575v-1.865a6.124 6.124 0 0 1 3.462-5.026 3.558 3.558 0 0 1 1.232-.319 3.672 3.672 0 0 0-1.151.32 6.126 6.126 0 0 0-3.463 5.026v1.864l.656-.278v-1.587a5.511 5.511 0 0 1 3.076-4.429 2.826 2.826 0 0 1 1.153-.279c.88 0 1.383.577 1.383 1.581v52.007l.033.086-.033 4.989v.844c0 .042 0 .085-.006.127l.663-.274v-57.779a2.037 2.037 0 0 0-1.429-2.154z" class="cls-4" transform="translate(-937.031 -562.025)"/>
                <path id="Path_2142" d="M948.925 562.552l25.754 15.939c.046.009.091.022.136.034l-25.809-15.972a2.015 2.015 0 0 0-1.554-.528 2 2 0 0 1 1.473.527z" class="cls-5" transform="translate(-942.627 -562.021)"/>
                <path id="Path_2143" d="M978.038 663.3v-.743l-17.71-10.857v.743z" class="cls-12" transform="translate(-949.542 -610.183)"/>
                <path id="Path_2144" d="M978.038 667.746V667l-17.71-10.855v.743z" class="cls-12" transform="translate(-949.542 -612.57)"/>
                <path id="Path_2145" d="M978.038 672.191v-.743l-17.71-10.855v.743z" class="cls-12" transform="translate(-949.542 -614.957)"/>
                <path id="Path_2146" d="M978.038 675.891l-17.71-10.855v.743l17.71 10.855z" class="cls-12" transform="translate(-949.542 -617.344)"/>
                <path id="Path_2147" d="M978.038 688.579v-.743l-17.71-10.855v.743z" class="cls-12" transform="translate(-949.542 -623.758)"/>
                <path id="Path_2148" d="M978.038 692.28l-17.71-10.855v.743l17.71 10.855z" class="cls-12" transform="translate(-949.542 -626.145)"/>
                <path id="Path_2149" d="M978.038 608.7v-.743l-17.71-10.857v.743z" class="cls-12" transform="translate(-949.542 -580.858)"/>
                <path id="Path_2150" d="M978.038 613.14v-.74l-17.71-10.855v.743z" class="cls-12" transform="translate(-949.542 -583.245)"/>
                <path id="Path_2151" d="M978.038 617.584v-.743l-17.71-10.855v.743z" class="cls-12" transform="translate(-949.542 -585.631)"/>
                <path id="Path_2152" d="M978.038 622.028v-.743l-17.71-10.855v.743z" class="cls-12" transform="translate(-949.542 -588.018)"/>
                <path id="Path_2153" d="M978.038 633.973v-.743l-17.71-10.855v.743z" class="cls-12" transform="translate(-949.542 -594.433)"/>
                <path id="Path_2154" d="M978.038 638.417v-.743l-17.71-10.855v.743z" class="cls-12" transform="translate(-949.542 -596.819)"/>
            </g>
            <g id="Group_1508" transform="translate(891.117 597.444)">
                <path id="Path_2155" d="M969.02 715.64l.024.018a5.085 5.085 0 0 1 1.159.019c-.075-1.256-.159-2.7-.268-3.732-.151-1.457-.679-3.4-.467-4.826a.78.78 0 0 1-.327-.015c-.13 2.17-.417 6.857-.482 7.828.026.201.259.455.361.708z" class="cls-11" transform="translate(-963.866 -675.357)"/>
                <path id="Path_2156" fill="#d15d5d" d="M968.7 724.927v-.022a5.084 5.084 0 0 0-1.159-.018l-.024-.018a.624.624 0 0 0 .067.126s.268.326-.01.188c-.729-.363-.484-.736-1.253-.884a.921.921 0 0 0-.221-.008l-.024.013c-.088.056-.378.3-.107.894a3.037 3.037 0 0 1 .232 1.2l.122.048s.077-1.008.339-1.134c.283-.041.758.326 1.287.682.138.094.519-.2.765-.5v-.007a4.159 4.159 0 0 0-.014-.56z" transform="translate(-962.358 -684.586)"/>
                <path id="Path_2157" fill="#ff6262" d="M973.236 728.027a1.714 1.714 0 0 1-.67-.556 1.151 1.151 0 0 0-.777-.312l-.048.013s-.443.223-.11.912a3.026 3.026 0 0 1 .262 1.2l.138-.019s.039-.936.287-1.076c.256-.029.642.413 1.181.758.226.145 1.186-.846 1.085-1.1s-1.388-.111-1.388-.111l-.045-.034a1.167 1.167 0 0 0 .091.14s.275.316-.006.185z" transform="translate(-965.395 -686.127)"/>
                <path id="Path_2158" d="M970.348 706.421c-.212 1.431.316 3.369.467 4.826.109 1.036.194 2.476.268 3.732V715a4.16 4.16 0 0 1 .013.561v.007l-.034.138a.364.364 0 0 1 .078-.015 1.151 1.151 0 0 1 .777.312 1.713 1.713 0 0 0 .67.556c.281.131.006-.188.006-.188a1.157 1.157 0 0 1-.091-.14 2.766 2.766 0 0 1-.3-.765c.17-4.051.514-7.313.65-9.662-.636.244-1.431.025-2.141.473a.973.973 0 0 1-.363.144z" class="cls-15" transform="translate(-964.747 -674.66)"/>
                <path id="Path_2159" fill="#f0b185" d="M965.425 646.427l.031-.059-.3-.12.075-.778a.746.746 0 0 0 .782-.2 2.832 2.832 0 0 0 .388-2.243c-.012-.087-.059-.327-.081-.448v-.012a.385.385 0 1 0-.607 0 1.88 1.88 0 0 1-.063.626 2.757 2.757 0 0 1-1.071 1.779 1.624 1.624 0 0 1-1.007-.023.9.9 0 0 1-.5.385l-.045.578-.094.012.038.021c.487.525.907.982 2.454.482z" transform="translate(-960.792 -640.374)"/>
                <path id="Path_2160" d="M963.5 651.648c.109-.415.6-.353 1.005-.225a4.788 4.788 0 0 0-1.107-.482l-.369-.141-.092.029c-1.547.5-1.967.043-2.452-.482-.012-.008-.025-.013-.037-.021a1.583 1.583 0 0 0-1.587.12c-.656.4-.55 2.271-.55 2.271a24.568 24.568 0 0 0 .994 3.417c.009.037.016.077.026.111.136.494 1.6 3.044 1.191 5.054.2.113 2.513 1.374 3.735 1.206a4.521 4.521 0 0 0 2.116-.881l.048.141-.21-1.179.23-5.592c-.937-.443-1.761-.9-1.761-.9s-1.524-1.12-1.18-2.446z" class="cls-4" transform="translate(-958.306 -644.776)"/>
                <path id="Path_2161" fill="#e5bfaa" d="M965.624 713.882c.769.148.525.52 1.253.884.278.138.01-.187.01-.187a.63.63 0 0 1-.067-.126c-.1-.253-.334-.507-.362-.709.065-.971.352-5.658.482-7.828-.69-.179-1.186-1.214-1.851-.992a.969.969 0 0 1-.464.039c-.257 1.646.35 3.71.5 5.357.067.754.261 1.88.294 2.849a3.844 3.844 0 0 1 0 .566l-.039.14h.009a.04.04 0 0 1 0 .013l.024-.013a.928.928 0 0 1 .211.007z" transform="translate(-961.666 -674.17)"/>
                <path id="Path_2162" fill="#23c0e5" d="M966.582 700.5c-1.543 0-3.415-.807-3.685-1.535a9.248 9.248 0 0 0-.516 2.039 1.88 1.88 0 0 0 1.073.774.97.97 0 0 0 .464-.039c.665-.222 1.161.813 1.851.992a.779.779 0 0 0 .327.015.972.972 0 0 0 .361-.143c.71-.449 1.505-.23 2.141-.473a1.464 1.464 0 0 0 .853-.987 4.574 4.574 0 0 0-.5-1.767 3.107 3.107 0 0 1-2.369 1.124z" transform="translate(-960.495 -670.988)"/>
                <path id="Path_2163" fill="#19afdd" d="M965.821 675.418c-1.222.169-3.532-1.093-3.735-1.206l-.02-.011a9.814 9.814 0 0 0-.831 3.038 33.8 33.8 0 0 0 1.028 8.411c0 .005.006.011.008.017.27.729 2.143 1.535 3.685 1.535a3.107 3.107 0 0 0 2.367-1.123l.028-.035a50.985 50.985 0 0 0 .418-5.668 24.389 24.389 0 0 0-.784-5.7c-.016-.047-.032-.1-.048-.141a4.521 4.521 0 0 1-2.116.883z" transform="translate(-959.869 -657.688)"/>
                <path id="Path_2164" d="M980.235 651.027c-.037-.082-.1-.1-.4.115 0 0-.37.165-.438.2-.052-.071.963-.517.824-.715-.065-.171-.856.481-.9.416-.03-.1.725-.466.659-.6-.143-.174-.607.264-1.012.474-.2.1-.362.186-.155-.256.053-.114.137-.389-.039-.378-.117.007-.281.416-.419.54a1.514 1.514 0 0 0-.6.776l-.009.141-3.067 2.361a36.364 36.364 0 0 1-3.664-2.386 3.718 3.718 0 0 0-.545-.225c-.4-.128-.9-.19-1.005.225-.347 1.326 1.179 2.446 1.179 2.446s.823.456 1.761.9a6.262 6.262 0 0 0 2.5.816c.72-.159 2.84-2.763 3.4-3.469a3.042 3.042 0 0 0 .974-.426 5.332 5.332 0 0 0 .49-.242c.326-.192.429-.286.419-.366-.058-.1-.205 0-.467.169-.1.042-.259.088-.277.067l.423-.226c.173-.121.408-.272.368-.357z" class="cls-15" transform="translate(-964.275 -644.843)"/>
                <path id="Path_2165" fill="#5c4733" d="M962.34 643.109a1.624 1.624 0 0 0 1.007.023 2.757 2.757 0 0 0 1.071-1.779 1.88 1.88 0 0 0 .063-.626 3.013 3.013 0 0 1 .416-.607c.127-.144.228-.232.255-.266.2-.249-.17-.528-.485-.712a3.969 3.969 0 0 0-1.323-.583 1.9 1.9 0 0 0-1.17.2 3.557 3.557 0 0 0-.925.692h.005a1.993 1.993 0 0 0-.331 2.253 2.758 2.758 0 0 0 .114.255.854.854 0 0 0-.394.712.89.89 0 0 0 .911.867.931.931 0 0 0 .289-.049.9.9 0 0 0 .497-.38z" transform="translate(-959.562 -638.533)"/>
            </g>
        </g>
    </g>
</svg>
