<svg xmlns="http://www.w3.org/2000/svg" width="270" height="68.843" viewBox="0 0 270 68.843">
    <g data-name="그룹 3973">
        <path data-name="패스 11275" d="M70.691 83.4v-5.432H51.89c-3.465 0-4.7-1.152-4.7-3.564V62.388h-5.06a.366.366 0 0 0-.366.366v12.587c0 3.879 1.981 8.055 9.778 8.055z" transform="translate(-41.768 -39.38)" style="fill:#fff"/>
        <path data-name="패스 11276" d="M87.538 74.355H80.86V61.306h-.02l.021-.026H75.8a.366.366 0 0 0-.366.366v25.868H51.57a4.966 4.966 0 0 0-4.952 4.952v9.91a4.967 4.967 0 0 0 4.952 4.952h24.339a4.966 4.966 0 0 0 4.951-4.952V79.483v3.143A3.151 3.151 0 0 1 84 79.483h3.9v-4.761a.366.366 0 0 0-.362-.367zm-12.106 26.184a1.3 1.3 0 0 1-1.3 1.3h-20.9a1.3 1.3 0 0 1-1.3-1.3v-6.275a1.3 1.3 0 0 1 1.3-1.3h20.9a1.3 1.3 0 0 1 1.3 1.3v6.275z" transform="translate(-41.32 -39.482)" style="fill:#fff"/>
    </g>
    <path data-name="패스 11277" d="M101.573 60.446a12.421 12.421 0 1 0 12.819 12.414 12.621 12.621 0 0 0-12.819-12.414z" transform="translate(-37.429 -39.56)" style="fill:#dc000c"/>
    <path data-name="패스 11278" d="M135.109 65.439h-7.778v-4.133h-.02l.021-.026h-5.06a.366.366 0 0 0-.366.366v22.44c0 1.148-.47 1.262-.889 1.137-.2-.115-.4-.228-.61-.333l-.023-.019.007.013a13.078 13.078 0 0 0-5.876-1.389 12.42 12.42 0 1 0 12.818 12.413V79.483v3.143a3.152 3.152 0 0 1 3.143-3.143h5v-4.761a.367.367 0 0 0-.366-.367h-7.778v-3.788 3.142a3.152 3.152 0 0 1 3.143-3.142h5V65.8a.367.367 0 0 0-.366-.361zm-20.6 38.005a7.536 7.536 0 1 1 7.779-7.532 7.658 7.658 0 0 1-7.775 7.532z" transform="translate(-36.235 -39.482)" style="fill:#fff"/>
    <g data-name="그룹 3974">
        <path data-name="패스 11279" d="M42.5 51.137v-9.669h7.029v1.157H43.8v2.93h5.362v1.158H43.8v3.277h5.971v1.147z" transform="translate(-41.7 -41.312)" style="fill:#fff"/>
        <path data-name="패스 11280" d="M50.639 50.927V43.9H51.7v1a2.547 2.547 0 0 1 2.246-1.154 3.083 3.083 0 0 1 1.186.225 1.9 1.9 0 0 1 .8.6 2.286 2.286 0 0 1 .375.885 6.824 6.824 0 0 1 .064 1.154v4.317h-1.24v-4.274a2.938 2.938 0 0 0-.143-1.087 1.129 1.129 0 0 0-.486-.579 1.53 1.53 0 0 0-.82-.214 1.912 1.912 0 0 0-1.3.477 2.4 2.4 0 0 0-.546 1.84v3.838z" transform="translate(-40.949 -41.101)" style="fill:#fff"/>
        <path data-name="패스 11281" d="M57.674 42.829v-1.361h1.19v1.361zm-1.517 11.022.228-1.021a2.224 2.224 0 0 0 .56.09.65.65 0 0 0 .548-.234 2.443 2.443 0 0 0 .181-1.2v-7.371h1.19v7.4a3.4 3.4 0 0 1-.342 1.8 1.579 1.579 0 0 1-1.428.666 3.561 3.561 0 0 1-.937-.13z" transform="translate(-40.439 -41.312)" style="fill:#fff"/>
        <path data-name="패스 11282" d="M61.749 45.392a1.938 1.938 0 0 1 2.941 0 2.912 2.912 0 0 1 .592 1.974 3.093 3.093 0 0 1-.592 2.07 1.861 1.861 0 0 1-1.468.684 1.839 1.839 0 0 1-1.473-.684 3.75 3.75 0 0 1 0-4.048zm-.923 4.752a3.193 3.193 0 0 0 2.4.946 3.392 3.392 0 0 0 1.7-.429 2.93 2.93 0 0 0 1.193-1.2 4.751 4.751 0 0 0 .408-2.136A3.565 3.565 0 0 0 65.6 44.7a3.137 3.137 0 0 0-2.373-.948 3.327 3.327 0 0 0-2.227.775 3.618 3.618 0 0 0-1.085 2.888 3.787 3.787 0 0 0 .912 2.728z" transform="translate(-40.092 -41.101)" style="fill:#fff"/>
        <path data-name="패스 11283" d="m66.5 53.6-.16-1.113a2.8 2.8 0 0 0 .708.1 1.412 1.412 0 0 0 .652-.133 1.037 1.037 0 0 0 .4-.369 5.919 5.919 0 0 0 .373-.881c.024-.07.064-.165.109-.3l-2.7-7.023h1.268l1.49 4.056c.192.52.37 1.054.519 1.624.135-.527.3-1.052.486-1.569l1.5-4.111h1.2l-2.634 7.169a14.3 14.3 0 0 1-.679 1.57 2.375 2.375 0 0 1-.745.852 1.77 1.77 0 0 1-1.006.282 2.513 2.513 0 0 1-.781-.154z" transform="translate(-39.541 -41.088)" style="fill:#fff"/>
        <path data-name="패스 11284" d="m78.667 50.077.16 1.047a4.231 4.231 0 0 1-.909.117 2.119 2.119 0 0 1-1.008-.208 1.149 1.149 0 0 1-.5-.544 4.3 4.3 0 0 1-.148-1.411v-4.054h-.869v-.916h.869v-1.736l1.19-.715v2.451h1.216v.916H77.45v4.091a2.023 2.023 0 0 0 .068.656.466.466 0 0 0 .206.225.782.782 0 0 0 .415.089c.138-.002.306-.002.528-.008z" transform="translate(-38.663 -41.294)" style="fill:#fff"/>
        <path data-name="패스 11285" d="M79.64 51.137v-9.669h1.183v3.453a2.7 2.7 0 0 1 2.115-.959 2.851 2.851 0 0 1 1.359.3 1.829 1.829 0 0 1 .829.85 3.907 3.907 0 0 1 .249 1.572v4.45h-1.192v-4.45a1.828 1.828 0 0 0-.386-1.3 1.471 1.471 0 0 0-1.1-.4 1.93 1.93 0 0 0-.995.276 1.507 1.507 0 0 0-.668.739 3.33 3.33 0 0 0-.209 1.3v3.842z" transform="translate(-38.271 -41.312)" style="fill:#fff"/>
        <path data-name="패스 11286" d="M87.47 45.278a1.9 1.9 0 0 1 1.4-.559 1.868 1.868 0 0 1 1.5.7 2.479 2.479 0 0 1 .458 1.347h-3.99a2.2 2.2 0 0 1 .632-1.488zm2.6 4.5a1.856 1.856 0 0 1-1.127.35 1.949 1.949 0 0 1-1.472-.623 2.6 2.6 0 0 1-.656-1.766h5.244v-.32a3.814 3.814 0 0 0-.9-2.7 3 3 0 0 0-2.306-.961 3.105 3.105 0 0 0-2.38.975 3.881 3.881 0 0 0-.916 2.754 3.68 3.68 0 0 0 .912 2.665 3.23 3.23 0 0 0 2.449.946 3.277 3.277 0 0 0 2.017-.591 3.034 3.034 0 0 0 1.088-1.66l-1.219-.163a2.338 2.338 0 0 1-.73 1.089z" transform="translate(-37.723 -41.101)" style="fill:#fff"/>
        <path data-name="패스 11287" d="M99.643 49.4a3.937 3.937 0 0 1 1.244.553 3.181 3.181 0 0 1-1.27.256 3.03 3.03 0 0 1-2.351-1.009 4.111 4.111 0 0 1-.92-2.885 4.082 4.082 0 0 1 .928-2.916 3.145 3.145 0 0 1 5.192.864 4.94 4.94 0 0 1 .391 2.043 4 4 0 0 1-1.1 3.085 4.681 4.681 0 0 0-1.81-.927zm4.154-.953a6.252 6.252 0 0 0 .348-2.139 5.709 5.709 0 0 0-.555-2.571 4.033 4.033 0 0 0-1.609-1.78 4.5 4.5 0 0 0-2.377-.634 4.623 4.623 0 0 0-2.356.613 4.011 4.011 0 0 0-1.622 1.78 5.838 5.838 0 0 0-.571 2.607 5.769 5.769 0 0 0 .565 2.577 4.205 4.205 0 0 0 1.62 1.774 4.45 4.45 0 0 0 2.344.635 4.659 4.659 0 0 0 2.34-.6 7.451 7.451 0 0 0 2.035 1.18l.369-.892a7.865 7.865 0 0 1-1.6-.9 4.613 4.613 0 0 0 1.072-1.648z" transform="translate(-36.848 -41.325)" style="fill:#fff"/>
        <path data-name="패스 11288" d="M108.929 50.914V49.89a2.588 2.588 0 0 1-2.239 1.187 2.92 2.92 0 0 1-1.167-.239 1.943 1.943 0 0 1-.8-.6 2.234 2.234 0 0 1-.369-.885 5.743 5.743 0 0 1-.074-1.11v-4.352h1.194v3.9a7.157 7.157 0 0 0 .067 1.251 1.189 1.189 0 0 0 .486.736 1.441 1.441 0 0 0 .9.272 1.959 1.959 0 0 0 1.011-.277 1.509 1.509 0 0 0 .663-.742 3.611 3.611 0 0 0 .2-1.376v-3.764h1.189v7.023z" transform="translate(-35.996 -41.088)" style="fill:#fff"/>
        <path data-name="패스 11289" d="M115.427 47.836a2.8 2.8 0 0 1-.2 1.2 1.85 1.85 0 0 1-.8.825 2.387 2.387 0 0 1-1.232.307 1.584 1.584 0 0 1-1.067-.318 1.077 1.077 0 0 1-.2-1.374 1.11 1.11 0 0 1 .477-.4 4.952 4.952 0 0 1 1.057-.239 8.845 8.845 0 0 0 1.975-.45zm.32 3.091h1.245a2.487 2.487 0 0 1-.3-.835 17.357 17.357 0 0 1-.074-2.1v-1.6a6.2 6.2 0 0 0-.061-1.094 1.632 1.632 0 0 0-1.2-1.333 4.264 4.264 0 0 0-1.47-.211 4.852 4.852 0 0 0-1.6.245 2.253 2.253 0 0 0-1.055.7 2.8 2.8 0 0 0-.525 1.2l1.19.156a1.793 1.793 0 0 1 .593-1.041 2.1 2.1 0 0 1 1.24-.294 1.988 1.988 0 0 1 1.364.407 1.332 1.332 0 0 1 .345 1.036c0 .042 0 .148-.009.309a10.47 10.47 0 0 1-2.144.416 8.478 8.478 0 0 0-1.075.175 3.161 3.161 0 0 0-.863.4 1.789 1.789 0 0 0-.614.676 1.9 1.9 0 0 0-.24.944 1.833 1.833 0 0 0 .631 1.445 2.582 2.582 0 0 0 1.791.567 3.914 3.914 0 0 0 1.331-.233 4.522 4.522 0 0 0 1.267-.792 2.513 2.513 0 0 0 .232.857z" transform="translate(-35.423 -41.101)" style="fill:#fff"/>
        <path data-name="패스 11290" d="M117.564 51.137v-9.669h1.193v9.669z" transform="translate(-34.77 -41.312)" style="fill:#fff"/>
        <path data-name="패스 11291" d="M120.382 42.829v-1.361h1.187v1.361zm0 8.308v-7.022h1.187v7.022z" transform="translate(-34.509 -41.312)" style="fill:#fff"/>
        <path data-name="패스 11292" d="m125.791 50.077.161 1.047a4.194 4.194 0 0 1-.9.117 2.079 2.079 0 0 1-1.007-.208 1.153 1.153 0 0 1-.5-.544 4.2 4.2 0 0 1-.155-1.411v-4.054h-.869v-.916h.869v-1.736l1.194-.715v2.451h1.213v.916h-1.213v4.091a1.965 1.965 0 0 0 .068.656.479.479 0 0 0 .205.225.765.765 0 0 0 .409.089c.134-.002.306-.002.525-.008z" transform="translate(-34.313 -41.294)" style="fill:#fff"/>
        <path data-name="패스 11293" d="m126.584 53.6-.156-1.113a2.776 2.776 0 0 0 .707.1 1.4 1.4 0 0 0 .652-.133 1.165 1.165 0 0 0 .406-.369 6.535 6.535 0 0 0 .367-.881c.028-.07.065-.165.114-.3l-2.694-7.023h1.261l1.484 4.056a16.323 16.323 0 0 1 .527 1.624 15.494 15.494 0 0 1 .487-1.561l1.5-4.111h1.194l-2.637 7.159a13.66 13.66 0 0 1-.682 1.57 2.31 2.31 0 0 1-.742.852 1.748 1.748 0 0 1-1 .282 2.519 2.519 0 0 1-.788-.152z" transform="translate(-33.993 -41.088)" style="fill:#fff"/>
    </g>
    <g data-name="그룹 3975">
        <path data-name="패스 11294" d="M187 60.659h-22.332a11.649 11.649 0 0 0-11.611 11.662v35.9h11.636v-17.49h22.282v17.491h11.636v-35.9A11.651 11.651 0 0 0 187 60.659zm-.024 11.662V79.1H164.69l-.022-6.8z" transform="translate(-31.493 -39.54)" style="fill:#fff"/>
        <path data-name="패스 11295" d="M244.655 97.2q0 10.762-12.121 10.76h-33.228v-47.3h33.227q12.121 0 12.121 10.76zm-16.6-25.78h-16.039v7.333h16.025c2.341 0 3.9-1.339 3.9-3.663.002-2.757-1.556-3.671-3.883-3.671zm-.014 17.38h-16.025v8.4l16.025-.06c2.241 0 3.9-1.4 3.9-4.2.002-2.763-1.585-4.14-3.9-4.14z" transform="translate(-27.223 -39.54)" style="fill:#fff"/>
        <path data-name="패스 11296" d="M281.168 60.659v.1l-11.934 24.764-11.965-24.834h-.354v-.03h-11.828v47.564h11.828v-.231h.012V89.321l-.012-.23v-9.822l8.076 20.011h8.062l8.115-19.41v28.353H293V60.659z" transform="translate(-22.997 -39.54)" style="fill:#fff"/>
    </g>
</svg>
